<?xml version="1.0" encoding="UTF-8"?>
<svg xmlns="http://www.w3.org/2000/svg" viewBox="0 0 2200 1640" preserveAspectRatio="none" shape-rendering="geometricPrecision">
<path d="M104.0,0.0 L104.0,8.0 M104.0,8.0 L104.0,16.0 M104.0,16.0 L104.0,24.0 M104.0,24.0 L104.0,32.0 M104.0,32.0 L104.0,40.0 M104.0,40.0 L104.0,48.0 M104.0,48.0 L104.0,56.0 M104.0,56.0 L104.0,64.0 M104.0,64.0 L104.0,72.0 M104.0,72.0 L104.0,80.0 M104.0,80.0 L104.0,88.0 M96.0,96.0 L96.0,96.0 M96.0,96.0 L104.0,88.0 M96.0,96.0 L96.0,104.0 M96.0,104.0 L96.0,112.0 M96.0,112.0 L96.0,120.0 M96.0,120.0 L96.0,128.0 M88.0,136.0 L88.0,136.0 M88.0,136.0 L96.0,128.0 M88.0,136.0 L88.0,144.0 M88.0,144.0 L88.0,152.0 M88.0,152.0 L88.0,160.0 M88.0,160.0 L88.0,168.0 M88.0,168.0 L88.0,176.0 M88.0,176.0 L88.0,184.0 M80.0,192.0 L80.0,192.0 M80.0,192.0 L88.0,184.0 M80.0,192.0 L80.0,200.0 M80.0,200.0 L80.0,208.0 M80.0,208.0 L80.0,216.0 M72.0,224.0 L72.0,224.0 M72.0,224.0 L80.0,216.0 M72.0,224.0 L72.0,232.0 M72.0,232.0 L72.0,240.0 M72.0,240.0 L72.0,248.0 M72.0,248.0 L72.0,256.0 M72.0,256.0 L72.0,264.0 M72.0,264.0 L72.0,272.0 M64.0,280.0 L64.0,280.0 M64.0,280.0 L72.0,272.0 M64.0,280.0 L64.0,288.0 M64.0,288.0 L64.0,296.0 M64.0,296.0 L64.0,304.0 M64.0,304.0 L64.0,312.0 M56.0,320.0 L56.0,320.0 M56.0,320.0 L64.0,312.0 M56.0,320.0 L56.0,328.0 M56.0,328.0 L56.0,336.0 M48.0,344.0 L48.0,344.0 M48.0,344.0 L56.0,336.0 M48.0,344.0 L48.0,352.0 M40.0,360.0 L40.0,360.0 M40.0,360.0 L48.0,352.0 M40.0,360.0 L40.0,368.0 M32.0,376.0 L32.0,376.0 M32.0,376.0 L40.0,368.0 M32.0,376.0 L32.0,384.0 M24.0,392.0 L24.0,392.0 M24.0,392.0 L32.0,384.0 M16.0,400.0 L16.0,400.0 M16.0,400.0 L24.0,392.0 M16.0,400.0 L16.0,408.0 M8.0,416.0 L8.0,416.0 M8.0,416.0 L16.0,408.0 M0.0,424.0 L8.0,416.0 M392.0,8.0 L392.0,8.0 M392.0,8.0 L400.0,0.0 M392.0,8.0 L392.0,16.0 M392.0,16.0 L392.0,24.0 M392.0,24.0 L392.0,32.0 M392.0,32.0 L392.0,40.0 M392.0,40.0 L392.0,48.0 M384.0,56.0 L384.0,56.0 M384.0,56.0 L392.0,48.0 M384.0,56.0 L384.0,64.0 M384.0,64.0 L384.0,72.0 M384.0,72.0 L384.0,80.0 M376.0,88.0 L376.0,88.0 M376.0,88.0 L384.0,80.0 M376.0,88.0 L376.0,96.0 M376.0,96.0 L376.0,104.0 M376.0,104.0 L376.0,112.0 M368.0,120.0 L368.0,120.0 M368.0,120.0 L376.0,112.0 M368.0,120.0 L368.0,128.0 M368.0,128.0 L368.0,136.0 M368.0,136.0 L368.0,144.0 M368.0,144.0 L368.0,152.0 M368.0,152.0 L368.0,160.0 M368.0,160.0 L368.0,168.0 M368.0,168.0 L368.0,176.0 M360.0,184.0 L360.0,184.0 M360.0,184.0 L368.0,176.0 M352.0,192.0 L352.0,192.0 M352.0,192.0 L360.0,184.0 M344.0,200.0 L344.0,200.0 M344.0,200.0 L352.0,192.0 M336.0,208.0 L336.0,208.0 M336.0,208.0 L344.0,200.0 M328.0,216.0 L328.0,216.0 M328.0,216.0 L336.0,208.0 M320.0,224.0 L320.0,224.0 M320.0,224.0 L328.0,216.0 M304.0,232.0 L304.0,232.0 M312.0,232.0 L304.0,232.0 M312.0,232.0 L320.0,224.0 M304.0,232.0 L304.0,240.0 M296.0,248.0 L296.0,248.0 M296.0,248.0 L304.0,240.0 M288.0,256.0 L288.0,256.0 M288.0,256.0 L296.0,248.0 M288.0,256.0 L288.0,264.0 M280.0,272.0 L280.0,272.0 M280.0,272.0 L288.0,264.0 M272.0,280.0 L272.0,280.0 M272.0,280.0 L280.0,272.0 M264.0,288.0 L264.0,288.0 M264.0,288.0 L272.0,280.0 M256.0,296.0 L256.0,296.0 M256.0,296.0 L264.0,288.0 M248.0,304.0 L248.0,304.0 M248.0,304.0 L256.0,296.0 M240.0,312.0 L240.0,312.0 M240.0,312.0 L248.0,304.0 M232.0,320.0 L232.0,320.0 M232.0,320.0 L240.0,312.0 M224.0,328.0 L224.0,328.0 M224.0,328.0 L232.0,320.0 M224.0,328.0 L224.0,336.0 M216.0,344.0 L216.0,344.0 M216.0,344.0 L224.0,336.0 M200.0,352.0 L200.0,352.0 M208.0,352.0 L200.0,352.0 M208.0,352.0 L216.0,344.0 M184.0,360.0 L184.0,360.0 M192.0,360.0 L184.0,360.0 M192.0,360.0 L200.0,352.0 M176.0,368.0 L176.0,368.0 M176.0,368.0 L184.0,360.0 M176.0,368.0 L176.0,376.0 M168.0,384.0 L168.0,384.0 M168.0,384.0 L176.0,376.0 M168.0,384.0 L168.0,392.0 M168.0,392.0 L168.0,400.0 M168.0,400.0 L168.0,408.0 M160.0,416.0 L160.0,416.0 M160.0,416.0 L168.0,408.0 M160.0,416.0 L160.0,424.0 M152.0,432.0 L152.0,432.0 M152.0,432.0 L160.0,424.0 M152.0,432.0 L152.0,440.0 M144.0,448.0 L144.0,448.0 M144.0,448.0 L152.0,440.0 M128.0,456.0 L128.0,456.0 M136.0,456.0 L128.0,456.0 M136.0,456.0 L144.0,448.0 M120.0,464.0 L120.0,464.0 M120.0,464.0 L128.0,456.0 M112.0,472.0 L112.0,472.0 M112.0,472.0 L120.0,464.0 M104.0,480.0 L104.0,480.0 M104.0,480.0 L112.0,472.0 M96.0,488.0 L96.0,488.0 M96.0,488.0 L104.0,480.0 M88.0,496.0 L88.0,496.0 M88.0,496.0 L96.0,488.0 M80.0,504.0 L80.0,504.0 M80.0,504.0 L88.0,496.0 M72.0,512.0 L72.0,512.0 M72.0,512.0 L80.0,504.0 M64.0,520.0 L64.0,520.0 M64.0,520.0 L72.0,512.0 M56.0,528.0 L56.0,528.0 M56.0,528.0 L64.0,520.0 M48.0,536.0 L48.0,536.0 M48.0,536.0 L56.0,528.0 M40.0,544.0 L40.0,544.0 M40.0,544.0 L48.0,536.0 M32.0,552.0 L32.0,552.0 M32.0,552.0 L40.0,544.0 M24.0,560.0 L24.0,560.0 M24.0,560.0 L32.0,552.0 M16.0,568.0 L16.0,568.0 M16.0,568.0 L24.0,560.0 M8.0,576.0 L8.0,576.0 M8.0,576.0 L16.0,568.0 M0.0,584.0 L8.0,576.0 M568.0,8.0 L568.0,8.0 M576.0,8.0 L568.0,8.0 M584.0,8.0 L576.0,8.0 M584.0,8.0 L592.0,0.0 M560.0,16.0 L560.0,16.0 M560.0,16.0 L568.0,8.0 M560.0,16.0 L560.0,24.0 M552.0,32.0 L552.0,32.0 M552.0,32.0 L560.0,24.0 M552.0,32.0 L552.0,40.0 M544.0,48.0 L544.0,48.0 M544.0,48.0 L552.0,40.0 M544.0,48.0 L544.0,56.0 M536.0,64.0 L536.0,64.0 M536.0,64.0 L544.0,56.0 M536.0,64.0 L536.0,72.0 M536.0,72.0 L536.0,80.0 M536.0,80.0 L536.0,88.0 M536.0,88.0 L536.0,96.0 M536.0,96.0 L536.0,104.0 M536.0,104.0 L536.0,104.0 M536.0,104.0 L544.0,112.0 M544.0,112.0 L544.0,112.0 M544.0,112.0 L552.0,120.0 M552.0,120.0 L552.0,120.0 M552.0,120.0 L560.0,120.0 M560.0,120.0 L568.0,120.0 M568.0,120.0 L576.0,128.0 M576.0,128.0 L576.0,128.0 M576.0,128.0 L584.0,136.0 M584.0,136.0 L584.0,144.0 M584.0,144.0 L584.0,152.0 M576.0,160.0 L576.0,160.0 M576.0,160.0 L584.0,152.0 M568.0,168.0 L568.0,168.0 M568.0,168.0 L576.0,160.0 M560.0,176.0 L560.0,176.0 M560.0,176.0 L568.0,168.0 M560.0,176.0 L560.0,184.0 M552.0,192.0 L552.0,192.0 M552.0,192.0 L560.0,184.0 M552.0,192.0 L552.0,200.0 M552.0,200.0 L552.0,208.0 M544.0,216.0 L544.0,216.0 M544.0,216.0 L552.0,208.0 M544.0,216.0 L544.0,224.0 M544.0,224.0 L544.0,232.0 M544.0,232.0 L544.0,240.0 M544.0,240.0 L544.0,240.0 M544.0,240.0 L552.0,248.0 M552.0,248.0 L552.0,256.0 M552.0,256.0 L552.0,256.0 M552.0,256.0 L560.0,264.0 M560.0,264.0 L560.0,272.0 M552.0,280.0 L552.0,280.0 M552.0,280.0 L560.0,272.0 M552.0,280.0 L552.0,288.0 M544.0,296.0 L544.0,296.0 M544.0,296.0 L552.0,288.0 M544.0,296.0 L544.0,304.0 M536.0,312.0 L536.0,312.0 M536.0,312.0 L544.0,304.0 M536.0,312.0 L536.0,320.0 M536.0,320.0 L536.0,328.0 M528.0,336.0 L528.0,336.0 M528.0,336.0 L536.0,328.0 M520.0,344.0 L520.0,344.0 M520.0,344.0 L528.0,336.0 M512.0,352.0 L512.0,352.0 M512.0,352.0 L520.0,344.0 M512.0,352.0 L512.0,360.0 M504.0,368.0 L504.0,368.0 M504.0,368.0 L512.0,360.0 M496.0,376.0 L496.0,376.0 M496.0,376.0 L504.0,368.0 M488.0,384.0 L488.0,384.0 M488.0,384.0 L496.0,376.0 M488.0,384.0 L488.0,392.0 M480.0,400.0 L480.0,400.0 M480.0,400.0 L488.0,392.0 M464.0,408.0 L464.0,408.0 M472.0,408.0 L464.0,408.0 M472.0,408.0 L480.0,400.0 M448.0,416.0 L448.0,416.0 M456.0,416.0 L448.0,416.0 M456.0,416.0 L464.0,408.0 M416.0,424.0 L416.0,424.0 M424.0,424.0 L416.0,424.0 M432.0,424.0 L424.0,424.0 M440.0,424.0 L432.0,424.0 M440.0,424.0 L448.0,416.0 M400.0,432.0 L400.0,432.0 M408.0,432.0 L400.0,432.0 M408.0,432.0 L416.0,424.0 M392.0,440.0 L392.0,440.0 M392.0,440.0 L400.0,432.0 M376.0,448.0 L376.0,448.0 M384.0,448.0 L376.0,448.0 M384.0,448.0 L392.0,440.0 M360.0,456.0 L360.0,456.0 M368.0,456.0 L360.0,456.0 M368.0,456.0 L376.0,448.0 M344.0,464.0 L344.0,464.0 M352.0,464.0 L344.0,464.0 M352.0,464.0 L360.0,456.0 M328.0,472.0 L328.0,472.0 M336.0,472.0 L328.0,472.0 M336.0,472.0 L344.0,464.0 M312.0,480.0 L312.0,480.0 M320.0,480.0 L312.0,480.0 M320.0,480.0 L328.0,472.0 M296.0,488.0 L296.0,488.0 M304.0,488.0 L296.0,488.0 M304.0,488.0 L312.0,480.0 M280.0,496.0 L280.0,496.0 M288.0,496.0 L280.0,496.0 M288.0,496.0 L296.0,488.0 M264.0,504.0 L264.0,504.0 M272.0,504.0 L264.0,504.0 M272.0,504.0 L280.0,496.0 M256.0,512.0 L256.0,512.0 M256.0,512.0 L264.0,504.0 M248.0,520.0 L248.0,520.0 M248.0,520.0 L256.0,512.0 M240.0,528.0 L240.0,528.0 M240.0,528.0 L248.0,520.0 M216.0,536.0 L216.0,536.0 M224.0,536.0 L216.0,536.0 M232.0,536.0 L224.0,536.0 M232.0,536.0 L240.0,528.0 M208.0,544.0 L208.0,544.0 M208.0,544.0 L216.0,536.0 M208.0,544.0 L208.0,552.0 M208.0,552.0 L208.0,560.0 M200.0,568.0 L200.0,568.0 M200.0,568.0 L208.0,560.0 M200.0,568.0 L200.0,576.0 M192.0,584.0 L192.0,584.0 M192.0,584.0 L200.0,576.0 M184.0,592.0 L184.0,592.0 M184.0,592.0 L192.0,584.0 M176.0,600.0 L176.0,600.0 M176.0,600.0 L184.0,592.0 M168.0,608.0 L168.0,608.0 M168.0,608.0 L176.0,600.0 M160.0,616.0 L160.0,616.0 M160.0,616.0 L168.0,608.0 M152.0,624.0 L152.0,624.0 M152.0,624.0 L160.0,616.0 M144.0,632.0 L144.0,632.0 M144.0,632.0 L152.0,624.0 M136.0,640.0 L136.0,640.0 M136.0,640.0 L144.0,632.0 M120.0,648.0 L120.0,648.0 M128.0,648.0 L120.0,648.0 M128.0,648.0 L136.0,640.0 M112.0,656.0 L112.0,656.0 M112.0,656.0 L120.0,648.0 M104.0,664.0 L104.0,664.0 M104.0,664.0 L112.0,656.0 M88.0,672.0 L88.0,672.0 M96.0,672.0 L88.0,672.0 M96.0,672.0 L104.0,664.0 M72.0,680.0 L72.0,680.0 M80.0,680.0 L72.0,680.0 M80.0,680.0 L88.0,672.0 M64.0,688.0 L64.0,688.0 M64.0,688.0 L72.0,680.0 M56.0,696.0 L56.0,696.0 M56.0,696.0 L64.0,688.0 M40.0,704.0 L40.0,704.0 M48.0,704.0 L40.0,704.0 M48.0,704.0 L56.0,696.0 M32.0,712.0 L32.0,712.0 M32.0,712.0 L40.0,704.0 M24.0,720.0 L24.0,720.0 M24.0,720.0 L32.0,712.0 M8.0,728.0 L8.0,728.0 M16.0,728.0 L8.0,728.0 M16.0,728.0 L24.0,720.0 M0.0,736.0 L8.0,728.0 M840.0,0.0 L840.0,8.0 M832.0,16.0 L832.0,16.0 M832.0,16.0 L840.0,8.0 M832.0,16.0 L832.0,24.0 M832.0,24.0 L832.0,32.0 M832.0,32.0 L832.0,40.0 M832.0,40.0 L832.0,48.0 M832.0,48.0 L832.0,56.0 M824.0,64.0 L824.0,64.0 M824.0,64.0 L832.0,56.0 M824.0,64.0 L824.0,72.0 M824.0,72.0 L824.0,80.0 M824.0,80.0 L824.0,88.0 M824.0,88.0 L824.0,96.0 M824.0,96.0 L824.0,104.0 M824.0,104.0 L824.0,112.0 M824.0,112.0 L824.0,120.0 M824.0,120.0 L824.0,128.0 M816.0,136.0 L816.0,136.0 M816.0,136.0 L824.0,128.0 M816.0,136.0 L816.0,144.0 M816.0,144.0 L816.0,152.0 M816.0,152.0 L816.0,160.0 M816.0,160.0 L816.0,168.0 M808.0,176.0 L808.0,176.0 M808.0,176.0 L816.0,168.0 M808.0,176.0 L808.0,184.0 M800.0,192.0 L800.0,192.0 M800.0,192.0 L808.0,184.0 M800.0,192.0 L800.0,200.0 M800.0,200.0 L800.0,208.0 M800.0,208.0 L800.0,216.0 M800.0,216.0 L800.0,224.0 M800.0,224.0 L800.0,232.0 M792.0,240.0 L792.0,240.0 M792.0,240.0 L800.0,232.0 M784.0,248.0 L784.0,248.0 M784.0,248.0 L792.0,240.0 M776.0,256.0 L776.0,256.0 M776.0,256.0 L784.0,248.0 M768.0,264.0 L768.0,264.0 M768.0,264.0 L776.0,256.0 M752.0,272.0 L752.0,272.0 M760.0,272.0 L752.0,272.0 M760.0,272.0 L768.0,264.0 M744.0,280.0 L744.0,280.0 M744.0,280.0 L752.0,272.0 M744.0,280.0 L744.0,288.0 M744.0,288.0 L744.0,296.0 M744.0,296.0 L744.0,304.0 M744.0,304.0 L744.0,312.0 M744.0,312.0 L744.0,320.0 M744.0,320.0 L744.0,328.0 M744.0,328.0 L744.0,336.0 M744.0,336.0 L744.0,344.0 M744.0,344.0 L744.0,352.0 M744.0,352.0 L744.0,360.0 M744.0,360.0 L744.0,368.0 M736.0,376.0 L736.0,376.0 M736.0,376.0 L744.0,368.0 M736.0,376.0 L736.0,384.0 M736.0,384.0 L736.0,392.0 M728.0,400.0 L728.0,400.0 M728.0,400.0 L736.0,392.0 M728.0,400.0 L728.0,408.0 M728.0,408.0 L728.0,416.0 M728.0,416.0 L728.0,424.0 M720.0,432.0 L720.0,432.0 M720.0,432.0 L728.0,424.0 M720.0,432.0 L720.0,440.0 M712.0,448.0 L712.0,448.0 M712.0,448.0 L720.0,440.0 M712.0,448.0 L712.0,456.0 M712.0,456.0 L712.0,464.0 M712.0,464.0 L712.0,472.0 M712.0,472.0 L712.0,480.0 M712.0,480.0 L712.0,488.0 M704.0,496.0 L704.0,496.0 M704.0,496.0 L712.0,488.0 M704.0,496.0 L704.0,504.0 M704.0,504.0 L704.0,512.0 M704.0,512.0 L704.0,520.0 M696.0,528.0 L696.0,528.0 M696.0,528.0 L704.0,520.0 M680.0,536.0 L680.0,536.0 M688.0,536.0 L680.0,536.0 M688.0,536.0 L696.0,528.0 M680.0,536.0 L680.0,544.0 M680.0,544.0 L680.0,552.0 M680.0,552.0 L680.0,552.0 M680.0,552.0 L688.0,560.0 M688.0,560.0 L688.0,568.0 M680.0,576.0 L680.0,576.0 M680.0,576.0 L688.0,568.0 M672.0,584.0 L672.0,584.0 M672.0,584.0 L680.0,576.0 M656.0,592.0 L656.0,592.0 M664.0,592.0 L656.0,592.0 M664.0,592.0 L672.0,584.0 M624.0,600.0 L624.0,600.0 M632.0,600.0 L624.0,600.0 M640.0,600.0 L632.0,600.0 M648.0,600.0 L640.0,600.0 M648.0,600.0 L656.0,592.0 M568.0,608.0 L568.0,608.0 M576.0,608.0 L568.0,608.0 M584.0,608.0 L576.0,608.0 M592.0,608.0 L584.0,608.0 M600.0,608.0 L592.0,608.0 M608.0,608.0 L600.0,608.0 M616.0,608.0 L608.0,608.0 M616.0,608.0 L624.0,600.0 M536.0,616.0 L536.0,616.0 M544.0,616.0 L536.0,616.0 M552.0,616.0 L544.0,616.0 M560.0,616.0 L552.0,616.0 M560.0,616.0 L568.0,608.0 M512.0,624.0 L512.0,624.0 M520.0,624.0 L512.0,624.0 M528.0,624.0 L520.0,624.0 M528.0,624.0 L536.0,616.0 M496.0,632.0 L496.0,632.0 M504.0,632.0 L496.0,632.0 M504.0,632.0 L512.0,624.0 M464.0,640.0 L464.0,640.0 M472.0,640.0 L464.0,640.0 M480.0,640.0 L472.0,640.0 M488.0,640.0 L480.0,640.0 M488.0,640.0 L496.0,632.0 M440.0,648.0 L440.0,648.0 M448.0,648.0 L440.0,648.0 M456.0,648.0 L448.0,648.0 M456.0,648.0 L464.0,640.0 M432.0,656.0 L432.0,656.0 M432.0,656.0 L440.0,648.0 M416.0,664.0 L416.0,664.0 M424.0,664.0 L416.0,664.0 M424.0,664.0 L432.0,656.0 M400.0,672.0 L400.0,672.0 M408.0,672.0 L400.0,672.0 M408.0,672.0 L416.0,664.0 M384.0,680.0 L384.0,680.0 M392.0,680.0 L384.0,680.0 M392.0,680.0 L400.0,672.0 M376.0,688.0 L376.0,688.0 M376.0,688.0 L384.0,680.0 M360.0,696.0 L360.0,696.0 M368.0,696.0 L360.0,696.0 M368.0,696.0 L376.0,688.0 M344.0,704.0 L344.0,704.0 M352.0,704.0 L344.0,704.0 M352.0,704.0 L360.0,696.0 M328.0,712.0 L328.0,712.0 M336.0,712.0 L328.0,712.0 M336.0,712.0 L344.0,704.0 M312.0,720.0 L312.0,720.0 M320.0,720.0 L312.0,720.0 M320.0,720.0 L328.0,712.0 M296.0,728.0 L296.0,728.0 M304.0,728.0 L296.0,728.0 M304.0,728.0 L312.0,720.0 M288.0,736.0 L288.0,736.0 M288.0,736.0 L296.0,728.0 M272.0,744.0 L272.0,744.0 M280.0,744.0 L272.0,744.0 M280.0,744.0 L288.0,736.0 M264.0,752.0 L264.0,752.0 M264.0,752.0 L272.0,744.0 M248.0,760.0 L248.0,760.0 M256.0,760.0 L248.0,760.0 M256.0,760.0 L264.0,752.0 M232.0,768.0 L232.0,768.0 M240.0,768.0 L232.0,768.0 M240.0,768.0 L248.0,760.0 M216.0,776.0 L216.0,776.0 M224.0,776.0 L216.0,776.0 M224.0,776.0 L232.0,768.0 M208.0,784.0 L208.0,784.0 M208.0,784.0 L216.0,776.0 M192.0,792.0 L192.0,792.0 M200.0,792.0 L192.0,792.0 M200.0,792.0 L208.0,784.0 M176.0,800.0 L176.0,800.0 M184.0,800.0 L176.0,800.0 M184.0,800.0 L192.0,792.0 M168.0,808.0 L168.0,808.0 M168.0,808.0 L176.0,800.0 M152.0,816.0 L152.0,816.0 M160.0,816.0 L152.0,816.0 M160.0,816.0 L168.0,808.0 M128.0,824.0 L128.0,824.0 M136.0,824.0 L128.0,824.0 M144.0,824.0 L136.0,824.0 M144.0,824.0 L152.0,816.0 M112.0,832.0 L112.0,832.0 M120.0,832.0 L112.0,832.0 M120.0,832.0 L128.0,824.0 M96.0,840.0 L96.0,840.0 M104.0,840.0 L96.0,840.0 M104.0,840.0 L112.0,832.0 M80.0,848.0 L80.0,848.0 M88.0,848.0 L80.0,848.0 M88.0,848.0 L96.0,840.0 M72.0,856.0 L72.0,856.0 M72.0,856.0 L80.0,848.0 M56.0,864.0 L56.0,864.0 M64.0,864.0 L56.0,864.0 M64.0,864.0 L72.0,856.0 M48.0,872.0 L48.0,872.0 M48.0,872.0 L56.0,864.0 M32.0,880.0 L32.0,880.0 M40.0,880.0 L32.0,880.0 M40.0,880.0 L48.0,872.0 M16.0,888.0 L16.0,888.0 M24.0,888.0 L16.0,888.0 M24.0,888.0 L32.0,880.0 M8.0,896.0 L0.0,896.0 M8.0,896.0 L16.0,888.0 M1040.0,0.0 L1040.0,8.0 M2056.0,0.0 L2056.0,8.0 M1032.0,16.0 L1032.0,16.0 M1032.0,16.0 L1040.0,8.0 M2056.0,8.0 L2048.0,16.0 M2056.0,8.0 L2056.0,8.0 M1032.0,16.0 L1032.0,24.0 M2048.0,16.0 L2048.0,24.0 M1032.0,24.0 L1032.0,32.0 M2048.0,24.0 L2048.0,32.0 M1032.0,32.0 L1032.0,40.0 M2048.0,32.0 L2048.0,40.0 M1032.0,40.0 L1032.0,48.0 M2048.0,40.0 L2048.0,48.0 M1032.0,48.0 L1032.0,56.0 M2048.0,48.0 L2040.0,56.0 M2048.0,48.0 L2048.0,48.0 M1024.0,64.0 L1024.0,64.0 M1024.0,64.0 L1032.0,56.0 M2040.0,56.0 L2040.0,64.0 M1024.0,64.0 L1024.0,72.0 M2040.0,64.0 L2040.0,72.0 M1024.0,72.0 L1024.0,80.0 M2040.0,72.0 L2040.0,80.0 M1024.0,80.0 L1024.0,88.0 M2040.0,80.0 L2040.0,88.0 M1024.0,88.0 L1024.0,96.0 M2040.0,88.0 L2048.0,96.0 M2048.0,96.0 L2048.0,96.0 M1024.0,96.0 L1024.0,104.0 M2048.0,96.0 L2048.0,104.0 M1016.0,112.0 L1016.0,112.0 M1016.0,112.0 L1024.0,104.0 M2048.0,104.0 L2048.0,112.0 M1016.0,112.0 L1016.0,120.0 M2048.0,112.0 L2056.0,120.0 M2056.0,120.0 L2056.0,120.0 M1016.0,120.0 L1016.0,128.0 M2056.0,120.0 L2056.0,128.0 M1016.0,128.0 L1016.0,136.0 M2056.0,128.0 L2064.0,136.0 M2064.0,136.0 L2064.0,136.0 M1016.0,136.0 L1016.0,144.0 M2064.0,136.0 L2064.0,144.0 M1008.0,152.0 L1008.0,152.0 M1008.0,152.0 L1016.0,144.0 M2064.0,144.0 L2072.0,152.0 M2072.0,152.0 L2072.0,152.0 M1008.0,152.0 L1008.0,160.0 M2072.0,152.0 L2080.0,160.0 M2080.0,160.0 L2080.0,160.0 M1008.0,160.0 L1008.0,168.0 M2080.0,160.0 L2080.0,168.0 M1008.0,168.0 L1008.0,176.0 M2080.0,168.0 L2088.0,176.0 M2088.0,176.0 L2088.0,176.0 M1008.0,176.0 L1008.0,184.0 M2088.0,176.0 L2088.0,184.0 M1008.0,184.0 L1008.0,192.0 M2088.0,184.0 L2096.0,192.0 M2096.0,192.0 L2096.0,192.0 M1008.0,192.0 L1008.0,200.0 M2096.0,192.0 L2096.0,200.0 M1008.0,200.0 L1008.0,208.0 M2096.0,200.0 L2104.0,208.0 M2104.0,208.0 L2104.0,208.0 M1000.0,216.0 L1000.0,216.0 M1000.0,216.0 L1008.0,208.0 M2104.0,208.0 L2104.0,216.0 M1000.0,216.0 L1000.0,224.0 M2104.0,216.0 L2104.0,224.0 M1000.0,224.0 L1000.0,232.0 M2104.0,224.0 L2112.0,232.0 M2112.0,232.0 L2112.0,232.0 M1000.0,232.0 L1000.0,240.0 M2112.0,232.0 L2120.0,240.0 M2128.0,240.0 L2120.0,240.0 M2128.0,240.0 L2128.0,240.0 M1000.0,240.0 L1000.0,248.0 M2128.0,240.0 L2136.0,248.0 M2136.0,248.0 L2136.0,248.0 M1000.0,248.0 L1000.0,256.0 M2136.0,248.0 L2144.0,256.0 M2152.0,256.0 L2144.0,256.0 M2152.0,256.0 L2152.0,256.0 M992.0,264.0 L992.0,264.0 M992.0,264.0 L1000.0,256.0 M2152.0,256.0 L2160.0,264.0 M2160.0,264.0 L2160.0,264.0 M992.0,264.0 L992.0,272.0 M2160.0,264.0 L2168.0,272.0 M2168.0,272.0 L2168.0,272.0 M992.0,272.0 L992.0,280.0 M2168.0,272.0 L2176.0,280.0 M2176.0,280.0 L2176.0,280.0 M992.0,280.0 L992.0,288.0 M2176.0,280.0 L2184.0,288.0 M2184.0,288.0 L2184.0,288.0 M992.0,288.0 L992.0,296.0 M2184.0,288.0 L2192.0,296.0 M992.0,296.0 L992.0,304.0 M992.0,304.0 L992.0,312.0 M984.0,320.0 L984.0,320.0 M984.0,320.0 L992.0,312.0 M984.0,320.0 L984.0,328.0 M984.0,328.0 L984.0,336.0 M984.0,336.0 L984.0,344.0 M984.0,344.0 L984.0,352.0 M984.0,352.0 L984.0,360.0 M984.0,360.0 L984.0,368.0 M984.0,368.0 L984.0,376.0 M984.0,376.0 L984.0,384.0 M984.0,384.0 L984.0,392.0 M976.0,400.0 L976.0,400.0 M976.0,400.0 L984.0,392.0 M976.0,400.0 L976.0,408.0 M976.0,408.0 L976.0,416.0 M976.0,416.0 L976.0,424.0 M976.0,424.0 L976.0,432.0 M968.0,440.0 L968.0,440.0 M968.0,440.0 L976.0,432.0 M968.0,440.0 L968.0,448.0 M968.0,448.0 L968.0,456.0 M960.0,464.0 L960.0,464.0 M960.0,464.0 L968.0,456.0 M960.0,464.0 L960.0,472.0 M960.0,472.0 L960.0,480.0 M952.0,488.0 L952.0,488.0 M952.0,488.0 L960.0,480.0 M952.0,488.0 L952.0,496.0 M952.0,496.0 L952.0,504.0 M944.0,512.0 L944.0,512.0 M944.0,512.0 L952.0,504.0 M944.0,512.0 L944.0,520.0 M944.0,520.0 L944.0,528.0 M944.0,528.0 L944.0,536.0 M936.0,544.0 L936.0,544.0 M936.0,544.0 L944.0,536.0 M928.0,552.0 L928.0,552.0 M928.0,552.0 L936.0,544.0 M928.0,552.0 L928.0,560.0 M920.0,568.0 L920.0,568.0 M920.0,568.0 L928.0,560.0 M912.0,576.0 L912.0,576.0 M912.0,576.0 L920.0,568.0 M904.0,584.0 L904.0,584.0 M904.0,584.0 L912.0,576.0 M904.0,584.0 L904.0,592.0 M904.0,592.0 L904.0,600.0 M904.0,600.0 L904.0,600.0 M904.0,600.0 L912.0,608.0 M912.0,608.0 L912.0,616.0 M912.0,616.0 L912.0,624.0 M912.0,624.0 L912.0,632.0 M912.0,632.0 L912.0,640.0 M904.0,648.0 L904.0,648.0 M904.0,648.0 L912.0,640.0 M904.0,648.0 L904.0,656.0 M904.0,656.0 L904.0,664.0 M904.0,664.0 L904.0,672.0 M904.0,672.0 L904.0,680.0 M904.0,680.0 L904.0,688.0 M896.0,696.0 L896.0,696.0 M896.0,696.0 L904.0,688.0 M896.0,696.0 L896.0,704.0 M888.0,712.0 L888.0,712.0 M888.0,712.0 L896.0,704.0 M888.0,712.0 L888.0,720.0 M880.0,728.0 L880.0,728.0 M880.0,728.0 L888.0,720.0 M872.0,736.0 L872.0,736.0 M872.0,736.0 L880.0,728.0 M864.0,744.0 L864.0,744.0 M864.0,744.0 L872.0,736.0 M864.0,744.0 L864.0,752.0 M856.0,760.0 L856.0,760.0 M856.0,760.0 L864.0,752.0 M840.0,768.0 L840.0,768.0 M848.0,768.0 L840.0,768.0 M848.0,768.0 L856.0,760.0 M816.0,776.0 L816.0,776.0 M824.0,776.0 L816.0,776.0 M832.0,776.0 L824.0,776.0 M832.0,776.0 L840.0,768.0 M808.0,784.0 L808.0,784.0 M808.0,784.0 L816.0,776.0 M800.0,792.0 L800.0,792.0 M800.0,792.0 L808.0,784.0 M792.0,800.0 L792.0,800.0 M792.0,800.0 L800.0,792.0 M784.0,808.0 L784.0,808.0 M784.0,808.0 L792.0,800.0 M784.0,808.0 L784.0,816.0 M776.0,824.0 L776.0,824.0 M776.0,824.0 L784.0,816.0 M768.0,832.0 L768.0,832.0 M768.0,832.0 L776.0,824.0 M760.0,840.0 L760.0,840.0 M760.0,840.0 L768.0,832.0 M760.0,840.0 L760.0,848.0 M752.0,856.0 L752.0,856.0 M752.0,856.0 L760.0,848.0 M744.0,864.0 L744.0,864.0 M744.0,864.0 L752.0,856.0 M736.0,872.0 L736.0,872.0 M736.0,872.0 L744.0,864.0 M720.0,880.0 L720.0,880.0 M728.0,880.0 L720.0,880.0 M728.0,880.0 L736.0,872.0 M696.0,888.0 L696.0,888.0 M704.0,888.0 L696.0,888.0 M712.0,888.0 L704.0,888.0 M712.0,888.0 L720.0,880.0 M664.0,896.0 L664.0,896.0 M672.0,896.0 L664.0,896.0 M680.0,896.0 L672.0,896.0 M688.0,896.0 L680.0,896.0 M688.0,896.0 L696.0,888.0 M632.0,904.0 L632.0,904.0 M640.0,904.0 L632.0,904.0 M648.0,904.0 L640.0,904.0 M656.0,904.0 L648.0,904.0 M656.0,904.0 L664.0,896.0 M608.0,912.0 L608.0,912.0 M616.0,912.0 L608.0,912.0 M624.0,912.0 L616.0,912.0 M624.0,912.0 L632.0,904.0 M576.0,920.0 L576.0,920.0 M584.0,920.0 L576.0,920.0 M592.0,920.0 L584.0,920.0 M600.0,920.0 L592.0,920.0 M600.0,920.0 L608.0,912.0 M528.0,928.0 L528.0,928.0 M536.0,928.0 L528.0,928.0 M544.0,928.0 L536.0,928.0 M552.0,928.0 L544.0,928.0 M560.0,928.0 L552.0,928.0 M568.0,928.0 L560.0,928.0 M568.0,928.0 L576.0,920.0 M456.0,936.0 L456.0,936.0 M464.0,936.0 L456.0,936.0 M472.0,936.0 L464.0,936.0 M480.0,936.0 L472.0,936.0 M488.0,936.0 L480.0,936.0 M496.0,936.0 L488.0,936.0 M504.0,936.0 L496.0,936.0 M512.0,936.0 L504.0,936.0 M520.0,936.0 L512.0,936.0 M520.0,936.0 L528.0,928.0 M400.0,944.0 L400.0,944.0 M408.0,944.0 L400.0,944.0 M416.0,944.0 L408.0,944.0 M424.0,944.0 L416.0,944.0 M432.0,944.0 L424.0,944.0 M440.0,944.0 L432.0,944.0 M448.0,944.0 L440.0,944.0 M448.0,944.0 L456.0,936.0 M360.0,952.0 L360.0,952.0 M368.0,952.0 L360.0,952.0 M376.0,952.0 L368.0,952.0 M384.0,952.0 L376.0,952.0 M392.0,952.0 L384.0,952.0 M392.0,952.0 L400.0,944.0 M328.0,960.0 L328.0,960.0 M336.0,960.0 L328.0,960.0 M344.0,960.0 L336.0,960.0 M352.0,960.0 L344.0,960.0 M352.0,960.0 L360.0,952.0 M288.0,968.0 L288.0,968.0 M296.0,968.0 L288.0,968.0 M304.0,968.0 L296.0,968.0 M312.0,968.0 L304.0,968.0 M320.0,968.0 L312.0,968.0 M320.0,968.0 L328.0,960.0 M264.0,976.0 L264.0,976.0 M272.0,976.0 L264.0,976.0 M280.0,976.0 L272.0,976.0 M280.0,976.0 L288.0,968.0 M232.0,984.0 L232.0,984.0 M240.0,984.0 L232.0,984.0 M248.0,984.0 L240.0,984.0 M256.0,984.0 L248.0,984.0 M256.0,984.0 L264.0,976.0 M208.0,992.0 L208.0,992.0 M216.0,992.0 L208.0,992.0 M224.0,992.0 L216.0,992.0 M224.0,992.0 L232.0,984.0 M192.0,1000.0 L192.0,1000.0 M200.0,1000.0 L192.0,1000.0 M200.0,1000.0 L208.0,992.0 M160.0,1008.0 L160.0,1008.0 M168.0,1008.0 L160.0,1008.0 M176.0,1008.0 L168.0,1008.0 M184.0,1008.0 L176.0,1008.0 M184.0,1008.0 L192.0,1000.0 M136.0,1016.0 L136.0,1016.0 M144.0,1016.0 L136.0,1016.0 M152.0,1016.0 L144.0,1016.0 M152.0,1016.0 L160.0,1008.0 M112.0,1024.0 L112.0,1024.0 M120.0,1024.0 L112.0,1024.0 M128.0,1024.0 L120.0,1024.0 M128.0,1024.0 L136.0,1016.0 M96.0,1032.0 L96.0,1032.0 M104.0,1032.0 L96.0,1032.0 M104.0,1032.0 L112.0,1024.0 M80.0,1040.0 L80.0,1040.0 M88.0,1040.0 L80.0,1040.0 M88.0,1040.0 L96.0,1032.0 M56.0,1048.0 L56.0,1048.0 M64.0,1048.0 L56.0,1048.0 M72.0,1048.0 L64.0,1048.0 M72.0,1048.0 L80.0,1040.0 M40.0,1056.0 L40.0,1056.0 M48.0,1056.0 L40.0,1056.0 M48.0,1056.0 L56.0,1048.0 M24.0,1064.0 L24.0,1064.0 M32.0,1064.0 L24.0,1064.0 M32.0,1064.0 L40.0,1056.0 M8.0,1072.0 L8.0,1072.0 M16.0,1072.0 L8.0,1072.0 M16.0,1072.0 L24.0,1064.0 M0.0,1080.0 L8.0,1072.0 M1552.0,1152.0 L1544.0,1160.0 M1552.0,1152.0 L1560.0,1152.0 M1560.0,1152.0 L1568.0,1152.0 M1568.0,1152.0 L1576.0,1160.0 M1528.0,1160.0 L1520.0,1168.0 M1528.0,1160.0 L1536.0,1160.0 M1536.0,1160.0 L1544.0,1160.0 M1544.0,1160.0 L1544.0,1160.0 M1576.0,1160.0 L1576.0,1160.0 M1576.0,1160.0 L1584.0,1160.0 M1584.0,1160.0 L1592.0,1168.0 M1520.0,1168.0 L1520.0,1176.0 M1592.0,1168.0 L1592.0,1168.0 M1592.0,1168.0 L1600.0,1168.0 M1600.0,1168.0 L1608.0,1168.0 M1608.0,1168.0 L1616.0,1168.0 M1616.0,1168.0 L1624.0,1176.0 M1488.0,1176.0 L1480.0,1184.0 M1488.0,1176.0 L1496.0,1184.0 M1520.0,1176.0 L1520.0,1184.0 M1624.0,1176.0 L1624.0,1176.0 M1624.0,1176.0 L1632.0,1176.0 M1632.0,1176.0 L1640.0,1176.0 M1640.0,1176.0 L1648.0,1184.0 M1480.0,1184.0 L1472.0,1192.0 M1480.0,1184.0 L1480.0,1184.0 M1496.0,1184.0 L1496.0,1184.0 M1496.0,1184.0 L1504.0,1192.0 M1520.0,1184.0 L1512.0,1192.0 M1520.0,1184.0 L1520.0,1184.0 M1648.0,1184.0 L1648.0,1184.0 M1648.0,1184.0 L1656.0,1184.0 M1656.0,1184.0 L1664.0,1184.0 M1664.0,1184.0 L1672.0,1184.0 M1672.0,1184.0 L1680.0,1192.0 M1464.0,1192.0 L1456.0,1200.0 M1464.0,1192.0 L1472.0,1192.0 M1472.0,1192.0 L1472.0,1192.0 M1504.0,1192.0 L1504.0,1192.0 M1504.0,1192.0 L1512.0,1192.0 M1512.0,1192.0 L1512.0,1192.0 M1680.0,1192.0 L1680.0,1192.0 M1680.0,1192.0 L1688.0,1192.0 M1688.0,1192.0 L1696.0,1192.0 M1696.0,1192.0 L1704.0,1200.0 M2016.0,1192.0 L2008.0,1200.0 M2016.0,1192.0 L2024.0,1192.0 M2024.0,1192.0 L2032.0,1192.0 M2032.0,1192.0 L2040.0,1192.0 M2040.0,1192.0 L2048.0,1192.0 M2048.0,1192.0 L2056.0,1192.0 M2056.0,1192.0 L2064.0,1192.0 M2064.0,1192.0 L2072.0,1200.0 M1456.0,1200.0 L1448.0,1208.0 M1456.0,1200.0 L1456.0,1200.0 M1704.0,1200.0 L1704.0,1200.0 M1704.0,1200.0 L1712.0,1200.0 M1712.0,1200.0 L1720.0,1208.0 M2000.0,1200.0 L1992.0,1208.0 M2000.0,1200.0 L2008.0,1200.0 M2008.0,1200.0 L2008.0,1200.0 M2072.0,1200.0 L2072.0,1200.0 M2072.0,1200.0 L2080.0,1200.0 M2080.0,1200.0 L2088.0,1208.0 M1432.0,1208.0 L1424.0,1216.0 M1432.0,1208.0 L1440.0,1208.0 M1440.0,1208.0 L1448.0,1208.0 M1448.0,1208.0 L1448.0,1208.0 M1720.0,1208.0 L1720.0,1208.0 M1720.0,1208.0 L1728.0,1216.0 M1992.0,1208.0 L1984.0,1216.0 M1992.0,1208.0 L1992.0,1208.0 M2088.0,1208.0 L2088.0,1208.0 M2088.0,1208.0 L2096.0,1208.0 M2096.0,1208.0 L2104.0,1208.0 M2104.0,1208.0 L2112.0,1216.0 M1424.0,1216.0 L1416.0,1224.0 M1424.0,1216.0 L1424.0,1216.0 M1728.0,1216.0 L1728.0,1216.0 M1728.0,1216.0 L1736.0,1216.0 M1736.0,1216.0 L1744.0,1216.0 M1744.0,1216.0 L1752.0,1224.0 M1976.0,1216.0 L1968.0,1224.0 M1976.0,1216.0 L1984.0,1216.0 M1984.0,1216.0 L1984.0,1216.0 M2112.0,1216.0 L2112.0,1216.0 M2112.0,1216.0 L2120.0,1216.0 M2120.0,1216.0 L2128.0,1216.0 M2128.0,1216.0 L2136.0,1224.0 M1376.0,1224.0 L1368.0,1232.0 M1376.0,1224.0 L1384.0,1224.0 M1384.0,1224.0 L1392.0,1224.0 M1392.0,1224.0 L1400.0,1232.0 M1416.0,1224.0 L1416.0,1232.0 M1752.0,1224.0 L1752.0,1224.0 M1752.0,1224.0 L1760.0,1224.0 M1760.0,1224.0 L1768.0,1224.0 M1768.0,1224.0 L1776.0,1224.0 M1776.0,1224.0 L1784.0,1232.0 M1960.0,1224.0 L1952.0,1232.0 M1960.0,1224.0 L1968.0,1224.0 M1968.0,1224.0 L1968.0,1224.0 M2136.0,1224.0 L2136.0,1224.0 M2136.0,1224.0 L2144.0,1224.0 M2144.0,1224.0 L2152.0,1232.0 M1360.0,1232.0 L1352.0,1240.0 M1360.0,1232.0 L1368.0,1232.0 M1368.0,1232.0 L1368.0,1232.0 M1400.0,1232.0 L1400.0,1232.0 M1400.0,1232.0 L1408.0,1240.0 M1416.0,1232.0 L1408.0,1240.0 M1416.0,1232.0 L1416.0,1232.0 M1784.0,1232.0 L1784.0,1232.0 M1784.0,1232.0 L1792.0,1232.0 M1792.0,1232.0 L1800.0,1240.0 M1944.0,1232.0 L1936.0,1240.0 M1944.0,1232.0 L1952.0,1232.0 M1952.0,1232.0 L1952.0,1232.0 M2152.0,1232.0 L2152.0,1232.0 M2152.0,1232.0 L2160.0,1232.0 M2160.0,1232.0 L2168.0,1232.0 M2168.0,1232.0 L2176.0,1232.0 M2176.0,1232.0 L2184.0,1240.0 M1352.0,1240.0 L1352.0,1248.0 M1408.0,1240.0 L1408.0,1240.0 M1408.0,1240.0 L1408.0,1240.0 M1800.0,1240.0 L1800.0,1240.0 M1800.0,1240.0 L1808.0,1248.0 M1928.0,1240.0 L1920.0,1248.0 M1928.0,1240.0 L1936.0,1240.0 M1936.0,1240.0 L1936.0,1240.0 M2184.0,1240.0 L2184.0,1240.0 M2184.0,1240.0 L2192.0,1240.0 M1352.0,1248.0 L1352.0,1256.0 M1808.0,1248.0 L1808.0,1248.0 M1808.0,1248.0 L1816.0,1248.0 M1816.0,1248.0 L1824.0,1256.0 M1920.0,1248.0 L1912.0,1256.0 M1920.0,1248.0 L1920.0,1248.0 M1352.0,1256.0 L1344.0,1264.0 M1352.0,1256.0 L1352.0,1256.0 M1824.0,1256.0 L1824.0,1256.0 M1824.0,1256.0 L1832.0,1256.0 M1832.0,1256.0 L1840.0,1264.0 M1912.0,1256.0 L1904.0,1264.0 M1912.0,1256.0 L1912.0,1256.0 M1344.0,1264.0 L1336.0,1272.0 M1344.0,1264.0 L1344.0,1264.0 M1840.0,1264.0 L1840.0,1272.0 M1904.0,1264.0 L1904.0,1272.0 M1336.0,1272.0 L1336.0,1280.0 M1840.0,1272.0 L1840.0,1280.0 M1904.0,1272.0 L1904.0,1280.0 M1336.0,1280.0 L1336.0,1288.0 M1840.0,1280.0 L1840.0,1280.0 M1840.0,1280.0 L1848.0,1288.0 M1904.0,1280.0 L1904.0,1288.0 M1336.0,1288.0 L1344.0,1296.0 M1344.0,1296.0 L1344.0,1296.0 M1848.0,1288.0 L1848.0,1288.0 M1848.0,1288.0 L1856.0,1296.0 M1904.0,1288.0 L1912.0,1296.0 M1912.0,1296.0 L1912.0,1296.0 M1344.0,1296.0 L1344.0,1304.0 M1856.0,1296.0 L1856.0,1296.0 M1856.0,1296.0 L1864.0,1296.0 M1864.0,1296.0 L1872.0,1304.0 M1912.0,1296.0 L1912.0,1304.0 M1344.0,1304.0 L1344.0,1312.0 M1520.0,1312.0 L1520.0,1312.0 M1528.0,1312.0 L1520.0,1312.0 M1536.0,1312.0 L1528.0,1312.0 M1544.0,1312.0 L1536.0,1312.0 M1544.0,1312.0 L1544.0,1312.0 M1872.0,1304.0 L1872.0,1304.0 M1872.0,1304.0 L1880.0,1312.0 M1912.0,1304.0 L1912.0,1312.0 M1344.0,1312.0 L1336.0,1320.0 M1344.0,1312.0 L1344.0,1312.0 M1520.0,1312.0 L1520.0,1320.0 M1544.0,1312.0 L1544.0,1320.0 M1880.0,1312.0 L1880.0,1320.0 M1912.0,1312.0 L1920.0,1320.0 M1920.0,1320.0 L1920.0,1320.0 M1336.0,1320.0 L1336.0,1328.0 M1520.0,1320.0 L1520.0,1320.0 M1520.0,1320.0 L1528.0,1328.0 M1544.0,1320.0 L1544.0,1328.0 M1880.0,1320.0 L1880.0,1320.0 M1880.0,1320.0 L1888.0,1328.0 M1920.0,1320.0 L1920.0,1328.0 M1336.0,1328.0 L1344.0,1336.0 M1344.0,1336.0 L1344.0,1336.0 M1528.0,1328.0 L1528.0,1328.0 M1528.0,1328.0 L1536.0,1336.0 M1544.0,1328.0 L1544.0,1336.0 M1888.0,1328.0 L1888.0,1328.0 M1888.0,1328.0 L1896.0,1336.0 M1920.0,1328.0 L1920.0,1336.0 M1344.0,1336.0 L1344.0,1344.0 M1536.0,1336.0 L1536.0,1336.0 M1536.0,1336.0 L1544.0,1336.0 M1544.0,1336.0 L1544.0,1336.0 M1896.0,1336.0 L1896.0,1336.0 M1896.0,1336.0 L1904.0,1344.0 M1920.0,1336.0 L1920.0,1344.0 M1344.0,1344.0 L1352.0,1352.0 M1352.0,1352.0 L1352.0,1352.0 M1904.0,1344.0 L1904.0,1344.0 M1904.0,1344.0 L1912.0,1344.0 M1912.0,1344.0 L1920.0,1344.0 M1920.0,1344.0 L1920.0,1344.0 M1352.0,1352.0 L1360.0,1360.0 M1360.0,1360.0 L1360.0,1360.0 M1360.0,1360.0 L1368.0,1368.0 M1368.0,1368.0 L1368.0,1368.0 M1368.0,1368.0 L1368.0,1376.0 M1368.0,1376.0 L1376.0,1384.0 M1376.0,1384.0 L1376.0,1384.0 M1376.0,1384.0 L1384.0,1392.0 M1384.0,1392.0 L1384.0,1392.0 M1384.0,1392.0 L1392.0,1400.0 M1392.0,1400.0 L1392.0,1400.0 M1392.0,1400.0 L1400.0,1408.0 M1408.0,1408.0 L1400.0,1408.0 M1408.0,1408.0 L1408.0,1408.0 M1408.0,1408.0 L1416.0,1416.0 M1424.0,1416.0 L1416.0,1416.0 M1424.0,1416.0 L1424.0,1416.0 M1424.0,1416.0 L1432.0,1424.0 M1440.0,1424.0 L1432.0,1424.0 M1448.0,1424.0 L1440.0,1424.0 M1448.0,1424.0 L1448.0,1424.0 M1448.0,1424.0 L1456.0,1432.0 M1456.0,1432.0 L1456.0,1432.0 M1456.0,1432.0 L1464.0,1440.0 M1472.0,1440.0 L1464.0,1440.0 M1472.0,1440.0 L1472.0,1440.0 M1496.0,1440.0 L1496.0,1440.0 M1504.0,1440.0 L1496.0,1440.0 M1512.0,1440.0 L1504.0,1440.0 M1520.0,1440.0 L1512.0,1440.0 M1520.0,1440.0 L1520.0,1440.0 M1472.0,1440.0 L1480.0,1448.0 M1488.0,1448.0 L1480.0,1448.0 M1488.0,1448.0 L1496.0,1440.0 M1520.0,1440.0 L1512.0,1448.0 M1520.0,1440.0 L1520.0,1440.0 M1512.0,1448.0 L1520.0,1456.0 M1520.0,1456.0 L1520.0,1456.0 M1520.0,1456.0 L1520.0,1464.0 M1520.0,1464.0 L1520.0,1472.0 M1520.0,1472.0 L1528.0,1480.0 M1528.0,1480.0 L1528.0,1480.0 M1528.0,1480.0 L1536.0,1488.0 M1544.0,1488.0 L1536.0,1488.0 M1552.0,1488.0 L1544.0,1488.0 M1560.0,1488.0 L1552.0,1488.0 M1568.0,1488.0 L1560.0,1488.0 M1568.0,1488.0 L1568.0,1488.0 M1568.0,1488.0 L1560.0,1496.0 M1568.0,1488.0 L1568.0,1488.0 M1560.0,1496.0 L1560.0,1504.0 M1560.0,1504.0 L1552.0,1512.0 M1560.0,1504.0 L1560.0,1504.0 M1552.0,1512.0 L1544.0,1520.0 M1552.0,1512.0 L1552.0,1512.0 M1528.0,1520.0 L1520.0,1528.0 M1528.0,1520.0 L1536.0,1520.0 M1536.0,1520.0 L1544.0,1520.0 M1544.0,1520.0 L1544.0,1520.0 M1520.0,1528.0 L1520.0,1536.0 M1520.0,1536.0 L1528.0,1544.0 M1528.0,1544.0 L1528.0,1544.0 M1528.0,1544.0 L1528.0,1552.0 M1528.0,1552.0 L1528.0,1560.0 M1528.0,1560.0 L1528.0,1568.0 M1528.0,1568.0 L1536.0,1576.0 M1536.0,1576.0 L1536.0,1576.0 M1536.0,1576.0 L1544.0,1584.0 M1544.0,1584.0 L1544.0,1584.0 M1544.0,1584.0 L1552.0,1592.0 M1560.0,1592.0 L1552.0,1592.0 M1560.0,1592.0 L1560.0,1592.0 M1560.0,1592.0 L1568.0,1600.0 M1576.0,1600.0 L1568.0,1600.0 M1576.0,1600.0 L1576.0,1600.0 M1576.0,1600.0 L1584.0,1608.0 M1592.0,1608.0 L1584.0,1608.0 M1592.0,1608.0 L1592.0,1608.0 M1592.0,1608.0 L1600.0,1616.0 M1608.0,1616.0 L1600.0,1616.0 M1616.0,1616.0 L1608.0,1616.0 M1624.0,1616.0 L1616.0,1616.0 M1624.0,1616.0 L1624.0,1616.0 M1624.0,1616.0 L1632.0,1624.0 M1640.0,1624.0 L1632.0,1624.0 M1648.0,1624.0 L1640.0,1624.0 M1656.0,1624.0 L1648.0,1624.0 M1656.0,1624.0 L1656.0,1624.0 M1656.0,1624.0 L1664.0,1632.0 M1672.0,1632.0 L1664.0,1632.0 M1680.0,1632.0 L1672.0,1632.0 M1688.0,1632.0 L1680.0,1632.0 M1688.0,1632.0 L1688.0,1632.0 M1824.0,1632.0 L1824.0,1632.0 M1824.0,1632.0 L1824.0,1632.0 M1416.0,0.0 L1416.0,8.0 M1736.0,0.0 L1736.0,8.0 M1416.0,8.0 L1416.0,16.0 M1736.0,8.0 L1736.0,16.0 M1416.0,16.0 L1416.0,24.0 M1736.0,16.0 L1736.0,24.0 M1416.0,24.0 L1416.0,32.0 M1736.0,24.0 L1736.0,32.0 M1416.0,32.0 L1416.0,40.0 M1736.0,32.0 L1736.0,40.0 M1416.0,40.0 L1416.0,48.0 M1736.0,40.0 L1744.0,48.0 M1744.0,48.0 L1744.0,48.0 M1416.0,48.0 L1416.0,56.0 M1744.0,48.0 L1744.0,56.0 M1416.0,56.0 L1416.0,64.0 M1744.0,56.0 L1744.0,64.0 M1416.0,64.0 L1416.0,72.0 M1744.0,64.0 L1744.0,72.0 M1416.0,72.0 L1416.0,80.0 M1744.0,72.0 L1744.0,80.0 M1416.0,80.0 L1416.0,88.0 M1744.0,80.0 L1744.0,88.0 M1416.0,88.0 L1416.0,96.0 M1744.0,88.0 L1752.0,96.0 M1752.0,96.0 L1752.0,96.0 M1416.0,96.0 L1416.0,104.0 M1752.0,96.0 L1752.0,104.0 M1408.0,112.0 L1408.0,112.0 M1408.0,112.0 L1416.0,104.0 M1752.0,104.0 L1752.0,112.0 M1408.0,112.0 L1408.0,120.0 M1752.0,112.0 L1744.0,120.0 M1752.0,112.0 L1752.0,112.0 M1408.0,120.0 L1408.0,128.0 M1744.0,120.0 L1744.0,128.0 M1400.0,136.0 L1400.0,136.0 M1400.0,136.0 L1408.0,128.0 M1744.0,128.0 L1744.0,136.0 M1400.0,136.0 L1400.0,144.0 M1744.0,136.0 L1744.0,144.0 M1392.0,152.0 L1392.0,152.0 M1392.0,152.0 L1400.0,144.0 M1744.0,144.0 L1744.0,152.0 M1392.0,152.0 L1392.0,160.0 M1744.0,152.0 L1744.0,160.0 M1392.0,160.0 L1392.0,168.0 M1744.0,160.0 L1744.0,168.0 M1392.0,168.0 L1392.0,176.0 M1744.0,168.0 L1752.0,176.0 M1752.0,176.0 L1752.0,176.0 M1384.0,184.0 L1384.0,184.0 M1384.0,184.0 L1392.0,176.0 M1752.0,176.0 L1752.0,184.0 M1376.0,192.0 L1376.0,192.0 M1376.0,192.0 L1384.0,184.0 M1752.0,184.0 L1760.0,192.0 M1760.0,192.0 L1760.0,192.0 M1376.0,192.0 L1376.0,200.0 M1760.0,192.0 L1760.0,200.0 M1368.0,208.0 L1368.0,208.0 M1368.0,208.0 L1376.0,200.0 M1760.0,200.0 L1768.0,208.0 M1768.0,208.0 L1768.0,208.0 M1360.0,216.0 L1360.0,216.0 M1360.0,216.0 L1368.0,208.0 M1768.0,208.0 L1776.0,216.0 M1776.0,216.0 L1776.0,216.0 M1360.0,216.0 L1360.0,224.0 M1776.0,216.0 L1784.0,224.0 M1784.0,224.0 L1784.0,224.0 M1352.0,232.0 L1352.0,232.0 M1352.0,232.0 L1360.0,224.0 M1784.0,224.0 L1784.0,232.0 M1352.0,232.0 L1352.0,240.0 M1784.0,232.0 L1792.0,240.0 M1792.0,240.0 L1792.0,240.0 M1352.0,240.0 L1352.0,248.0 M1792.0,240.0 L1792.0,248.0 M1344.0,256.0 L1344.0,256.0 M1344.0,256.0 L1352.0,248.0 M1792.0,248.0 L1800.0,256.0 M1800.0,256.0 L1800.0,256.0 M1336.0,264.0 L1336.0,264.0 M1336.0,264.0 L1344.0,256.0 M1800.0,256.0 L1808.0,264.0 M1808.0,264.0 L1808.0,264.0 M1336.0,264.0 L1336.0,272.0 M1808.0,264.0 L1816.0,272.0 M1816.0,272.0 L1816.0,272.0 M1328.0,280.0 L1328.0,280.0 M1328.0,280.0 L1336.0,272.0 M1816.0,272.0 L1824.0,280.0 M1824.0,280.0 L1824.0,280.0 M1320.0,288.0 L1320.0,288.0 M1320.0,288.0 L1328.0,280.0 M1824.0,280.0 L1832.0,288.0 M1832.0,288.0 L1832.0,288.0 M1304.0,296.0 L1304.0,296.0 M1312.0,296.0 L1304.0,296.0 M1312.0,296.0 L1320.0,288.0 M1832.0,288.0 L1840.0,296.0 M1840.0,296.0 L1840.0,296.0 M1304.0,296.0 L1304.0,304.0 M1840.0,296.0 L1848.0,304.0 M1848.0,304.0 L1848.0,304.0 M1296.0,312.0 L1296.0,312.0 M1296.0,312.0 L1304.0,304.0 M1848.0,304.0 L1856.0,312.0 M1856.0,312.0 L1856.0,312.0 M1288.0,320.0 L1288.0,320.0 M1288.0,320.0 L1296.0,312.0 M1856.0,312.0 L1864.0,320.0 M1864.0,320.0 L1864.0,320.0 M1280.0,328.0 L1280.0,328.0 M1280.0,328.0 L1288.0,320.0 M1864.0,320.0 L1864.0,328.0 M1272.0,336.0 L1272.0,336.0 M1272.0,336.0 L1280.0,328.0 M1864.0,328.0 L1872.0,336.0 M1872.0,336.0 L1872.0,336.0 M1272.0,336.0 L1272.0,344.0 M1872.0,336.0 L1880.0,344.0 M1880.0,344.0 L1880.0,344.0 M1264.0,352.0 L1264.0,352.0 M1264.0,352.0 L1272.0,344.0 M1880.0,344.0 L1880.0,352.0 M1264.0,352.0 L1264.0,360.0 M1880.0,352.0 L1888.0,360.0 M1888.0,360.0 L1888.0,360.0 M1248.0,368.0 L1248.0,368.0 M1256.0,368.0 L1248.0,368.0 M1256.0,368.0 L1264.0,360.0 M1888.0,360.0 L1896.0,368.0 M1896.0,368.0 L1896.0,368.0 M1240.0,376.0 L1240.0,376.0 M1240.0,376.0 L1248.0,368.0 M1896.0,368.0 L1904.0,376.0 M1904.0,376.0 L1904.0,376.0 M1232.0,384.0 L1232.0,384.0 M1232.0,384.0 L1240.0,376.0 M1904.0,376.0 L1912.0,384.0 M1920.0,384.0 L1912.0,384.0 M1920.0,384.0 L1920.0,384.0 M1232.0,384.0 L1232.0,392.0 M1920.0,384.0 L1928.0,392.0 M1936.0,392.0 L1928.0,392.0 M1936.0,392.0 L1936.0,392.0 M1224.0,400.0 L1224.0,400.0 M1224.0,400.0 L1232.0,392.0 M1936.0,392.0 L1944.0,400.0 M1952.0,400.0 L1944.0,400.0 M1952.0,400.0 L1952.0,400.0 M1224.0,400.0 L1224.0,408.0 M1952.0,400.0 L1960.0,408.0 M1960.0,408.0 L1960.0,408.0 M1224.0,408.0 L1224.0,416.0 M1960.0,408.0 L1968.0,416.0 M1976.0,416.0 L1968.0,416.0 M1976.0,416.0 L1976.0,416.0 M1224.0,416.0 L1224.0,416.0 M1224.0,416.0 L1232.0,424.0 M1976.0,416.0 L1984.0,424.0 M1984.0,424.0 L1984.0,424.0 M1224.0,432.0 L1224.0,432.0 M1224.0,432.0 L1232.0,424.0 M1984.0,424.0 L1992.0,432.0 M2000.0,432.0 L1992.0,432.0 M2000.0,432.0 L2000.0,432.0 M1216.0,440.0 L1216.0,440.0 M1216.0,440.0 L1224.0,432.0 M2000.0,432.0 L2008.0,440.0 M2008.0,440.0 L2008.0,440.0 M1216.0,440.0 L1216.0,448.0 M2008.0,440.0 L2016.0,448.0 M2016.0,448.0 L2016.0,448.0 M1216.0,448.0 L1216.0,456.0 M2016.0,448.0 L2024.0,456.0 M2032.0,456.0 L2024.0,456.0 M2032.0,456.0 L2032.0,456.0 M1208.0,464.0 L1208.0,464.0 M1208.0,464.0 L1216.0,456.0 M2032.0,456.0 L2040.0,464.0 M2040.0,464.0 L2040.0,464.0 M1208.0,464.0 L1208.0,472.0 M2040.0,464.0 L2048.0,472.0 M2048.0,472.0 L2048.0,472.0 M1208.0,472.0 L1208.0,480.0 M2048.0,472.0 L2056.0,480.0 M2064.0,480.0 L2056.0,480.0 M2064.0,480.0 L2064.0,480.0 M1208.0,480.0 L1208.0,488.0 M2064.0,480.0 L2072.0,488.0 M2072.0,488.0 L2072.0,488.0 M1208.0,488.0 L1208.0,496.0 M2072.0,488.0 L2080.0,496.0 M2088.0,496.0 L2080.0,496.0 M2088.0,496.0 L2088.0,496.0 M1200.0,504.0 L1200.0,504.0 M1200.0,504.0 L1208.0,496.0 M2088.0,496.0 L2096.0,504.0 M2104.0,504.0 L2096.0,504.0 M2104.0,504.0 L2104.0,504.0 M1200.0,504.0 L1200.0,512.0 M2104.0,504.0 L2112.0,512.0 M2120.0,512.0 L2112.0,512.0 M2120.0,512.0 L2120.0,512.0 M1200.0,512.0 L1200.0,520.0 M2120.0,512.0 L2128.0,520.0 M2128.0,520.0 L2128.0,520.0 M1192.0,528.0 L1192.0,528.0 M1192.0,528.0 L1200.0,520.0 M2128.0,520.0 L2136.0,528.0 M2144.0,528.0 L2136.0,528.0 M2144.0,528.0 L2144.0,528.0 M1192.0,528.0 L1192.0,536.0 M2144.0,528.0 L2152.0,536.0 M2152.0,536.0 L2152.0,536.0 M1192.0,536.0 L1192.0,544.0 M2152.0,536.0 L2160.0,544.0 M2168.0,544.0 L2160.0,544.0 M2168.0,544.0 L2168.0,544.0 M1184.0,552.0 L1184.0,552.0 M1184.0,552.0 L1192.0,544.0 M2168.0,544.0 L2176.0,552.0 M2176.0,552.0 L2176.0,552.0 M1184.0,552.0 L1184.0,560.0 M2176.0,552.0 L2184.0,560.0 M2192.0,560.0 L2184.0,560.0 M1184.0,560.0 L1184.0,568.0 M1176.0,576.0 L1176.0,576.0 M1176.0,576.0 L1184.0,568.0 M1176.0,576.0 L1176.0,584.0 M1168.0,592.0 L1168.0,592.0 M1168.0,592.0 L1176.0,584.0 M1160.0,600.0 L1160.0,600.0 M1160.0,600.0 L1168.0,592.0 M1160.0,600.0 L1160.0,608.0 M1160.0,608.0 L1160.0,616.0 M1160.0,616.0 L1160.0,624.0 M1160.0,624.0 L1160.0,632.0 M1152.0,640.0 L1152.0,640.0 M1152.0,640.0 L1160.0,632.0 M1152.0,640.0 L1152.0,648.0 M1144.0,656.0 L1144.0,656.0 M1144.0,656.0 L1152.0,648.0 M1136.0,664.0 L1136.0,664.0 M1136.0,664.0 L1144.0,656.0 M1128.0,672.0 L1128.0,672.0 M1128.0,672.0 L1136.0,664.0 M1128.0,672.0 L1128.0,680.0 M1120.0,688.0 L1120.0,688.0 M1120.0,688.0 L1128.0,680.0 M1120.0,688.0 L1120.0,696.0 M1112.0,704.0 L1112.0,704.0 M1112.0,704.0 L1120.0,696.0 M1112.0,704.0 L1112.0,712.0 M1112.0,712.0 L1112.0,720.0 M1104.0,728.0 L1104.0,728.0 M1104.0,728.0 L1112.0,720.0 M1104.0,728.0 L1104.0,736.0 M1104.0,736.0 L1104.0,744.0 M1096.0,752.0 L1096.0,752.0 M1096.0,752.0 L1104.0,744.0 M1096.0,752.0 L1096.0,760.0 M1088.0,768.0 L1088.0,768.0 M1088.0,768.0 L1096.0,760.0 M1088.0,768.0 L1088.0,776.0 M1080.0,784.0 L1080.0,784.0 M1080.0,784.0 L1088.0,776.0 M1072.0,792.0 L1072.0,792.0 M1072.0,792.0 L1080.0,784.0 M1072.0,792.0 L1072.0,800.0 M1072.0,800.0 L1072.0,808.0 M1072.0,808.0 L1072.0,816.0 M1064.0,824.0 L1064.0,824.0 M1064.0,824.0 L1072.0,816.0 M1064.0,824.0 L1064.0,832.0 M1056.0,840.0 L1056.0,840.0 M1056.0,840.0 L1064.0,832.0 M1056.0,840.0 L1056.0,848.0 M1056.0,848.0 L1056.0,856.0 M1048.0,864.0 L1048.0,864.0 M1048.0,864.0 L1056.0,856.0 M1048.0,864.0 L1048.0,872.0 M1040.0,880.0 L1040.0,880.0 M1040.0,880.0 L1048.0,872.0 M1040.0,880.0 L1040.0,888.0 M1040.0,888.0 L1040.0,896.0 M1032.0,904.0 L1032.0,904.0 M1032.0,904.0 L1040.0,896.0 M1032.0,904.0 L1032.0,912.0 M1024.0,920.0 L1024.0,920.0 M1024.0,920.0 L1032.0,912.0 M1024.0,920.0 L1024.0,928.0 M1024.0,928.0 L1024.0,936.0 M1024.0,936.0 L1024.0,944.0 M1688.0,936.0 L1680.0,944.0 M1688.0,936.0 L1696.0,936.0 M1696.0,936.0 L1704.0,936.0 M1704.0,936.0 L1712.0,936.0 M1712.0,936.0 L1720.0,936.0 M1720.0,936.0 L1728.0,936.0 M1728.0,936.0 L1736.0,936.0 M1736.0,936.0 L1744.0,944.0 M1024.0,944.0 L1024.0,952.0 M1640.0,944.0 L1632.0,952.0 M1640.0,944.0 L1648.0,944.0 M1648.0,944.0 L1656.0,944.0 M1656.0,944.0 L1664.0,944.0 M1664.0,944.0 L1672.0,944.0 M1672.0,944.0 L1680.0,944.0 M1680.0,944.0 L1680.0,944.0 M1744.0,944.0 L1744.0,944.0 M1744.0,944.0 L1752.0,944.0 M1752.0,944.0 L1760.0,944.0 M1760.0,944.0 L1768.0,944.0 M1768.0,944.0 L1776.0,944.0 M1776.0,944.0 L1784.0,944.0 M1784.0,944.0 L1792.0,944.0 M1792.0,944.0 L1800.0,944.0 M1800.0,944.0 L1808.0,944.0 M1808.0,944.0 L1816.0,952.0 M1024.0,952.0 L1024.0,960.0 M1624.0,952.0 L1616.0,960.0 M1624.0,952.0 L1632.0,952.0 M1632.0,952.0 L1632.0,952.0 M1816.0,952.0 L1816.0,952.0 M1816.0,952.0 L1824.0,952.0 M1824.0,952.0 L1832.0,952.0 M1832.0,952.0 L1840.0,960.0 M1024.0,960.0 L1024.0,968.0 M1504.0,960.0 L1496.0,968.0 M1504.0,960.0 L1512.0,960.0 M1512.0,960.0 L1520.0,960.0 M1520.0,960.0 L1528.0,960.0 M1528.0,960.0 L1536.0,960.0 M1536.0,960.0 L1544.0,960.0 M1544.0,960.0 L1552.0,960.0 M1552.0,960.0 L1560.0,960.0 M1560.0,960.0 L1568.0,968.0 M1608.0,960.0 L1600.0,968.0 M1608.0,960.0 L1616.0,960.0 M1616.0,960.0 L1616.0,960.0 M1840.0,960.0 L1840.0,960.0 M1840.0,960.0 L1848.0,968.0 M1016.0,976.0 L1016.0,976.0 M1016.0,976.0 L1024.0,968.0 M1472.0,968.0 L1464.0,976.0 M1472.0,968.0 L1480.0,968.0 M1480.0,968.0 L1488.0,968.0 M1488.0,968.0 L1496.0,968.0 M1496.0,968.0 L1496.0,968.0 M1568.0,968.0 L1568.0,968.0 M1568.0,968.0 L1576.0,968.0 M1576.0,968.0 L1584.0,968.0 M1584.0,968.0 L1592.0,968.0 M1592.0,968.0 L1600.0,968.0 M1600.0,968.0 L1600.0,968.0 M1848.0,968.0 L1848.0,968.0 M1848.0,968.0 L1856.0,976.0 M984.0,984.0 L984.0,984.0 M992.0,984.0 L984.0,984.0 M1000.0,984.0 L992.0,984.0 M1008.0,984.0 L1000.0,984.0 M1008.0,984.0 L1016.0,976.0 M1432.0,976.0 L1424.0,984.0 M1432.0,976.0 L1440.0,976.0 M1440.0,976.0 L1448.0,976.0 M1448.0,976.0 L1456.0,976.0 M1456.0,976.0 L1464.0,976.0 M1464.0,976.0 L1464.0,976.0 M1856.0,976.0 L1856.0,984.0 M976.0,992.0 L976.0,992.0 M976.0,992.0 L984.0,984.0 M1416.0,984.0 L1408.0,992.0 M1416.0,984.0 L1424.0,984.0 M1424.0,984.0 L1424.0,984.0 M1856.0,984.0 L1856.0,984.0 M1856.0,984.0 L1864.0,984.0 M1864.0,984.0 L1872.0,992.0 M944.0,1000.0 L944.0,1000.0 M952.0,1000.0 L944.0,1000.0 M960.0,1000.0 L952.0,1000.0 M968.0,1000.0 L960.0,1000.0 M968.0,1000.0 L976.0,992.0 M1400.0,992.0 L1392.0,1000.0 M1400.0,992.0 L1408.0,992.0 M1408.0,992.0 L1408.0,992.0 M1872.0,992.0 L1872.0,992.0 M1872.0,992.0 L1880.0,1000.0 M920.0,1008.0 L920.0,1008.0 M928.0,1008.0 L920.0,1008.0 M936.0,1008.0 L928.0,1008.0 M936.0,1008.0 L944.0,1000.0 M1384.0,1000.0 L1376.0,1008.0 M1384.0,1000.0 L1392.0,1000.0 M1392.0,1000.0 L1392.0,1000.0 M1880.0,1000.0 L1880.0,1008.0 M912.0,1016.0 L912.0,1016.0 M912.0,1016.0 L920.0,1008.0 M1368.0,1008.0 L1360.0,1016.0 M1368.0,1008.0 L1376.0,1008.0 M1376.0,1008.0 L1376.0,1008.0 M1880.0,1008.0 L1880.0,1008.0 M1880.0,1008.0 L1888.0,1016.0 M904.0,1024.0 L904.0,1024.0 M904.0,1024.0 L912.0,1016.0 M1360.0,1016.0 L1352.0,1024.0 M1360.0,1016.0 L1360.0,1016.0 M1888.0,1016.0 L1888.0,1024.0 M896.0,1032.0 L896.0,1032.0 M896.0,1032.0 L904.0,1024.0 M1352.0,1024.0 L1352.0,1032.0 M1888.0,1024.0 L1888.0,1024.0 M1888.0,1024.0 L1896.0,1032.0 M888.0,1040.0 L888.0,1040.0 M888.0,1040.0 L896.0,1032.0 M1352.0,1032.0 L1344.0,1040.0 M1352.0,1032.0 L1352.0,1032.0 M1896.0,1032.0 L1896.0,1032.0 M1896.0,1032.0 L1904.0,1032.0 M1904.0,1032.0 L1912.0,1040.0 M880.0,1048.0 L880.0,1048.0 M880.0,1048.0 L888.0,1040.0 M1344.0,1040.0 L1336.0,1048.0 M1344.0,1040.0 L1344.0,1040.0 M1912.0,1040.0 L1912.0,1040.0 M1912.0,1040.0 L1920.0,1048.0 M872.0,1056.0 L872.0,1056.0 M872.0,1056.0 L880.0,1048.0 M1336.0,1048.0 L1336.0,1056.0 M1920.0,1048.0 L1920.0,1048.0 M1920.0,1048.0 L1928.0,1056.0 M864.0,1064.0 L864.0,1064.0 M864.0,1064.0 L872.0,1056.0 M1336.0,1056.0 L1328.0,1064.0 M1336.0,1056.0 L1336.0,1056.0 M1928.0,1056.0 L1928.0,1056.0 M1928.0,1056.0 L1936.0,1064.0 M848.0,1072.0 L848.0,1072.0 M856.0,1072.0 L848.0,1072.0 M856.0,1072.0 L864.0,1064.0 M1328.0,1064.0 L1328.0,1072.0 M1936.0,1064.0 L1936.0,1064.0 M1936.0,1064.0 L1944.0,1072.0 M840.0,1080.0 L840.0,1080.0 M840.0,1080.0 L848.0,1072.0 M1320.0,1072.0 L1312.0,1080.0 M1320.0,1072.0 L1328.0,1072.0 M1328.0,1072.0 L1328.0,1072.0 M1944.0,1072.0 L1944.0,1072.0 M1944.0,1072.0 L1952.0,1080.0 M832.0,1088.0 L832.0,1088.0 M832.0,1088.0 L840.0,1080.0 M1304.0,1080.0 L1296.0,1088.0 M1304.0,1080.0 L1312.0,1080.0 M1312.0,1080.0 L1312.0,1080.0 M1952.0,1080.0 L1952.0,1080.0 M1952.0,1080.0 L1960.0,1080.0 M1960.0,1080.0 L1968.0,1088.0 M824.0,1096.0 L824.0,1096.0 M824.0,1096.0 L832.0,1088.0 M1296.0,1088.0 L1288.0,1096.0 M1296.0,1088.0 L1296.0,1088.0 M1968.0,1088.0 L1968.0,1088.0 M1968.0,1088.0 L1976.0,1096.0 M808.0,1104.0 L808.0,1104.0 M816.0,1104.0 L808.0,1104.0 M816.0,1104.0 L824.0,1096.0 M1096.0,1096.0 L1088.0,1104.0 M1096.0,1096.0 L1104.0,1096.0 M1104.0,1096.0 L1112.0,1104.0 M1200.0,1096.0 L1192.0,1104.0 M1200.0,1096.0 L1208.0,1096.0 M1208.0,1096.0 L1216.0,1096.0 M1216.0,1096.0 L1224.0,1096.0 M1224.0,1096.0 L1232.0,1096.0 M1232.0,1096.0 L1240.0,1096.0 M1240.0,1096.0 L1248.0,1096.0 M1248.0,1096.0 L1256.0,1096.0 M1256.0,1096.0 L1264.0,1096.0 M1264.0,1096.0 L1272.0,1096.0 M1272.0,1096.0 L1280.0,1096.0 M1280.0,1096.0 L1288.0,1096.0 M1288.0,1096.0 L1288.0,1096.0 M1976.0,1096.0 L1976.0,1104.0 M792.0,1112.0 L792.0,1112.0 M800.0,1112.0 L792.0,1112.0 M800.0,1112.0 L808.0,1104.0 M1088.0,1104.0 L1088.0,1112.0 M1112.0,1104.0 L1112.0,1112.0 M1160.0,1104.0 L1152.0,1112.0 M1160.0,1104.0 L1168.0,1112.0 M1184.0,1104.0 L1176.0,1112.0 M1184.0,1104.0 L1192.0,1104.0 M1192.0,1104.0 L1192.0,1104.0 M1976.0,1104.0 L1976.0,1104.0 M1976.0,1104.0 L1984.0,1112.0 M768.0,1120.0 L768.0,1120.0 M776.0,1120.0 L768.0,1120.0 M784.0,1120.0 L776.0,1120.0 M784.0,1120.0 L792.0,1112.0 M1088.0,1112.0 L1096.0,1120.0 M1104.0,1120.0 L1096.0,1120.0 M1104.0,1120.0 L1112.0,1112.0 M1136.0,1112.0 L1128.0,1120.0 M1136.0,1112.0 L1144.0,1112.0 M1144.0,1112.0 L1152.0,1112.0 M1152.0,1112.0 L1152.0,1112.0 M1168.0,1112.0 L1168.0,1112.0 M1168.0,1112.0 L1176.0,1112.0 M1176.0,1112.0 L1176.0,1112.0 M1984.0,1112.0 L1984.0,1112.0 M1984.0,1112.0 L1992.0,1120.0 M752.0,1128.0 L752.0,1128.0 M760.0,1128.0 L752.0,1128.0 M760.0,1128.0 L768.0,1120.0 M1128.0,1120.0 L1120.0,1128.0 M1128.0,1120.0 L1128.0,1120.0 M1992.0,1120.0 L1992.0,1120.0 M1992.0,1120.0 L2000.0,1120.0 M2000.0,1120.0 L2008.0,1128.0 M736.0,1136.0 L736.0,1136.0 M744.0,1136.0 L736.0,1136.0 M744.0,1136.0 L752.0,1128.0 M1112.0,1128.0 L1104.0,1136.0 M1112.0,1128.0 L1120.0,1128.0 M1120.0,1128.0 L1120.0,1128.0 M2008.0,1128.0 L2008.0,1128.0 M2008.0,1128.0 L2016.0,1128.0 M2016.0,1128.0 L2024.0,1136.0 M720.0,1144.0 L720.0,1144.0 M728.0,1144.0 L720.0,1144.0 M728.0,1144.0 L736.0,1136.0 M1104.0,1136.0 L1096.0,1144.0 M1104.0,1136.0 L1104.0,1136.0 M2024.0,1136.0 L2024.0,1136.0 M2024.0,1136.0 L2032.0,1136.0 M2032.0,1136.0 L2040.0,1136.0 M2040.0,1136.0 L2048.0,1136.0 M2048.0,1136.0 L2056.0,1136.0 M2056.0,1136.0 L2064.0,1136.0 M2064.0,1136.0 L2072.0,1136.0 M2072.0,1136.0 L2080.0,1144.0 M680.0,1152.0 L680.0,1152.0 M688.0,1152.0 L680.0,1152.0 M696.0,1152.0 L688.0,1152.0 M704.0,1152.0 L696.0,1152.0 M712.0,1152.0 L704.0,1152.0 M712.0,1152.0 L720.0,1144.0 M1096.0,1144.0 L1096.0,1152.0 M2080.0,1144.0 L2080.0,1144.0 M2080.0,1144.0 L2088.0,1152.0 M656.0,1160.0 L656.0,1160.0 M664.0,1160.0 L656.0,1160.0 M672.0,1160.0 L664.0,1160.0 M672.0,1160.0 L680.0,1152.0 M1096.0,1152.0 L1088.0,1160.0 M1096.0,1152.0 L1096.0,1152.0 M2088.0,1152.0 L2088.0,1152.0 M2088.0,1152.0 L2096.0,1152.0 M2096.0,1152.0 L2104.0,1160.0 M640.0,1168.0 L640.0,1168.0 M648.0,1168.0 L640.0,1168.0 M648.0,1168.0 L656.0,1160.0 M1088.0,1160.0 L1088.0,1168.0 M2104.0,1160.0 L2104.0,1160.0 M2104.0,1160.0 L2112.0,1160.0 M2112.0,1160.0 L2120.0,1160.0 M2120.0,1160.0 L2128.0,1160.0 M2128.0,1160.0 L2136.0,1160.0 M2136.0,1160.0 L2144.0,1160.0 M2144.0,1160.0 L2152.0,1168.0 M544.0,1176.0 L544.0,1176.0 M552.0,1176.0 L544.0,1176.0 M560.0,1176.0 L552.0,1176.0 M560.0,1176.0 L560.0,1176.0 M592.0,1176.0 L592.0,1176.0 M600.0,1176.0 L592.0,1176.0 M608.0,1176.0 L600.0,1176.0 M616.0,1176.0 L608.0,1176.0 M624.0,1176.0 L616.0,1176.0 M632.0,1176.0 L624.0,1176.0 M632.0,1176.0 L640.0,1168.0 M1088.0,1168.0 L1088.0,1176.0 M2152.0,1168.0 L2152.0,1168.0 M2152.0,1168.0 L2160.0,1176.0 M520.0,1184.0 L520.0,1184.0 M528.0,1184.0 L520.0,1184.0 M536.0,1184.0 L528.0,1184.0 M536.0,1184.0 L544.0,1176.0 M560.0,1176.0 L568.0,1184.0 M576.0,1184.0 L568.0,1184.0 M584.0,1184.0 L576.0,1184.0 M584.0,1184.0 L592.0,1176.0 M1088.0,1176.0 L1088.0,1184.0 M2160.0,1176.0 L2160.0,1176.0 M2160.0,1176.0 L2168.0,1176.0 M2168.0,1176.0 L2176.0,1176.0 M2176.0,1176.0 L2184.0,1176.0 M2184.0,1176.0 L2192.0,1176.0 M512.0,1192.0 L512.0,1192.0 M512.0,1192.0 L520.0,1184.0 M1088.0,1184.0 L1088.0,1192.0 M272.0,1200.0 L272.0,1200.0 M280.0,1200.0 L272.0,1200.0 M288.0,1200.0 L280.0,1200.0 M296.0,1200.0 L288.0,1200.0 M296.0,1200.0 L296.0,1200.0 M512.0,1192.0 L512.0,1192.0 M512.0,1192.0 L520.0,1200.0 M1088.0,1192.0 L1088.0,1200.0 M264.0,1208.0 L264.0,1208.0 M264.0,1208.0 L272.0,1200.0 M296.0,1200.0 L304.0,1208.0 M312.0,1208.0 L304.0,1208.0 M312.0,1208.0 L312.0,1208.0 M520.0,1200.0 L520.0,1200.0 M520.0,1200.0 L528.0,1200.0 M528.0,1200.0 L536.0,1208.0 M576.0,1200.0 L568.0,1208.0 M576.0,1200.0 L584.0,1200.0 M584.0,1200.0 L592.0,1200.0 M592.0,1200.0 L600.0,1200.0 M600.0,1200.0 L608.0,1208.0 M1088.0,1200.0 L1080.0,1208.0 M1088.0,1200.0 L1088.0,1200.0 M240.0,1216.0 L240.0,1216.0 M248.0,1216.0 L240.0,1216.0 M256.0,1216.0 L248.0,1216.0 M256.0,1216.0 L264.0,1208.0 M312.0,1208.0 L320.0,1216.0 M328.0,1216.0 L320.0,1216.0 M336.0,1216.0 L328.0,1216.0 M344.0,1216.0 L336.0,1216.0 M344.0,1216.0 L344.0,1216.0 M536.0,1208.0 L536.0,1216.0 M568.0,1208.0 L568.0,1216.0 M608.0,1208.0 L608.0,1208.0 M608.0,1208.0 L616.0,1208.0 M616.0,1208.0 L624.0,1208.0 M624.0,1208.0 L632.0,1216.0 M1080.0,1208.0 L1072.0,1216.0 M1080.0,1208.0 L1080.0,1208.0 M200.0,1224.0 L200.0,1224.0 M208.0,1224.0 L200.0,1224.0 M216.0,1224.0 L208.0,1224.0 M224.0,1224.0 L216.0,1224.0 M232.0,1224.0 L224.0,1224.0 M232.0,1224.0 L240.0,1216.0 M344.0,1216.0 L352.0,1224.0 M360.0,1224.0 L352.0,1224.0 M368.0,1224.0 L360.0,1224.0 M376.0,1224.0 L368.0,1224.0 M384.0,1224.0 L376.0,1224.0 M392.0,1224.0 L384.0,1224.0 M400.0,1224.0 L392.0,1224.0 M408.0,1224.0 L400.0,1224.0 M416.0,1224.0 L408.0,1224.0 M416.0,1224.0 L416.0,1224.0 M464.0,1224.0 L464.0,1224.0 M472.0,1224.0 L464.0,1224.0 M480.0,1224.0 L472.0,1224.0 M488.0,1224.0 L480.0,1224.0 M496.0,1224.0 L488.0,1224.0 M504.0,1224.0 L496.0,1224.0 M512.0,1224.0 L504.0,1224.0 M520.0,1224.0 L512.0,1224.0 M528.0,1224.0 L520.0,1224.0 M528.0,1224.0 L536.0,1216.0 M568.0,1216.0 L576.0,1224.0 M584.0,1224.0 L576.0,1224.0 M584.0,1224.0 L584.0,1224.0 M632.0,1216.0 L632.0,1224.0 M1064.0,1216.0 L1056.0,1224.0 M1064.0,1216.0 L1072.0,1216.0 M1072.0,1216.0 L1072.0,1216.0 M176.0,1232.0 L176.0,1232.0 M184.0,1232.0 L176.0,1232.0 M192.0,1232.0 L184.0,1232.0 M192.0,1232.0 L200.0,1224.0 M416.0,1224.0 L424.0,1232.0 M432.0,1232.0 L424.0,1232.0 M440.0,1232.0 L432.0,1232.0 M448.0,1232.0 L440.0,1232.0 M456.0,1232.0 L448.0,1232.0 M456.0,1232.0 L464.0,1224.0 M584.0,1224.0 L592.0,1232.0 M600.0,1232.0 L592.0,1232.0 M608.0,1232.0 L600.0,1232.0 M616.0,1232.0 L608.0,1232.0 M624.0,1232.0 L616.0,1232.0 M624.0,1232.0 L632.0,1224.0 M1056.0,1224.0 L1048.0,1232.0 M1056.0,1224.0 L1056.0,1224.0 M168.0,1240.0 L168.0,1240.0 M168.0,1240.0 L176.0,1232.0 M1048.0,1232.0 L1040.0,1240.0 M1048.0,1232.0 L1048.0,1232.0 M152.0,1248.0 L152.0,1248.0 M160.0,1248.0 L152.0,1248.0 M160.0,1248.0 L168.0,1240.0 M1040.0,1240.0 L1040.0,1248.0 M136.0,1256.0 L136.0,1256.0 M144.0,1256.0 L136.0,1256.0 M144.0,1256.0 L152.0,1248.0 M1040.0,1248.0 L1040.0,1256.0 M112.0,1264.0 L112.0,1264.0 M120.0,1264.0 L112.0,1264.0 M128.0,1264.0 L120.0,1264.0 M128.0,1264.0 L136.0,1256.0 M1040.0,1256.0 L1040.0,1264.0 M80.0,1272.0 L80.0,1272.0 M88.0,1272.0 L80.0,1272.0 M96.0,1272.0 L88.0,1272.0 M104.0,1272.0 L96.0,1272.0 M104.0,1272.0 L112.0,1264.0 M1040.0,1264.0 L1040.0,1272.0 M64.0,1280.0 L64.0,1280.0 M72.0,1280.0 L64.0,1280.0 M72.0,1280.0 L80.0,1272.0 M744.0,1272.0 L736.0,1280.0 M744.0,1272.0 L752.0,1272.0 M752.0,1272.0 L760.0,1272.0 M760.0,1272.0 L768.0,1272.0 M768.0,1272.0 L776.0,1272.0 M776.0,1272.0 L784.0,1280.0 M1040.0,1272.0 L1040.0,1280.0 M48.0,1288.0 L48.0,1288.0 M56.0,1288.0 L48.0,1288.0 M56.0,1288.0 L64.0,1280.0 M728.0,1280.0 L720.0,1288.0 M728.0,1280.0 L736.0,1280.0 M736.0,1280.0 L736.0,1280.0 M784.0,1280.0 L784.0,1280.0 M784.0,1280.0 L792.0,1288.0 M1040.0,1280.0 L1040.0,1288.0 M32.0,1296.0 L32.0,1296.0 M40.0,1296.0 L32.0,1296.0 M40.0,1296.0 L48.0,1288.0 M712.0,1288.0 L704.0,1296.0 M712.0,1288.0 L720.0,1288.0 M720.0,1288.0 L720.0,1288.0 M792.0,1288.0 L792.0,1288.0 M792.0,1288.0 L800.0,1288.0 M800.0,1288.0 L808.0,1288.0 M808.0,1288.0 L816.0,1288.0 M816.0,1288.0 L824.0,1288.0 M824.0,1288.0 L832.0,1288.0 M832.0,1288.0 L840.0,1288.0 M840.0,1288.0 L848.0,1288.0 M848.0,1288.0 L856.0,1288.0 M856.0,1288.0 L864.0,1288.0 M864.0,1288.0 L872.0,1288.0 M872.0,1288.0 L880.0,1288.0 M880.0,1288.0 L888.0,1296.0 M1040.0,1288.0 L1040.0,1296.0 M8.0,1304.0 L8.0,1304.0 M16.0,1304.0 L8.0,1304.0 M24.0,1304.0 L16.0,1304.0 M24.0,1304.0 L32.0,1296.0 M704.0,1296.0 L704.0,1304.0 M888.0,1296.0 L888.0,1296.0 M888.0,1296.0 L896.0,1296.0 M896.0,1296.0 L904.0,1296.0 M904.0,1296.0 L912.0,1296.0 M912.0,1296.0 L920.0,1296.0 M920.0,1296.0 L928.0,1304.0 M952.0,1296.0 L944.0,1304.0 M952.0,1296.0 L960.0,1296.0 M960.0,1296.0 L968.0,1296.0 M968.0,1296.0 L976.0,1304.0 M1040.0,1296.0 L1040.0,1304.0 M0.0,1312.0 L8.0,1304.0 M704.0,1304.0 L712.0,1312.0 M712.0,1312.0 L712.0,1312.0 M928.0,1304.0 L928.0,1304.0 M928.0,1304.0 L936.0,1304.0 M936.0,1304.0 L944.0,1304.0 M944.0,1304.0 L944.0,1304.0 M976.0,1304.0 L976.0,1304.0 M976.0,1304.0 L984.0,1304.0 M984.0,1304.0 L992.0,1304.0 M992.0,1304.0 L1000.0,1304.0 M1000.0,1304.0 L1008.0,1304.0 M1008.0,1304.0 L1016.0,1304.0 M1016.0,1304.0 L1024.0,1304.0 M1024.0,1304.0 L1032.0,1304.0 M1032.0,1304.0 L1040.0,1304.0 M1040.0,1304.0 L1040.0,1304.0 M712.0,1312.0 L720.0,1320.0 M720.0,1320.0 L720.0,1320.0 M720.0,1320.0 L720.0,1328.0 M720.0,1328.0 L720.0,1336.0 M720.0,1336.0 L728.0,1344.0 M728.0,1344.0 L728.0,1344.0 M728.0,1344.0 L736.0,1352.0 M744.0,1352.0 L736.0,1352.0 M752.0,1352.0 L744.0,1352.0 M752.0,1352.0 L752.0,1352.0 M752.0,1352.0 L752.0,1360.0 M752.0,1360.0 L744.0,1368.0 M752.0,1360.0 L752.0,1360.0 M720.0,1368.0 L712.0,1376.0 M720.0,1368.0 L728.0,1368.0 M728.0,1368.0 L736.0,1368.0 M736.0,1368.0 L744.0,1368.0 M744.0,1368.0 L744.0,1368.0 M712.0,1376.0 L712.0,1384.0 M712.0,1384.0 L712.0,1392.0 M712.0,1392.0 L712.0,1400.0 M712.0,1400.0 L720.0,1408.0 M720.0,1408.0 L720.0,1408.0 M720.0,1408.0 L728.0,1416.0 M736.0,1416.0 L728.0,1416.0 M736.0,1416.0 L736.0,1416.0 M736.0,1416.0 L744.0,1424.0 M752.0,1424.0 L744.0,1424.0 M752.0,1424.0 L752.0,1424.0 M792.0,1424.0 L792.0,1424.0 M800.0,1424.0 L792.0,1424.0 M808.0,1424.0 L800.0,1424.0 M808.0,1424.0 L808.0,1424.0 M416.0,1424.0 L408.0,1432.0 M416.0,1424.0 L424.0,1424.0 M424.0,1424.0 L432.0,1432.0 M624.0,1424.0 L616.0,1432.0 M624.0,1424.0 L632.0,1424.0 M632.0,1424.0 L640.0,1424.0 M640.0,1424.0 L648.0,1432.0 M752.0,1424.0 L760.0,1432.0 M760.0,1432.0 L760.0,1432.0 M784.0,1432.0 L784.0,1432.0 M784.0,1432.0 L792.0,1424.0 M808.0,1424.0 L808.0,1432.0 M384.0,1432.0 L376.0,1440.0 M384.0,1432.0 L392.0,1432.0 M392.0,1432.0 L400.0,1432.0 M400.0,1432.0 L408.0,1432.0 M408.0,1432.0 L408.0,1432.0 M432.0,1432.0 L432.0,1440.0 M616.0,1432.0 L608.0,1440.0 M616.0,1432.0 L616.0,1432.0 M648.0,1432.0 L648.0,1432.0 M648.0,1432.0 L656.0,1440.0 M760.0,1432.0 L768.0,1440.0 M768.0,1440.0 L768.0,1440.0 M784.0,1432.0 L784.0,1440.0 M808.0,1432.0 L816.0,1440.0 M816.0,1440.0 L816.0,1440.0 M376.0,1440.0 L384.0,1448.0 M384.0,1448.0 L384.0,1448.0 M424.0,1448.0 L424.0,1448.0 M424.0,1448.0 L432.0,1440.0 M600.0,1440.0 L592.0,1448.0 M600.0,1440.0 L608.0,1440.0 M608.0,1440.0 L608.0,1440.0 M656.0,1440.0 L656.0,1440.0 M656.0,1440.0 L664.0,1448.0 M680.0,1440.0 L672.0,1448.0 M680.0,1440.0 L688.0,1440.0 M688.0,1440.0 L696.0,1440.0 M696.0,1440.0 L704.0,1448.0 M768.0,1440.0 L768.0,1448.0 M784.0,1440.0 L784.0,1440.0 M784.0,1440.0 L792.0,1440.0 M792.0,1440.0 L800.0,1440.0 M800.0,1440.0 L808.0,1448.0 M816.0,1440.0 L824.0,1448.0 M832.0,1448.0 L824.0,1448.0 M832.0,1448.0 L832.0,1448.0 M384.0,1448.0 L392.0,1456.0 M400.0,1456.0 L392.0,1456.0 M408.0,1456.0 L400.0,1456.0 M408.0,1456.0 L408.0,1456.0 M424.0,1448.0 L424.0,1448.0 M424.0,1448.0 L432.0,1448.0 M432.0,1448.0 L440.0,1456.0 M584.0,1448.0 L576.0,1456.0 M584.0,1448.0 L592.0,1448.0 M592.0,1448.0 L592.0,1448.0 M664.0,1448.0 L664.0,1448.0 M664.0,1448.0 L672.0,1448.0 M672.0,1448.0 L672.0,1448.0 M704.0,1448.0 L704.0,1448.0 M704.0,1448.0 L712.0,1456.0 M768.0,1448.0 L776.0,1456.0 M776.0,1456.0 L776.0,1456.0 M808.0,1448.0 L808.0,1448.0 M808.0,1448.0 L816.0,1448.0 M816.0,1448.0 L824.0,1456.0 M832.0,1448.0 L840.0,1456.0 M848.0,1456.0 L840.0,1456.0 M848.0,1456.0 L848.0,1456.0 M408.0,1456.0 L408.0,1464.0 M440.0,1456.0 L440.0,1456.0 M440.0,1456.0 L448.0,1464.0 M568.0,1456.0 L560.0,1464.0 M568.0,1456.0 L576.0,1456.0 M576.0,1456.0 L576.0,1456.0 M712.0,1456.0 L712.0,1456.0 M712.0,1456.0 L720.0,1464.0 M776.0,1456.0 L776.0,1464.0 M824.0,1456.0 L824.0,1456.0 M824.0,1456.0 L832.0,1464.0 M848.0,1456.0 L840.0,1464.0 M848.0,1456.0 L848.0,1456.0 M352.0,1464.0 L344.0,1472.0 M352.0,1464.0 L360.0,1472.0 M408.0,1464.0 L408.0,1472.0 M448.0,1464.0 L448.0,1472.0 M560.0,1464.0 L552.0,1472.0 M560.0,1464.0 L560.0,1464.0 M720.0,1464.0 L720.0,1464.0 M720.0,1464.0 L728.0,1472.0 M776.0,1464.0 L776.0,1472.0 M832.0,1464.0 L832.0,1464.0 M832.0,1464.0 L840.0,1464.0 M840.0,1464.0 L840.0,1464.0 M344.0,1472.0 L336.0,1480.0 M344.0,1472.0 L344.0,1472.0 M360.0,1472.0 L360.0,1472.0 M360.0,1472.0 L368.0,1480.0 M384.0,1472.0 L376.0,1480.0 M384.0,1472.0 L392.0,1480.0 M400.0,1472.0 L392.0,1480.0 M400.0,1472.0 L408.0,1472.0 M408.0,1472.0 L408.0,1472.0 M448.0,1472.0 L448.0,1472.0 M448.0,1472.0 L456.0,1480.0 M528.0,1472.0 L520.0,1480.0 M528.0,1472.0 L536.0,1472.0 M536.0,1472.0 L544.0,1472.0 M544.0,1472.0 L552.0,1472.0 M552.0,1472.0 L552.0,1472.0 M728.0,1472.0 L728.0,1472.0 M728.0,1472.0 L736.0,1472.0 M736.0,1472.0 L744.0,1472.0 M744.0,1472.0 L752.0,1480.0 M776.0,1472.0 L768.0,1480.0 M776.0,1472.0 L776.0,1472.0 M336.0,1480.0 L328.0,1488.0 M336.0,1480.0 L336.0,1480.0 M368.0,1480.0 L368.0,1480.0 M368.0,1480.0 L376.0,1480.0 M376.0,1480.0 L376.0,1480.0 M392.0,1480.0 L392.0,1480.0 M392.0,1480.0 L392.0,1480.0 M456.0,1480.0 L456.0,1480.0 M456.0,1480.0 L464.0,1480.0 M464.0,1480.0 L472.0,1480.0 M472.0,1480.0 L480.0,1480.0 M480.0,1480.0 L488.0,1480.0 M488.0,1480.0 L496.0,1480.0 M496.0,1480.0 L504.0,1480.0 M504.0,1480.0 L512.0,1480.0 M512.0,1480.0 L520.0,1480.0 M520.0,1480.0 L520.0,1480.0 M752.0,1480.0 L752.0,1480.0 M752.0,1480.0 L760.0,1480.0 M760.0,1480.0 L768.0,1480.0 M768.0,1480.0 L768.0,1480.0 M320.0,1488.0 L312.0,1496.0 M320.0,1488.0 L328.0,1488.0 M328.0,1488.0 L328.0,1488.0 M312.0,1496.0 L304.0,1504.0 M312.0,1496.0 L312.0,1496.0 M304.0,1504.0 L304.0,1512.0 M304.0,1512.0 L312.0,1520.0 M320.0,1520.0 L312.0,1520.0 M320.0,1520.0 L320.0,1520.0 M320.0,1520.0 L320.0,1528.0 M320.0,1528.0 L328.0,1536.0 M328.0,1536.0 L328.0,1536.0 M328.0,1536.0 L328.0,1544.0 M328.0,1544.0 L336.0,1552.0 M336.0,1552.0 L336.0,1552.0 M336.0,1552.0 L336.0,1560.0 M336.0,1560.0 L336.0,1568.0 M336.0,1568.0 L328.0,1576.0 M336.0,1568.0 L336.0,1568.0 M328.0,1576.0 L328.0,1584.0 M328.0,1584.0 L320.0,1592.0 M328.0,1584.0 L328.0,1584.0 M320.0,1592.0 L320.0,1600.0 M320.0,1600.0 L320.0,1608.0 M320.0,1608.0 L312.0,1616.0 M320.0,1608.0 L320.0,1608.0 M696.0,1616.0 L696.0,1616.0 M696.0,1616.0 L696.0,1616.0 M312.0,1616.0 L312.0,1624.0 M696.0,1616.0 L696.0,1624.0 M696.0,1616.0 L696.0,1624.0 M312.0,1624.0 L304.0,1632.0 M312.0,1624.0 L312.0,1624.0 M696.0,1624.0 L696.0,1632.0 M696.0,1624.0 L696.0,1632.0" fill="none" stroke="#172b39" stroke-opacity="0.8" stroke-width="1.05" stroke-linejoin="round" stroke-linecap="round" data-aifsm-role="isobars" data-aifsm-interval="4"/>
<path d="" fill="none" stroke="none" data-aifsm-role="isobar-labels" data-aifsm-labels="40.0,364.0,1000;104.0,4.0,1000;148.0,444.0,1004;368.0,156.0,1004;476.0,404.0,1008;172.0,604.0,1008;668.0,588.0,1012;328.0,712.0,1012;904.0,584.0,1016;1556.0,1152.0,1016;1568.0,968.0,1020;1128.0,672.0,1020"/>
<path d="M87.3,62.2 L80.7,49.8 M84.7,52.4 L80.7,49.8 L80.6,54.6 M303.2,39.9 L300.8,26.1 M303.8,29.8 L300.8,26.1 L299.2,30.6 M371.6,39.5 L366.4,26.5 M370.1,29.5 L366.4,26.5 L365.8,31.3 M486.2,82.7 L475.8,73.3 M480.5,74.4 L475.8,73.3 L477.4,77.8 M650.8,57.8 L637.2,54.2 M641.9,53.1 L637.2,54.2 L640.7,57.5 M758.1,62.7 L753.9,49.3 M757.4,52.6 L753.9,49.3 L753.0,54.0 M953.6,62.8 L950.4,49.2 M953.6,52.7 L950.4,49.2 L949.1,53.8 M1203.4,63.0 L1204.6,49.0 M1206.6,53.4 L1204.6,49.0 L1202.0,53.0 M1315.0,62.9 L1317.0,49.1 M1318.7,53.6 L1317.0,49.1 L1314.1,52.9 M1376.0,84.9 L1378.0,71.1 M1379.7,75.6 L1378.0,71.1 L1375.1,74.9 M1761.7,49.4 L1766.3,62.6 M1762.7,59.4 L1766.3,62.6 L1767.1,57.9 M1872.8,49.8 L1879.2,62.2 M1875.2,59.5 L1879.2,62.2 L1879.3,57.4 M1956.6,77.9 L1963.4,90.1 M1959.3,87.6 L1963.4,90.1 L1963.4,85.3 M2096.7,49.8 L2103.3,62.2 M2099.3,59.6 L2103.3,62.2 L2103.4,57.4 M2157.4,72.0 L2164.6,84.0 M2160.5,81.6 L2164.6,84.0 L2164.4,79.2 M58.4,202.6 L53.6,189.4 M57.2,192.6 L53.6,189.4 L52.9,194.2 M196.7,175.0 L195.3,161.0 M198.0,165.0 L195.3,161.0 L193.4,165.4 M257.6,152.0 L256.4,138.0 M259.1,142.0 L256.4,138.0 L254.5,142.4 M484.3,196.2 L477.7,183.8 M481.7,186.4 L477.7,183.8 L477.6,188.6 M646.1,174.7 L641.9,161.3 M645.4,164.6 L641.9,161.3 L641.0,166.0 M729.9,174.7 L726.1,161.3 M729.5,164.7 L726.1,161.3 L725.0,165.9 M930.8,196.8 L927.2,183.2 M930.5,186.7 L927.2,183.2 L926.0,187.9 M1092.4,175.0 L1091.6,161.0 M1094.2,165.1 L1091.6,161.0 L1089.6,165.3 M1203.0,174.9 L1205.0,161.1 M1206.7,165.6 L1205.0,161.1 L1202.1,164.9 M1313.1,174.4 L1318.9,161.6 M1319.3,166.4 L1318.9,161.6 L1315.0,164.5 M1871.6,162.5 L1880.4,173.5 M1876.0,171.6 L1880.4,173.5 L1879.6,168.7 M1977.8,184.4 L1986.2,195.6 M1981.8,193.6 L1986.2,195.6 L1985.5,190.8 M2179.6,134.6 L2188.4,145.4 M2184.0,143.6 L2188.4,145.4 L2187.6,140.7 M34.8,308.8 L31.2,295.2 M34.5,298.7 L31.2,295.2 L30.0,299.9 M191.0,263.9 L189.0,250.1 M191.9,253.9 L189.0,250.1 L187.3,254.6 M258.1,263.9 L255.9,250.1 M258.8,253.9 L255.9,250.1 L254.3,254.6 M420.6,287.0 L419.4,273.0 M422.1,277.0 L419.4,273.0 L417.5,277.4 M482.2,263.9 L479.8,250.1 M482.8,253.8 L479.8,250.1 L478.2,254.6 M648.4,285.5 L639.6,274.5 M644.1,276.4 L639.6,274.5 L640.4,279.2 M729.3,258.9 L726.7,245.1 M729.7,248.8 L726.7,245.1 L725.2,249.7 M869.9,286.7 L866.1,273.3 M869.5,276.7 L866.1,273.3 L865.0,277.9 M975.5,263.8 L972.5,250.2 M975.7,253.8 L972.5,250.2 L971.1,254.8 M1092.3,287.0 L1091.7,273.0 M1094.2,277.1 L1091.7,273.0 L1089.6,277.3 M1175.3,287.0 L1176.7,273.0 M1178.6,277.5 L1176.7,273.0 L1174.0,277.0 M1306.6,263.1 L1313.4,250.9 M1313.4,255.7 L1313.4,250.9 L1309.3,253.4 M1531.2,308.4 L1536.8,295.6 M1537.2,300.4 L1536.8,295.6 L1533.0,298.5 M1645.9,276.5 L1658.1,283.5 M1653.3,283.4 L1658.1,283.5 L1655.6,279.4 M1707.4,297.7 L1718.6,306.3 M1713.8,305.5 L1718.6,306.3 L1716.6,301.9 M1871.1,275.0 L1880.9,285.0 M1876.3,283.6 L1880.9,285.0 L1879.6,280.4 M1976.8,297.3 L1987.2,306.7 M1982.5,305.6 L1987.2,306.7 L1985.6,302.2 M2066.0,304.4 L2078.0,311.6 M2073.2,311.4 L2078.0,311.6 L2075.6,307.4 M84.4,399.0 L83.6,385.0 M86.1,389.1 L83.6,385.0 L81.5,389.3 M145.8,376.0 L144.2,362.0 M147.0,366.0 L144.2,362.0 L142.4,366.5 M307.1,398.9 L308.9,385.1 M310.7,389.5 L308.9,385.1 L306.1,388.9 M390.4,370.8 L393.6,357.2 M394.9,361.8 L393.6,357.2 L390.4,360.7 M616.2,427.0 L615.8,413.0 M618.2,417.1 L615.8,413.0 L613.6,417.3 M707.8,420.4 L702.2,407.6 M706.0,410.5 L702.2,407.6 L701.8,412.3 M870.2,398.6 L865.8,385.4 M869.3,388.6 L865.8,385.4 L864.9,390.1 M954.0,426.7 L950.0,413.3 M953.4,416.7 L950.0,413.3 L949.0,418.0 M1092.6,399.0 L1091.4,385.0 M1094.1,389.0 L1091.4,385.0 L1089.5,389.4 M1204.1,399.0 L1203.9,385.0 M1206.3,389.2 L1203.9,385.0 L1201.6,389.2 M1422.9,396.8 L1433.1,387.2 M1431.6,391.7 L1433.1,387.2 L1428.4,388.4 M1535.2,397.1 L1544.8,386.9 M1543.6,391.5 L1544.8,386.9 L1540.2,388.4 M1617.4,422.3 L1630.6,417.7 M1627.4,421.2 L1630.6,417.7 L1625.9,416.9 M1758.2,388.1 L1769.8,395.9 M1765.0,395.5 L1769.8,395.9 L1767.6,391.7 M1819.1,410.2 L1830.9,417.8 M1826.1,417.5 L1830.9,417.8 L1828.6,413.6 M1981.5,389.4 L1994.5,394.6 M1989.7,395.2 L1994.5,394.6 L1991.5,390.9 M2042.4,366.8 L2055.6,371.2 M2050.9,372.1 L2055.6,371.2 L2052.4,367.7 M2177.0,419.2 L2191.0,420.8 M2186.5,422.6 L2191.0,420.8 L2187.0,418.0 M55.3,483.0 L56.7,469.0 M58.6,473.4 L56.7,469.0 L54.0,473.0 M194.7,510.9 L197.3,497.1 M198.8,501.7 L197.3,497.1 L194.2,500.8 M255.3,487.8 L258.7,474.2 M259.9,478.8 L258.7,474.2 L255.4,477.7 M416.0,509.7 L424.0,498.3 M423.5,503.0 L424.0,498.3 L419.7,500.4 M528.6,510.1 L535.4,497.9 M535.4,502.7 L535.4,497.9 L531.3,500.4 M643.7,511.0 L644.3,497.0 M646.4,501.3 L644.3,497.0 L641.8,501.1 M863.8,487.8 L860.2,474.2 M863.5,477.7 L860.2,474.2 L859.0,478.9 M931.0,487.7 L927.0,474.3 M930.4,477.7 L927.0,474.3 L926.0,479.0 M1093.6,510.8 L1090.4,497.2 M1093.6,500.8 L1090.4,497.2 L1089.1,501.8 M1177.4,510.9 L1174.6,497.1 M1177.7,500.8 L1174.6,497.1 L1173.2,501.7 M1315.9,511.0 L1316.1,497.0 M1318.3,501.2 L1316.1,497.0 L1313.7,501.2 M1424.6,510.1 L1431.4,497.9 M1431.4,502.6 L1431.4,497.9 L1427.3,500.4 M1533.4,506.3 L1546.6,501.7 M1543.4,505.3 L1546.6,501.7 L1541.9,500.9 M1645.0,503.3 L1659.0,504.7 M1654.6,506.6 L1659.0,504.7 L1655.0,502.0 M1757.9,500.6 L1770.1,507.4 M1765.3,507.4 L1770.1,507.4 L1767.6,503.3 M1818.7,523.0 L1831.3,529.0 M1826.5,529.3 L1831.3,529.0 L1828.5,525.1 M1975.5,523.5 L1988.5,528.5 M1983.8,529.2 L1988.5,528.5 L1985.4,524.8 M2177.2,502.4 L2190.8,505.6 M2186.2,506.9 L2190.8,505.6 L2187.2,502.4 M81.4,622.5 L86.6,609.5 M87.2,614.3 L86.6,609.5 L82.9,612.5 M143.1,599.7 L146.9,586.3 M148.0,590.9 L146.9,586.3 L143.5,589.7 M298.4,644.0 L305.6,632.0 M305.4,636.8 L305.6,632.0 L301.5,634.4 M365.1,598.8 L372.9,587.2 M372.5,592.0 L372.9,587.2 L368.7,589.4 M521.1,598.0 L530.9,588.0 M529.6,592.6 L530.9,588.0 L526.3,589.4 M755.5,623.0 L756.5,609.0 M758.5,613.4 L756.5,609.0 L753.9,613.0 M816.7,645.0 L817.3,631.0 M819.4,635.3 L817.3,631.0 L814.8,635.1 M1065.4,622.9 L1062.6,609.1 M1065.7,612.8 L1062.6,609.1 L1061.2,613.7 M1311.9,621.7 L1320.1,610.3 M1319.5,615.1 L1320.1,610.3 L1315.7,612.4 M1426.3,622.8 L1429.7,609.2 M1430.9,613.8 L1429.7,609.2 L1426.4,612.7 M1529.5,598.4 L1538.5,587.6 M1537.6,592.3 L1538.5,587.6 L1534.0,589.4 M1645.0,616.7 L1659.0,615.3 M1655.0,618.0 L1659.0,615.3 L1654.6,613.4 M1751.3,591.0 L1764.7,595.0 M1760.0,596.0 L1764.7,595.0 L1761.3,591.6 M1869.9,612.5 L1882.1,619.5 M1877.3,619.4 L1882.1,619.5 L1879.6,615.4 M1953.9,640.5 L1966.1,647.5 M1961.3,647.4 L1966.1,647.5 L1963.6,643.4 M2065.2,642.4 L2078.8,645.6 M2074.2,646.9 L2078.8,645.6 L2075.3,642.4 M74.3,756.0 L81.7,744.0 M81.4,748.8 L81.7,744.0 L77.5,746.4 M192.5,734.1 L199.5,721.9 M199.4,726.7 L199.5,721.9 L195.4,724.4 M276.1,705.8 L283.9,694.2 M283.5,698.9 L283.9,694.2 L279.6,696.4 M526.3,732.1 L537.7,723.9 M535.6,728.2 L537.7,723.9 L532.9,724.5 M638.2,732.0 L649.8,724.0 M647.6,728.3 L649.8,724.0 L645.0,724.5 M754.9,734.9 L757.1,721.1 M758.7,725.6 L757.1,721.1 L754.2,724.9 M862.8,712.0 L861.2,698.0 M864.0,702.0 L861.2,698.0 L859.4,702.5 M981.9,734.7 L978.1,721.3 M981.4,724.7 L978.1,721.3 L977.0,725.9 M1087.1,711.9 L1084.9,698.1 M1087.8,701.9 L1084.9,698.1 L1083.3,702.6 M1205.0,734.9 L1203.0,721.1 M1205.9,724.9 L1203.0,721.1 L1201.3,725.5 M1315.4,735.0 L1316.6,721.0 M1318.5,725.4 L1316.6,721.0 L1313.9,725.0 M1645.2,726.5 L1658.8,729.5 M1654.2,730.9 L1658.8,729.5 L1655.2,726.4 M1757.3,726.1 L1770.7,729.9 M1766.1,731.0 L1770.7,729.9 L1767.3,726.6 M1869.5,725.4 L1882.5,730.6 M1877.7,731.2 L1882.5,730.6 L1879.5,726.9 M1982.2,724.1 L1993.8,731.9 M1989.0,731.5 L1993.8,731.9 L1991.6,727.7 M2094.7,723.4 L2105.3,732.6 M2100.6,731.6 L2105.3,732.6 L2103.6,728.1 M2155.9,745.2 L2166.1,754.8 M2161.5,753.6 L2166.1,754.8 L2164.6,750.2 M74.0,822.7 L82.0,811.3 M81.5,816.1 L82.0,811.3 L77.7,813.4 M302.7,844.6 L313.3,835.4 M311.6,839.9 L313.3,835.4 L308.6,836.4 M414.1,843.7 L425.9,836.3 M423.6,840.5 L425.9,836.3 L421.2,836.6 M520.4,821.2 L531.6,812.8 M529.6,817.2 L531.6,812.8 L526.8,813.5 M610.2,816.0 L621.8,808.0 M619.6,812.3 L621.8,808.0 L617.0,808.5 M725.7,846.6 L730.3,833.4 M731.1,838.1 L730.3,833.4 L726.7,836.6 M869.6,846.8 L866.4,833.2 M869.6,836.7 L866.4,833.2 L865.1,837.8 M930.1,823.9 L927.9,810.1 M930.9,813.9 L927.9,810.1 L926.3,814.6 M1042.3,823.9 L1039.7,810.1 M1042.8,813.8 L1039.7,810.1 L1038.2,814.7 M1205.9,846.7 L1202.1,833.3 M1205.5,836.7 L1202.1,833.3 L1201.0,837.9 M1758.5,835.7 L1769.5,844.3 M1764.8,843.5 L1769.5,844.3 L1767.6,839.9 M1869.7,836.9 L1882.3,843.1 M1877.5,843.3 L1882.3,843.1 L1879.5,839.2 M1976.1,858.3 L1987.9,865.7 M1983.2,865.4 L1987.9,865.7 L1985.6,861.5 M2095.6,834.6 L2104.4,845.4 M2100.0,843.6 L2104.4,845.4 L2103.6,840.7 M79.3,957.2 L88.7,946.8 M87.6,951.5 L88.7,946.8 L84.1,948.4 M162.9,928.8 L173.1,919.2 M171.6,923.8 L173.1,919.2 L168.5,920.4 M296.0,932.6 L308.0,925.4 M305.6,929.5 L308.0,925.4 L303.2,925.6 M385.6,926.8 L398.4,921.2 M395.5,925.0 L398.4,921.2 L393.7,920.8 M752.0,957.7 L760.0,946.3 M759.5,951.0 L760.0,946.3 L755.7,948.4 M838.0,958.7 L842.0,945.3 M843.0,950.0 L842.0,945.3 L838.6,948.7 M978.1,958.7 L981.9,945.3 M983.0,949.9 L981.9,945.3 L978.6,948.7 M1428.4,926.1 L1415.6,931.9 M1418.5,928.0 L1415.6,931.9 L1420.4,932.3 M1640.8,969.3 L1651.2,978.7 M1646.5,977.6 L1651.2,978.7 L1649.6,974.2 M1845.9,917.3 L1850.1,930.7 M1846.7,927.4 L1850.1,930.7 L1851.1,926.0 M2181.6,973.4 L2186.4,986.6 M2182.8,983.4 L2186.4,986.6 L2187.1,981.8 M184.2,1090.0 L195.8,1082.0 M193.6,1086.3 L195.8,1082.0 L191.0,1082.5 M301.6,1066.9 L314.4,1061.1 M311.5,1064.9 L314.4,1061.1 L309.6,1060.7 M407.4,1088.5 L420.6,1083.5 M417.4,1087.2 L420.6,1083.5 L415.8,1082.9 M519.3,1088.2 L532.7,1083.8 M529.4,1087.3 L532.7,1083.8 L528.0,1082.9 M637.7,1067.1 L650.3,1060.9 M647.5,1064.8 L650.3,1060.9 L645.5,1060.7 M722.5,1040.3 L733.5,1031.7 M731.6,1036.1 L733.5,1031.7 L728.8,1032.5 M837.2,1042.4 L842.8,1029.6 M843.2,1034.4 L842.8,1029.6 L839.0,1032.5 M1658.3,1067.0 L1645.7,1061.0 M1650.5,1060.7 L1645.7,1061.0 L1648.5,1064.9 M1770.5,1061.4 L1757.5,1066.6 M1760.5,1062.9 L1757.5,1066.6 L1762.3,1067.2 M1854.5,1061.3 L1841.5,1066.7 M1844.5,1062.9 L1841.5,1066.7 L1846.3,1067.2 M1994.8,1062.2 L1981.2,1065.8 M1984.7,1062.5 L1981.2,1065.8 L1985.9,1067.0 M2077.7,1032.0 L2066.3,1040.0 M2068.4,1035.7 L2066.3,1040.0 L2071.0,1039.5 M2187.1,1085.7 L2180.9,1098.3 M2180.7,1093.5 L2180.9,1098.3 L2184.9,1095.5 M78.5,1180.3 L89.5,1171.7 M87.6,1176.1 L89.5,1171.7 L84.8,1172.5 M162.6,1152.4 L173.4,1143.6 M171.6,1148.0 L173.4,1143.6 L168.7,1144.4 M302.4,1180.3 L313.6,1171.7 M311.6,1176.1 L313.6,1171.7 L308.8,1172.5 M413.4,1178.3 L426.6,1173.7 M423.4,1177.3 L426.6,1173.7 L421.9,1172.9 M519.5,1155.7 L532.5,1150.3 M529.5,1154.1 L532.5,1150.3 L527.7,1149.8 M609.9,1151.5 L622.1,1144.5 M619.6,1148.6 L622.1,1144.5 L617.3,1144.6 M1200.6,1146.5 L1195.4,1159.5 M1194.8,1154.8 L1195.4,1159.5 L1199.1,1156.4 M1427.2,1148.3 L1416.8,1157.7 M1418.4,1153.2 L1416.8,1157.7 L1421.5,1156.6 M1766.9,1169.6 L1761.1,1182.4 M1760.7,1177.6 L1761.1,1182.4 L1764.9,1179.5 M1853.8,1144.1 L1842.2,1151.9 M1844.4,1147.7 L1842.2,1151.9 L1847.0,1151.5 M2188.8,1198.9 L2179.2,1209.1 M2180.4,1204.4 L2179.2,1209.1 L2183.7,1207.6 M27.5,1269.3 L38.5,1260.7 M36.6,1265.1 L38.5,1260.7 L33.8,1261.5 M745.6,1304.6 L754.4,1315.4 M750.0,1313.6 L754.4,1315.4 L753.6,1310.7 M833.1,1317.2 L846.9,1314.8 M843.1,1317.8 L846.9,1314.8 L842.4,1313.3 M1089.2,1281.6 L1094.8,1294.4 M1091.0,1291.5 L1094.8,1294.4 L1095.2,1289.7 M1173.1,1309.6 L1178.9,1322.4 M1175.0,1319.5 L1178.9,1322.4 L1179.3,1317.6 M1434.1,1284.5 L1421.9,1291.5 M1424.4,1287.4 L1421.9,1291.5 L1426.7,1291.4 M1537.1,1281.7 L1542.9,1294.3 M1539.1,1291.5 L1542.9,1294.3 L1543.3,1289.6 M1649.0,1281.7 L1655.0,1294.3 M1651.1,1291.5 L1655.0,1294.3 L1655.3,1289.6 M1709.2,1304.1 L1716.8,1315.9 M1712.6,1313.6 L1716.8,1315.9 L1716.5,1311.1 M1993.0,1283.1 L1983.0,1292.9 M1984.4,1288.3 L1983.0,1292.9 L1987.6,1291.6 M2099.9,1306.3 L2088.1,1313.7 M2090.4,1309.5 L2088.1,1313.7 L2092.8,1313.4 M2190.4,1318.7 L2177.6,1313.3 M2182.3,1312.8 L2177.6,1313.3 L2180.5,1317.0 M77.3,1402.0 L90.7,1398.0 M87.3,1401.4 L90.7,1398.0 L86.0,1397.0 M751.1,1395.1 L760.9,1404.9 M756.3,1403.6 L760.9,1404.9 L759.6,1400.3 M863.1,1395.1 L872.9,1404.9 M868.3,1403.6 L872.9,1404.9 L871.6,1400.3 M1093.0,1422.1 L1079.0,1421.9 M1083.2,1419.6 L1079.0,1421.9 L1083.2,1424.3 M1201.5,1393.4 L1206.5,1406.6 M1202.8,1403.4 L1206.5,1406.6 L1207.1,1401.8 M1284.0,1422.2 L1292.0,1433.8 M1287.7,1431.6 L1292.0,1433.8 L1291.5,1429.0 M1417.0,1372.1 L1427.0,1381.9 M1422.4,1380.6 L1427.0,1381.9 L1425.6,1377.3 M1533.0,1399.5 L1547.0,1400.5 M1542.6,1402.5 L1547.0,1400.5 L1543.0,1397.9 M1648.3,1394.1 L1655.7,1405.9 M1651.5,1403.6 L1655.7,1405.9 L1655.4,1401.1 M1762.1,1393.3 L1765.9,1406.7 M1762.6,1403.3 L1765.9,1406.7 L1767.0,1402.0 M1882.4,1402.8 L1869.6,1397.2 M1874.3,1396.8 L1869.6,1397.2 L1872.5,1401.0 M2100.2,1393.0 L2099.8,1407.0 M2097.6,1402.7 L2099.8,1407.0 L2102.2,1402.9 M2190.7,1373.9 L2177.3,1370.1 M2181.9,1369.0 L2177.3,1370.1 L2180.7,1373.5 M78.2,1508.2 L89.8,1515.8 M85.1,1515.5 L89.8,1515.8 L87.6,1511.6 M194.3,1505.2 L197.7,1518.8 M194.5,1515.3 L197.7,1518.8 L198.9,1514.1 M982.2,1505.4 L977.8,1518.6 M976.9,1513.9 L977.8,1518.6 L981.3,1515.4 M1205.6,1505.2 L1202.4,1518.8 M1201.1,1514.2 L1202.4,1518.8 L1205.6,1515.2 M1264.0,1527.1 L1266.0,1540.9 M1263.1,1537.1 L1266.0,1540.9 L1267.7,1536.5 M1372.8,1528.4 L1381.2,1539.6 M1376.8,1537.6 L1381.2,1539.6 L1380.5,1534.9 M1648.8,1505.8 L1655.2,1518.2 M1651.2,1515.5 L1655.2,1518.2 L1655.3,1513.4 M1757.9,1508.5 L1770.1,1515.5 M1765.3,1515.4 L1770.1,1515.5 L1767.6,1511.4 M1863.1,1533.1 L1876.9,1534.9 M1872.5,1536.7 L1876.9,1534.9 L1873.1,1532.1 M1982.4,1516.2 L1993.6,1507.8 M1991.6,1512.2 L1993.6,1507.8 L1988.9,1508.5 M80.7,1617.8 L87.3,1630.2 M83.3,1627.6 L87.3,1630.2 L87.4,1625.4 M166.8,1617.1 L169.2,1630.9 M166.2,1627.2 L169.2,1630.9 L170.8,1626.4 M760.0,1618.2 L752.0,1629.8 M752.5,1625.0 L752.0,1629.8 L756.3,1627.6 M874.7,1626.1 L861.3,1621.9 M866.0,1621.0 L861.3,1621.9 L864.6,1625.4 M1205.6,1617.2 L1202.4,1630.8 M1201.1,1626.2 L1202.4,1630.8 L1205.6,1627.2 M1265.1,1594.0 L1264.9,1608.0 M1262.6,1603.8 L1264.9,1608.0 L1267.3,1603.8 M1423.4,1618.7 L1432.6,1629.3 M1428.1,1627.6 L1432.6,1629.3 L1431.6,1624.6 M1757.0,1623.4 L1771.0,1624.6 M1766.6,1626.5 L1771.0,1624.6 L1767.0,1621.9 M1869.2,1622.2 L1882.8,1625.8 M1878.1,1626.9 L1882.8,1625.8 L1879.3,1622.5 M1975.0,1601.3 L1989.0,1600.7 M1984.9,1603.2 L1989.0,1600.7 L1984.7,1598.6 M2093.8,1627.3 L2106.2,1620.7 M2103.6,1624.7 L2106.2,1620.7 L2101.4,1620.6 M2177.3,1625.9 L2190.7,1622.1 M2187.3,1625.5 L2190.7,1622.1 L2186.1,1621.0" fill="none" stroke="#eef7fa" stroke-opacity="0.94" stroke-width="4.2" stroke-linejoin="round" stroke-linecap="round" data-aifsm-role="wind-arrow-fallback"/>
<path d="M87.3,62.2 L80.7,49.8 M84.7,52.4 L80.7,49.8 L80.6,54.6 M303.2,39.9 L300.8,26.1 M303.8,29.8 L300.8,26.1 L299.2,30.6 M371.6,39.5 L366.4,26.5 M370.1,29.5 L366.4,26.5 L365.8,31.3 M486.2,82.7 L475.8,73.3 M480.5,74.4 L475.8,73.3 L477.4,77.8 M650.8,57.8 L637.2,54.2 M641.9,53.1 L637.2,54.2 L640.7,57.5 M758.1,62.7 L753.9,49.3 M757.4,52.6 L753.9,49.3 L753.0,54.0 M953.6,62.8 L950.4,49.2 M953.6,52.7 L950.4,49.2 L949.1,53.8 M1203.4,63.0 L1204.6,49.0 M1206.6,53.4 L1204.6,49.0 L1202.0,53.0 M1315.0,62.9 L1317.0,49.1 M1318.7,53.6 L1317.0,49.1 L1314.1,52.9 M1376.0,84.9 L1378.0,71.1 M1379.7,75.6 L1378.0,71.1 L1375.1,74.9 M1761.7,49.4 L1766.3,62.6 M1762.7,59.4 L1766.3,62.6 L1767.1,57.9 M1872.8,49.8 L1879.2,62.2 M1875.2,59.5 L1879.2,62.2 L1879.3,57.4 M1956.6,77.9 L1963.4,90.1 M1959.3,87.6 L1963.4,90.1 L1963.4,85.3 M2096.7,49.8 L2103.3,62.2 M2099.3,59.6 L2103.3,62.2 L2103.4,57.4 M2157.4,72.0 L2164.6,84.0 M2160.5,81.6 L2164.6,84.0 L2164.4,79.2 M58.4,202.6 L53.6,189.4 M57.2,192.6 L53.6,189.4 L52.9,194.2 M196.7,175.0 L195.3,161.0 M198.0,165.0 L195.3,161.0 L193.4,165.4 M257.6,152.0 L256.4,138.0 M259.1,142.0 L256.4,138.0 L254.5,142.4 M484.3,196.2 L477.7,183.8 M481.7,186.4 L477.7,183.8 L477.6,188.6 M646.1,174.7 L641.9,161.3 M645.4,164.6 L641.9,161.3 L641.0,166.0 M729.9,174.7 L726.1,161.3 M729.5,164.7 L726.1,161.3 L725.0,165.9 M930.8,196.8 L927.2,183.2 M930.5,186.7 L927.2,183.2 L926.0,187.9 M1092.4,175.0 L1091.6,161.0 M1094.2,165.1 L1091.6,161.0 L1089.6,165.3 M1203.0,174.9 L1205.0,161.1 M1206.7,165.6 L1205.0,161.1 L1202.1,164.9 M1313.1,174.4 L1318.9,161.6 M1319.3,166.4 L1318.9,161.6 L1315.0,164.5 M1871.6,162.5 L1880.4,173.5 M1876.0,171.6 L1880.4,173.5 L1879.6,168.7 M1977.8,184.4 L1986.2,195.6 M1981.8,193.6 L1986.2,195.6 L1985.5,190.8 M2179.6,134.6 L2188.4,145.4 M2184.0,143.6 L2188.4,145.4 L2187.6,140.7 M34.8,308.8 L31.2,295.2 M34.5,298.7 L31.2,295.2 L30.0,299.9 M191.0,263.9 L189.0,250.1 M191.9,253.9 L189.0,250.1 L187.3,254.6 M258.1,263.9 L255.9,250.1 M258.8,253.9 L255.9,250.1 L254.3,254.6 M420.6,287.0 L419.4,273.0 M422.1,277.0 L419.4,273.0 L417.5,277.4 M482.2,263.9 L479.8,250.1 M482.8,253.8 L479.8,250.1 L478.2,254.6 M648.4,285.5 L639.6,274.5 M644.1,276.4 L639.6,274.5 L640.4,279.2 M729.3,258.9 L726.7,245.1 M729.7,248.8 L726.7,245.1 L725.2,249.7 M869.9,286.7 L866.1,273.3 M869.5,276.7 L866.1,273.3 L865.0,277.9 M975.5,263.8 L972.5,250.2 M975.7,253.8 L972.5,250.2 L971.1,254.8 M1092.3,287.0 L1091.7,273.0 M1094.2,277.1 L1091.7,273.0 L1089.6,277.3 M1175.3,287.0 L1176.7,273.0 M1178.6,277.5 L1176.7,273.0 L1174.0,277.0 M1306.6,263.1 L1313.4,250.9 M1313.4,255.7 L1313.4,250.9 L1309.3,253.4 M1531.2,308.4 L1536.8,295.6 M1537.2,300.4 L1536.8,295.6 L1533.0,298.5 M1645.9,276.5 L1658.1,283.5 M1653.3,283.4 L1658.1,283.5 L1655.6,279.4 M1707.4,297.7 L1718.6,306.3 M1713.8,305.5 L1718.6,306.3 L1716.6,301.9 M1871.1,275.0 L1880.9,285.0 M1876.3,283.6 L1880.9,285.0 L1879.6,280.4 M1976.8,297.3 L1987.2,306.7 M1982.5,305.6 L1987.2,306.7 L1985.6,302.2 M2066.0,304.4 L2078.0,311.6 M2073.2,311.4 L2078.0,311.6 L2075.6,307.4 M84.4,399.0 L83.6,385.0 M86.1,389.1 L83.6,385.0 L81.5,389.3 M145.8,376.0 L144.2,362.0 M147.0,366.0 L144.2,362.0 L142.4,366.5 M307.1,398.9 L308.9,385.1 M310.7,389.5 L308.9,385.1 L306.1,388.9 M390.4,370.8 L393.6,357.2 M394.9,361.8 L393.6,357.2 L390.4,360.7 M616.2,427.0 L615.8,413.0 M618.2,417.1 L615.8,413.0 L613.6,417.3 M707.8,420.4 L702.2,407.6 M706.0,410.5 L702.2,407.6 L701.8,412.3 M870.2,398.6 L865.8,385.4 M869.3,388.6 L865.8,385.4 L864.9,390.1 M954.0,426.7 L950.0,413.3 M953.4,416.7 L950.0,413.3 L949.0,418.0 M1092.6,399.0 L1091.4,385.0 M1094.1,389.0 L1091.4,385.0 L1089.5,389.4 M1204.1,399.0 L1203.9,385.0 M1206.3,389.2 L1203.9,385.0 L1201.6,389.2 M1422.9,396.8 L1433.1,387.2 M1431.6,391.7 L1433.1,387.2 L1428.4,388.4 M1535.2,397.1 L1544.8,386.9 M1543.6,391.5 L1544.8,386.9 L1540.2,388.4 M1617.4,422.3 L1630.6,417.7 M1627.4,421.2 L1630.6,417.7 L1625.9,416.9 M1758.2,388.1 L1769.8,395.9 M1765.0,395.5 L1769.8,395.9 L1767.6,391.7 M1819.1,410.2 L1830.9,417.8 M1826.1,417.5 L1830.9,417.8 L1828.6,413.6 M1981.5,389.4 L1994.5,394.6 M1989.7,395.2 L1994.5,394.6 L1991.5,390.9 M2042.4,366.8 L2055.6,371.2 M2050.9,372.1 L2055.6,371.2 L2052.4,367.7 M2177.0,419.2 L2191.0,420.8 M2186.5,422.6 L2191.0,420.8 L2187.0,418.0 M55.3,483.0 L56.7,469.0 M58.6,473.4 L56.7,469.0 L54.0,473.0 M194.7,510.9 L197.3,497.1 M198.8,501.7 L197.3,497.1 L194.2,500.8 M255.3,487.8 L258.7,474.2 M259.9,478.8 L258.7,474.2 L255.4,477.7 M416.0,509.7 L424.0,498.3 M423.5,503.0 L424.0,498.3 L419.7,500.4 M528.6,510.1 L535.4,497.9 M535.4,502.7 L535.4,497.9 L531.3,500.4 M643.7,511.0 L644.3,497.0 M646.4,501.3 L644.3,497.0 L641.8,501.1 M863.8,487.8 L860.2,474.2 M863.5,477.7 L860.2,474.2 L859.0,478.9 M931.0,487.7 L927.0,474.3 M930.4,477.7 L927.0,474.3 L926.0,479.0 M1093.6,510.8 L1090.4,497.2 M1093.6,500.8 L1090.4,497.2 L1089.1,501.8 M1177.4,510.9 L1174.6,497.1 M1177.7,500.8 L1174.6,497.1 L1173.2,501.7 M1315.9,511.0 L1316.1,497.0 M1318.3,501.2 L1316.1,497.0 L1313.7,501.2 M1424.6,510.1 L1431.4,497.9 M1431.4,502.6 L1431.4,497.9 L1427.3,500.4 M1533.4,506.3 L1546.6,501.7 M1543.4,505.3 L1546.6,501.7 L1541.9,500.9 M1645.0,503.3 L1659.0,504.7 M1654.6,506.6 L1659.0,504.7 L1655.0,502.0 M1757.9,500.6 L1770.1,507.4 M1765.3,507.4 L1770.1,507.4 L1767.6,503.3 M1818.7,523.0 L1831.3,529.0 M1826.5,529.3 L1831.3,529.0 L1828.5,525.1 M1975.5,523.5 L1988.5,528.5 M1983.8,529.2 L1988.5,528.5 L1985.4,524.8 M2177.2,502.4 L2190.8,505.6 M2186.2,506.9 L2190.8,505.6 L2187.2,502.4 M81.4,622.5 L86.6,609.5 M87.2,614.3 L86.6,609.5 L82.9,612.5 M143.1,599.7 L146.9,586.3 M148.0,590.9 L146.9,586.3 L143.5,589.7 M298.4,644.0 L305.6,632.0 M305.4,636.8 L305.6,632.0 L301.5,634.4 M365.1,598.8 L372.9,587.2 M372.5,592.0 L372.9,587.2 L368.7,589.4 M521.1,598.0 L530.9,588.0 M529.6,592.6 L530.9,588.0 L526.3,589.4 M755.5,623.0 L756.5,609.0 M758.5,613.4 L756.5,609.0 L753.9,613.0 M816.7,645.0 L817.3,631.0 M819.4,635.3 L817.3,631.0 L814.8,635.1 M1065.4,622.9 L1062.6,609.1 M1065.7,612.8 L1062.6,609.1 L1061.2,613.7 M1311.9,621.7 L1320.1,610.3 M1319.5,615.1 L1320.1,610.3 L1315.7,612.4 M1426.3,622.8 L1429.7,609.2 M1430.9,613.8 L1429.7,609.2 L1426.4,612.7 M1529.5,598.4 L1538.5,587.6 M1537.6,592.3 L1538.5,587.6 L1534.0,589.4 M1645.0,616.7 L1659.0,615.3 M1655.0,618.0 L1659.0,615.3 L1654.6,613.4 M1751.3,591.0 L1764.7,595.0 M1760.0,596.0 L1764.7,595.0 L1761.3,591.6 M1869.9,612.5 L1882.1,619.5 M1877.3,619.4 L1882.1,619.5 L1879.6,615.4 M1953.9,640.5 L1966.1,647.5 M1961.3,647.4 L1966.1,647.5 L1963.6,643.4 M2065.2,642.4 L2078.8,645.6 M2074.2,646.9 L2078.8,645.6 L2075.3,642.4 M74.3,756.0 L81.7,744.0 M81.4,748.8 L81.7,744.0 L77.5,746.4 M192.5,734.1 L199.5,721.9 M199.4,726.7 L199.5,721.9 L195.4,724.4 M276.1,705.8 L283.9,694.2 M283.5,698.9 L283.9,694.2 L279.6,696.4 M526.3,732.1 L537.7,723.9 M535.6,728.2 L537.7,723.9 L532.9,724.5 M638.2,732.0 L649.8,724.0 M647.6,728.3 L649.8,724.0 L645.0,724.5 M754.9,734.9 L757.1,721.1 M758.7,725.6 L757.1,721.1 L754.2,724.9 M862.8,712.0 L861.2,698.0 M864.0,702.0 L861.2,698.0 L859.4,702.5 M981.9,734.7 L978.1,721.3 M981.4,724.7 L978.1,721.3 L977.0,725.9 M1087.1,711.9 L1084.9,698.1 M1087.8,701.9 L1084.9,698.1 L1083.3,702.6 M1205.0,734.9 L1203.0,721.1 M1205.9,724.9 L1203.0,721.1 L1201.3,725.5 M1315.4,735.0 L1316.6,721.0 M1318.5,725.4 L1316.6,721.0 L1313.9,725.0 M1645.2,726.5 L1658.8,729.5 M1654.2,730.9 L1658.8,729.5 L1655.2,726.4 M1757.3,726.1 L1770.7,729.9 M1766.1,731.0 L1770.7,729.9 L1767.3,726.6 M1869.5,725.4 L1882.5,730.6 M1877.7,731.2 L1882.5,730.6 L1879.5,726.9 M1982.2,724.1 L1993.8,731.9 M1989.0,731.5 L1993.8,731.9 L1991.6,727.7 M2094.7,723.4 L2105.3,732.6 M2100.6,731.6 L2105.3,732.6 L2103.6,728.1 M2155.9,745.2 L2166.1,754.8 M2161.5,753.6 L2166.1,754.8 L2164.6,750.2 M74.0,822.7 L82.0,811.3 M81.5,816.1 L82.0,811.3 L77.7,813.4 M302.7,844.6 L313.3,835.4 M311.6,839.9 L313.3,835.4 L308.6,836.4 M414.1,843.7 L425.9,836.3 M423.6,840.5 L425.9,836.3 L421.2,836.6 M520.4,821.2 L531.6,812.8 M529.6,817.2 L531.6,812.8 L526.8,813.5 M610.2,816.0 L621.8,808.0 M619.6,812.3 L621.8,808.0 L617.0,808.5 M725.7,846.6 L730.3,833.4 M731.1,838.1 L730.3,833.4 L726.7,836.6 M869.6,846.8 L866.4,833.2 M869.6,836.7 L866.4,833.2 L865.1,837.8 M930.1,823.9 L927.9,810.1 M930.9,813.9 L927.9,810.1 L926.3,814.6 M1042.3,823.9 L1039.7,810.1 M1042.8,813.8 L1039.7,810.1 L1038.2,814.7 M1205.9,846.7 L1202.1,833.3 M1205.5,836.7 L1202.1,833.3 L1201.0,837.9 M1758.5,835.7 L1769.5,844.3 M1764.8,843.5 L1769.5,844.3 L1767.6,839.9 M1869.7,836.9 L1882.3,843.1 M1877.5,843.3 L1882.3,843.1 L1879.5,839.2 M1976.1,858.3 L1987.9,865.7 M1983.2,865.4 L1987.9,865.7 L1985.6,861.5 M2095.6,834.6 L2104.4,845.4 M2100.0,843.6 L2104.4,845.4 L2103.6,840.7 M79.3,957.2 L88.7,946.8 M87.6,951.5 L88.7,946.8 L84.1,948.4 M162.9,928.8 L173.1,919.2 M171.6,923.8 L173.1,919.2 L168.5,920.4 M296.0,932.6 L308.0,925.4 M305.6,929.5 L308.0,925.4 L303.2,925.6 M385.6,926.8 L398.4,921.2 M395.5,925.0 L398.4,921.2 L393.7,920.8 M752.0,957.7 L760.0,946.3 M759.5,951.0 L760.0,946.3 L755.7,948.4 M838.0,958.7 L842.0,945.3 M843.0,950.0 L842.0,945.3 L838.6,948.7 M978.1,958.7 L981.9,945.3 M983.0,949.9 L981.9,945.3 L978.6,948.7 M1428.4,926.1 L1415.6,931.9 M1418.5,928.0 L1415.6,931.9 L1420.4,932.3 M1640.8,969.3 L1651.2,978.7 M1646.5,977.6 L1651.2,978.7 L1649.6,974.2 M1845.9,917.3 L1850.1,930.7 M1846.7,927.4 L1850.1,930.7 L1851.1,926.0 M2181.6,973.4 L2186.4,986.6 M2182.8,983.4 L2186.4,986.6 L2187.1,981.8 M184.2,1090.0 L195.8,1082.0 M193.6,1086.3 L195.8,1082.0 L191.0,1082.5 M301.6,1066.9 L314.4,1061.1 M311.5,1064.9 L314.4,1061.1 L309.6,1060.7 M407.4,1088.5 L420.6,1083.5 M417.4,1087.2 L420.6,1083.5 L415.8,1082.9 M519.3,1088.2 L532.7,1083.8 M529.4,1087.3 L532.7,1083.8 L528.0,1082.9 M637.7,1067.1 L650.3,1060.9 M647.5,1064.8 L650.3,1060.9 L645.5,1060.7 M722.5,1040.3 L733.5,1031.7 M731.6,1036.1 L733.5,1031.7 L728.8,1032.5 M837.2,1042.4 L842.8,1029.6 M843.2,1034.4 L842.8,1029.6 L839.0,1032.5 M1658.3,1067.0 L1645.7,1061.0 M1650.5,1060.7 L1645.7,1061.0 L1648.5,1064.9 M1770.5,1061.4 L1757.5,1066.6 M1760.5,1062.9 L1757.5,1066.6 L1762.3,1067.2 M1854.5,1061.3 L1841.5,1066.7 M1844.5,1062.9 L1841.5,1066.7 L1846.3,1067.2 M1994.8,1062.2 L1981.2,1065.8 M1984.7,1062.5 L1981.2,1065.8 L1985.9,1067.0 M2077.7,1032.0 L2066.3,1040.0 M2068.4,1035.7 L2066.3,1040.0 L2071.0,1039.5 M2187.1,1085.7 L2180.9,1098.3 M2180.7,1093.5 L2180.9,1098.3 L2184.9,1095.5 M78.5,1180.3 L89.5,1171.7 M87.6,1176.1 L89.5,1171.7 L84.8,1172.5 M162.6,1152.4 L173.4,1143.6 M171.6,1148.0 L173.4,1143.6 L168.7,1144.4 M302.4,1180.3 L313.6,1171.7 M311.6,1176.1 L313.6,1171.7 L308.8,1172.5 M413.4,1178.3 L426.6,1173.7 M423.4,1177.3 L426.6,1173.7 L421.9,1172.9 M519.5,1155.7 L532.5,1150.3 M529.5,1154.1 L532.5,1150.3 L527.7,1149.8 M609.9,1151.5 L622.1,1144.5 M619.6,1148.6 L622.1,1144.5 L617.3,1144.6 M1200.6,1146.5 L1195.4,1159.5 M1194.8,1154.8 L1195.4,1159.5 L1199.1,1156.4 M1427.2,1148.3 L1416.8,1157.7 M1418.4,1153.2 L1416.8,1157.7 L1421.5,1156.6 M1766.9,1169.6 L1761.1,1182.4 M1760.7,1177.6 L1761.1,1182.4 L1764.9,1179.5 M1853.8,1144.1 L1842.2,1151.9 M1844.4,1147.7 L1842.2,1151.9 L1847.0,1151.5 M2188.8,1198.9 L2179.2,1209.1 M2180.4,1204.4 L2179.2,1209.1 L2183.7,1207.6 M27.5,1269.3 L38.5,1260.7 M36.6,1265.1 L38.5,1260.7 L33.8,1261.5 M745.6,1304.6 L754.4,1315.4 M750.0,1313.6 L754.4,1315.4 L753.6,1310.7 M833.1,1317.2 L846.9,1314.8 M843.1,1317.8 L846.9,1314.8 L842.4,1313.3 M1089.2,1281.6 L1094.8,1294.4 M1091.0,1291.5 L1094.8,1294.4 L1095.2,1289.7 M1173.1,1309.6 L1178.9,1322.4 M1175.0,1319.5 L1178.9,1322.4 L1179.3,1317.6 M1434.1,1284.5 L1421.9,1291.5 M1424.4,1287.4 L1421.9,1291.5 L1426.7,1291.4 M1537.1,1281.7 L1542.9,1294.3 M1539.1,1291.5 L1542.9,1294.3 L1543.3,1289.6 M1649.0,1281.7 L1655.0,1294.3 M1651.1,1291.5 L1655.0,1294.3 L1655.3,1289.6 M1709.2,1304.1 L1716.8,1315.9 M1712.6,1313.6 L1716.8,1315.9 L1716.5,1311.1 M1993.0,1283.1 L1983.0,1292.9 M1984.4,1288.3 L1983.0,1292.9 L1987.6,1291.6 M2099.9,1306.3 L2088.1,1313.7 M2090.4,1309.5 L2088.1,1313.7 L2092.8,1313.4 M2190.4,1318.7 L2177.6,1313.3 M2182.3,1312.8 L2177.6,1313.3 L2180.5,1317.0 M77.3,1402.0 L90.7,1398.0 M87.3,1401.4 L90.7,1398.0 L86.0,1397.0 M751.1,1395.1 L760.9,1404.9 M756.3,1403.6 L760.9,1404.9 L759.6,1400.3 M863.1,1395.1 L872.9,1404.9 M868.3,1403.6 L872.9,1404.9 L871.6,1400.3 M1093.0,1422.1 L1079.0,1421.9 M1083.2,1419.6 L1079.0,1421.9 L1083.2,1424.3 M1201.5,1393.4 L1206.5,1406.6 M1202.8,1403.4 L1206.5,1406.6 L1207.1,1401.8 M1284.0,1422.2 L1292.0,1433.8 M1287.7,1431.6 L1292.0,1433.8 L1291.5,1429.0 M1417.0,1372.1 L1427.0,1381.9 M1422.4,1380.6 L1427.0,1381.9 L1425.6,1377.3 M1533.0,1399.5 L1547.0,1400.5 M1542.6,1402.5 L1547.0,1400.5 L1543.0,1397.9 M1648.3,1394.1 L1655.7,1405.9 M1651.5,1403.6 L1655.7,1405.9 L1655.4,1401.1 M1762.1,1393.3 L1765.9,1406.7 M1762.6,1403.3 L1765.9,1406.7 L1767.0,1402.0 M1882.4,1402.8 L1869.6,1397.2 M1874.3,1396.8 L1869.6,1397.2 L1872.5,1401.0 M2100.2,1393.0 L2099.8,1407.0 M2097.6,1402.7 L2099.8,1407.0 L2102.2,1402.9 M2190.7,1373.9 L2177.3,1370.1 M2181.9,1369.0 L2177.3,1370.1 L2180.7,1373.5 M78.2,1508.2 L89.8,1515.8 M85.1,1515.5 L89.8,1515.8 L87.6,1511.6 M194.3,1505.2 L197.7,1518.8 M194.5,1515.3 L197.7,1518.8 L198.9,1514.1 M982.2,1505.4 L977.8,1518.6 M976.9,1513.9 L977.8,1518.6 L981.3,1515.4 M1205.6,1505.2 L1202.4,1518.8 M1201.1,1514.2 L1202.4,1518.8 L1205.6,1515.2 M1264.0,1527.1 L1266.0,1540.9 M1263.1,1537.1 L1266.0,1540.9 L1267.7,1536.5 M1372.8,1528.4 L1381.2,1539.6 M1376.8,1537.6 L1381.2,1539.6 L1380.5,1534.9 M1648.8,1505.8 L1655.2,1518.2 M1651.2,1515.5 L1655.2,1518.2 L1655.3,1513.4 M1757.9,1508.5 L1770.1,1515.5 M1765.3,1515.4 L1770.1,1515.5 L1767.6,1511.4 M1863.1,1533.1 L1876.9,1534.9 M1872.5,1536.7 L1876.9,1534.9 L1873.1,1532.1 M1982.4,1516.2 L1993.6,1507.8 M1991.6,1512.2 L1993.6,1507.8 L1988.9,1508.5 M80.7,1617.8 L87.3,1630.2 M83.3,1627.6 L87.3,1630.2 L87.4,1625.4 M166.8,1617.1 L169.2,1630.9 M166.2,1627.2 L169.2,1630.9 L170.8,1626.4 M760.0,1618.2 L752.0,1629.8 M752.5,1625.0 L752.0,1629.8 L756.3,1627.6 M874.7,1626.1 L861.3,1621.9 M866.0,1621.0 L861.3,1621.9 L864.6,1625.4 M1205.6,1617.2 L1202.4,1630.8 M1201.1,1626.2 L1202.4,1630.8 L1205.6,1627.2 M1265.1,1594.0 L1264.9,1608.0 M1262.6,1603.8 L1264.9,1608.0 L1267.3,1603.8 M1423.4,1618.7 L1432.6,1629.3 M1428.1,1627.6 L1432.6,1629.3 L1431.6,1624.6 M1757.0,1623.4 L1771.0,1624.6 M1766.6,1626.5 L1771.0,1624.6 L1767.0,1621.9 M1869.2,1622.2 L1882.8,1625.8 M1878.1,1626.9 L1882.8,1625.8 L1879.3,1622.5 M1975.0,1601.3 L1989.0,1600.7 M1984.9,1603.2 L1989.0,1600.7 L1984.7,1598.6 M2093.8,1627.3 L2106.2,1620.7 M2103.6,1624.7 L2106.2,1620.7 L2101.4,1620.6 M2177.3,1625.9 L2190.7,1622.1 M2187.3,1625.5 L2190.7,1622.1 L2186.1,1621.0" fill="none" stroke="#071923" stroke-opacity="0.96" stroke-width="1.35" stroke-linejoin="round" stroke-linecap="round" data-aifsm-role="wind-arrow-fallback"/>
<path d="" fill="none" stroke="none" data-aifsm-role="wind-arrows" data-aifsm-points="84,56,-0.4728,-0.8812,23.3;302,33,-0.1692,-0.9856,30.1;369,33,-0.3741,-0.9274,38.5;481,78,-0.7427,-0.6696,17.8;644,56,-0.9681,-0.2504,6.0;756,56,-0.2978,-0.9546,37.6;952,56,-0.2308,-0.9730,34.2;1204,56,0.0897,-0.9960,21.2;1316,56,0.1434,-0.9897,13.9;1377,78,0.1471,-0.9891,12.2;1764,56,0.3315,0.9435,23.5;1876,56,0.4591,0.8884,16.8;1960,84,0.4860,0.8739,21.4;2100,56,0.4768,0.8790,26.8;2161,78,0.5192,0.8546,31.0;56,196,-0.3442,-0.9389,36.3;196,168,-0.0970,-0.9953,27.8;257,145,-0.0814,-0.9967,24.6;481,190,-0.4680,-0.8837,36.3;644,168,-0.2995,-0.9541,14.4;728,168,-0.2676,-0.9635,14.9;929,190,-0.2584,-0.9660,35.6;1092,168,-0.0508,-0.9987,27.5;1204,168,0.1408,-0.9900,21.3;1316,168,0.4081,-0.9130,14.5;1876,168,0.6267,0.7793,24.3;1982,190,0.6016,0.7988,30.4;2184,140,0.6277,0.7785,28.5;33,302,-0.2613,-0.9653,46.3;190,257,-0.1419,-0.9899,30.3;257,257,-0.1619,-0.9868,19.2;420,280,-0.0800,-0.9968,13.7;481,257,-0.1696,-0.9855,24.8;644,280,-0.6217,-0.7833,24.1;728,252,-0.1926,-0.9813,16.6;868,280,-0.2701,-0.9628,31.5;974,257,-0.2145,-0.9767,34.5;1092,280,-0.0487,-0.9988,28.7;1176,280,0.1025,-0.9947,23.4;1310,257,0.4829,-0.8757,15.5;1534,302,0.3996,-0.9167,8.5;1652,280,0.8682,0.4961,11.3;1713,302,0.7944,0.6075,17.1;1876,280,0.7049,0.7093,22.6;1982,302,0.7444,0.6678,23.5;2072,308,0.8604,0.5097,18.2;84,392,-0.0578,-0.9983,46.7;145,369,-0.1158,-0.9933,34.5;308,392,0.1351,-0.9908,17.8;392,364,0.2310,-0.9730,14.3;616,420,-0.0221,-0.9998,13.6;705,414,-0.3968,-0.9179,20.9;868,392,-0.3135,-0.9496,21.7;952,420,-0.2877,-0.9577,24.3;1092,392,-0.0873,-0.9962,33.2;1204,392,-0.0192,-0.9998,26.0;1428,392,0.7236,-0.6902,9.0;1540,392,0.6817,-0.7316,6.0;1624,420,0.9421,-0.3353,6.3;1764,392,0.8288,0.5596,14.1;1825,414,0.8414,0.5404,16.3;1988,392,0.9270,0.3751,18.7;2049,369,0.9476,0.3195,18.2;2184,420,0.9938,0.1115,19.7;56,476,0.0953,-0.9954,47.2;196,504,0.1826,-0.9832,21.4;257,481,0.2402,-0.9707,20.0;420,504,0.5747,-0.8184,27.5;532,504,0.4817,-0.8763,19.5;644,504,0.0438,-0.9990,13.7;862,481,-0.2563,-0.9666,22.2;929,481,-0.2854,-0.9584,23.5;1092,504,-0.2215,-0.9752,30.3;1176,504,-0.2023,-0.9793,18.8;1316,504,0.0094,-1.0000,10.6;1428,504,0.4789,-0.8779,8.8;1540,504,0.9435,-0.3315,7.8;1652,504,0.9956,0.0933,9.6;1764,504,0.8733,0.4872,10.9;1825,526,0.9033,0.4291,13.3;1982,526,0.9336,0.3583,18.4;2184,504,0.9742,0.2259,21.2;84,616,0.3731,-0.9278,41.3;145,593,0.2681,-0.9634,37.7;302,638,0.5196,-0.8544,28.7;369,593,0.5608,-0.8279,26.2;526,593,0.7001,-0.7141,21.4;756,616,0.0746,-0.9972,25.5;817,638,0.0359,-0.9994,33.4;1064,616,-0.2052,-0.9787,19.0;1316,616,0.5812,-0.8137,9.5;1428,616,0.2425,-0.9701,6.6;1534,593,0.6388,-0.7694,6.9;1652,616,0.9957,-0.0929,7.5;1758,593,0.9575,0.2883,9.7;1876,616,0.8696,0.4938,13.6;1960,644,0.8691,0.4946,14.2;2072,644,0.9732,0.2298,14.8;78,750,0.5260,-0.8505,38.2;196,728,0.4948,-0.8690,31.5;280,700,0.5522,-0.8337,28.1;532,728,0.8092,-0.5876,19.4;644,728,0.8247,-0.5655,21.2;756,728,0.1621,-0.9868,21.0;862,705,-0.1086,-0.9941,30.4;980,728,-0.2768,-0.9609,19.1;1086,705,-0.1609,-0.9870,18.6;1204,728,-0.1361,-0.9907,13.2;1316,728,0.0854,-0.9963,7.0;1652,728,0.9762,0.2169,5.5;1764,728,0.9610,0.2765,7.6;1876,728,0.9290,0.3700,12.2;1988,728,0.8288,0.5595,14.5;2100,728,0.7502,0.6612,15.7;2161,750,0.7336,0.6796,12.9;78,817,0.5782,-0.8159,37.0;308,840,0.7565,-0.6540,23.4;420,840,0.8485,-0.5291,21.0;526,817,0.7993,-0.6009,17.1;616,812,0.8217,-0.5699,15.1;728,840,0.3298,-0.9441,15.5;868,840,-0.2334,-0.9724,15.4;929,817,-0.1534,-0.9882,16.3;1041,817,-0.1839,-0.9829,15.8;1204,840,-0.2688,-0.9632,8.9;1764,840,0.7840,0.6207,6.1;1876,840,0.8968,0.4424,8.4;1982,862,0.8499,0.5269,11.8;2100,840,0.6297,0.7768,17.0;84,952,0.6668,-0.7452,33.1;168,924,0.7305,-0.6829,29.4;302,929,0.8586,-0.5127,24.0;392,924,0.9189,-0.3944,23.1;756,952,0.5735,-0.8192,17.1;840,952,0.2884,-0.9575,17.3;980,952,0.2760,-0.9612,10.5;1422,929,-0.9130,0.4079,5.1;1646,974,0.7399,0.6727,5.9;1848,924,0.3070,0.9517,6.5;2184,980,0.3396,0.9406,11.5;190,1086,0.8244,-0.5660,24.4;308,1064,0.9096,-0.4156,25.5;414,1086,0.9363,-0.3511,29.9;526,1086,0.9513,-0.3082,29.9;644,1064,0.8980,-0.4399,27.5;728,1036,0.7877,-0.6161,25.6;840,1036,0.4061,-0.9138,12.8;1652,1064,-0.9045,-0.4264,7.7;1764,1064,-0.9256,0.3784,17.2;1848,1064,-0.9225,0.3859,27.2;1988,1064,-0.9653,0.2612,8.8;2072,1036,-0.8175,0.5760,5.4;2184,1092,-0.4375,0.8992,8.2;84,1176,0.7837,-0.6211,24.0;168,1148,0.7753,-0.6316,23.0;308,1176,0.7941,-0.6078,30.6;420,1176,0.9458,-0.3248,20.9;526,1153,0.9225,-0.3860,21.2;616,1148,0.8679,-0.4967,19.1;1198,1153,-0.3647,0.9311,12.9;1422,1153,-0.7424,0.6700,5.5;1764,1176,-0.4199,0.9076,7.4;1848,1148,-0.8291,0.5590,15.9;2184,1204,-0.6921,0.7218,10.1;33,1265,0.7886,-0.6149,21.3;750,1310,0.6332,0.7740,7.1;840,1316,0.9864,-0.1644,5.5;1092,1288,0.3967,0.9179,12.9;1176,1316,0.4102,0.9120,22.9;1428,1288,-0.8682,0.4961,16.9;1540,1288,0.4211,0.9070,6.2;1652,1288,0.4221,0.9065,14.5;1713,1310,0.5416,0.8407,12.4;1988,1288,-0.7174,0.6966,9.6;2094,1310,-0.8494,0.5277,15.5;2184,1316,-0.9210,-0.3896,5.6;84,1400,0.9585,-0.2850,11.6;756,1400,0.7071,0.7071,5.2;868,1400,0.7071,0.7071,9.3;1086,1422,-0.9998,-0.0180,11.1;1204,1400,0.3528,0.9357,26.9;1288,1428,0.5674,0.8235,30.8;1422,1377,0.7192,0.6949,20.6;1540,1400,0.9972,0.0743,16.1;1652,1400,0.5351,0.8448,17.8;1764,1400,0.2779,0.9606,12.6;1876,1400,-0.9191,-0.3939,6.9;2100,1400,-0.0282,0.9996,7.1;2184,1372,-0.9623,-0.2722,10.3;84,1512,0.8357,0.5492,8.4;196,1512,0.2484,0.9687,8.1;980,1512,-0.3162,0.9487,5.1;1204,1512,-0.2222,0.9750,16.2;1265,1534,0.1361,0.9907,18.4;1377,1534,0.5958,0.8031,23.2;1652,1512,0.4576,0.8891,7.6;1764,1512,0.8685,0.4957,23.6;1870,1534,0.9917,0.1289,20.2;1988,1512,0.8000,-0.6000,6.5;84,1624,0.4736,0.8807,12.0;168,1624,0.1742,0.9847,14.9;756,1624,-0.5682,0.8229,5.1;868,1624,-0.9561,-0.2930,6.5;1204,1624,-0.2228,0.9749,7.2;1265,1601,-0.0174,0.9998,11.5;1428,1624,0.6567,0.7542,15.4;1764,1624,0.9961,0.0878,22.8;1876,1624,0.9672,0.2541,22.4;1982,1601,0.9988,-0.0485,20.6;2100,1624,0.8838,-0.4679,9.6;2184,1624,0.9624,-0.2717,8.8"/>
</svg>
