<?xml version="1.0" encoding="UTF-8"?>
<svg xmlns="http://www.w3.org/2000/svg" viewBox="0 0 2200 1640" preserveAspectRatio="none" shape-rendering="geometricPrecision">
<path d="M512.0,0.0 L520.0,8.0 M528.0,8.0 L520.0,8.0 M528.0,8.0 L528.0,8.0 M984.0,8.0 L984.0,8.0 M984.0,8.0 L992.0,0.0 M528.0,8.0 L536.0,16.0 M536.0,16.0 L536.0,16.0 M976.0,16.0 L976.0,16.0 M976.0,16.0 L984.0,8.0 M536.0,16.0 L544.0,24.0 M544.0,24.0 L544.0,24.0 M968.0,24.0 L968.0,24.0 M968.0,24.0 L976.0,16.0 M544.0,24.0 L552.0,32.0 M552.0,32.0 L552.0,32.0 M952.0,32.0 L952.0,32.0 M960.0,32.0 L952.0,32.0 M960.0,32.0 L968.0,24.0 M552.0,32.0 L560.0,40.0 M560.0,40.0 L560.0,40.0 M944.0,40.0 L944.0,40.0 M944.0,40.0 L952.0,32.0 M560.0,40.0 L568.0,48.0 M568.0,48.0 L568.0,48.0 M928.0,48.0 L928.0,48.0 M936.0,48.0 L928.0,48.0 M936.0,48.0 L944.0,40.0 M568.0,48.0 L576.0,56.0 M576.0,56.0 L576.0,56.0 M912.0,56.0 L912.0,56.0 M920.0,56.0 L912.0,56.0 M920.0,56.0 L928.0,48.0 M576.0,56.0 L584.0,64.0 M584.0,64.0 L584.0,64.0 M888.0,64.0 L888.0,64.0 M896.0,64.0 L888.0,64.0 M904.0,64.0 L896.0,64.0 M904.0,64.0 L912.0,56.0 M584.0,64.0 L592.0,72.0 M600.0,72.0 L592.0,72.0 M608.0,72.0 L600.0,72.0 M616.0,72.0 L608.0,72.0 M616.0,72.0 L616.0,72.0 M840.0,72.0 L840.0,72.0 M848.0,72.0 L840.0,72.0 M856.0,72.0 L848.0,72.0 M864.0,72.0 L856.0,72.0 M872.0,72.0 L864.0,72.0 M880.0,72.0 L872.0,72.0 M880.0,72.0 L888.0,64.0 M616.0,72.0 L624.0,80.0 M632.0,80.0 L624.0,80.0 M640.0,80.0 L632.0,80.0 M648.0,80.0 L640.0,80.0 M656.0,80.0 L648.0,80.0 M664.0,80.0 L656.0,80.0 M672.0,80.0 L664.0,80.0 M680.0,80.0 L672.0,80.0 M680.0,80.0 L680.0,80.0 M728.0,80.0 L728.0,80.0 M736.0,80.0 L728.0,80.0 M744.0,80.0 L736.0,80.0 M752.0,80.0 L744.0,80.0 M760.0,80.0 L752.0,80.0 M768.0,80.0 L760.0,80.0 M776.0,80.0 L768.0,80.0 M784.0,80.0 L776.0,80.0 M792.0,80.0 L784.0,80.0 M800.0,80.0 L792.0,80.0 M808.0,80.0 L800.0,80.0 M816.0,80.0 L808.0,80.0 M824.0,80.0 L816.0,80.0 M832.0,80.0 L824.0,80.0 M832.0,80.0 L840.0,72.0 M680.0,80.0 L688.0,88.0 M696.0,88.0 L688.0,88.0 M704.0,88.0 L696.0,88.0 M712.0,88.0 L704.0,88.0 M720.0,88.0 L712.0,88.0 M720.0,88.0 L728.0,80.0 M1816.0,1104.0 L1808.0,1112.0 M1816.0,1104.0 L1824.0,1112.0 M1808.0,1112.0 L1800.0,1120.0 M1808.0,1112.0 L1808.0,1112.0 M1824.0,1112.0 L1824.0,1112.0 M1824.0,1112.0 L1832.0,1112.0 M1832.0,1112.0 L1840.0,1112.0 M1840.0,1112.0 L1848.0,1112.0 M1848.0,1112.0 L1856.0,1112.0 M1856.0,1112.0 L1864.0,1120.0 M1800.0,1120.0 L1800.0,1128.0 M1864.0,1120.0 L1864.0,1120.0 M1864.0,1120.0 L1872.0,1120.0 M1872.0,1120.0 L1880.0,1128.0 M1800.0,1128.0 L1800.0,1136.0 M1880.0,1128.0 L1880.0,1128.0 M1880.0,1128.0 L1888.0,1136.0 M1800.0,1136.0 L1808.0,1144.0 M1808.0,1144.0 L1808.0,1144.0 M1888.0,1136.0 L1888.0,1136.0 M1888.0,1136.0 L1896.0,1136.0 M1896.0,1136.0 L1904.0,1144.0 M1808.0,1144.0 L1808.0,1152.0 M1904.0,1144.0 L1904.0,1144.0 M1904.0,1144.0 L1912.0,1144.0 M1912.0,1144.0 L1920.0,1144.0 M1920.0,1144.0 L1928.0,1144.0 M1928.0,1144.0 L1936.0,1152.0 M1808.0,1152.0 L1808.0,1160.0 M1936.0,1152.0 L1936.0,1152.0 M1936.0,1152.0 L1944.0,1160.0 M1520.0,1160.0 L1512.0,1168.0 M1520.0,1160.0 L1528.0,1160.0 M1528.0,1160.0 L1536.0,1168.0 M1544.0,1160.0 L1536.0,1168.0 M1544.0,1160.0 L1552.0,1160.0 M1552.0,1160.0 L1560.0,1160.0 M1560.0,1160.0 L1568.0,1160.0 M1568.0,1160.0 L1576.0,1168.0 M1808.0,1160.0 L1808.0,1168.0 M1944.0,1160.0 L1944.0,1160.0 M1944.0,1160.0 L1952.0,1160.0 M1952.0,1160.0 L1960.0,1168.0 M1512.0,1168.0 L1520.0,1176.0 M1528.0,1176.0 L1520.0,1176.0 M1528.0,1176.0 L1536.0,1168.0 M1536.0,1168.0 L1536.0,1176.0 M1576.0,1168.0 L1576.0,1176.0 M1808.0,1168.0 L1808.0,1176.0 M1960.0,1168.0 L1960.0,1168.0 M1960.0,1168.0 L1968.0,1176.0 M1488.0,1176.0 L1480.0,1184.0 M1488.0,1176.0 L1496.0,1176.0 M1496.0,1176.0 L1504.0,1184.0 M1536.0,1176.0 L1544.0,1184.0 M1552.0,1184.0 L1544.0,1184.0 M1560.0,1184.0 L1552.0,1184.0 M1568.0,1184.0 L1560.0,1184.0 M1568.0,1184.0 L1576.0,1176.0 M1808.0,1176.0 L1816.0,1184.0 M1824.0,1184.0 L1816.0,1184.0 M1832.0,1184.0 L1824.0,1184.0 M1832.0,1184.0 L1832.0,1184.0 M1968.0,1176.0 L1968.0,1176.0 M1968.0,1176.0 L1976.0,1176.0 M1976.0,1176.0 L1984.0,1184.0 M1480.0,1184.0 L1472.0,1192.0 M1480.0,1184.0 L1480.0,1184.0 M1504.0,1184.0 L1504.0,1184.0 M1504.0,1184.0 L1512.0,1192.0 M1536.0,1184.0 L1528.0,1192.0 M1536.0,1184.0 L1544.0,1184.0 M1544.0,1184.0 L1552.0,1184.0 M1552.0,1184.0 L1560.0,1184.0 M1560.0,1184.0 L1568.0,1184.0 M1568.0,1184.0 L1576.0,1184.0 M1576.0,1184.0 L1584.0,1184.0 M1584.0,1184.0 L1592.0,1184.0 M1592.0,1184.0 L1600.0,1184.0 M1600.0,1184.0 L1608.0,1184.0 M1608.0,1184.0 L1616.0,1184.0 M1616.0,1184.0 L1624.0,1184.0 M1624.0,1184.0 L1632.0,1184.0 M1632.0,1184.0 L1640.0,1192.0 M1832.0,1184.0 L1840.0,1192.0 M1840.0,1192.0 L1840.0,1192.0 M1984.0,1184.0 L1984.0,1184.0 M1984.0,1184.0 L1992.0,1192.0 M1472.0,1192.0 L1480.0,1200.0 M1480.0,1200.0 L1480.0,1200.0 M1512.0,1192.0 L1512.0,1192.0 M1512.0,1192.0 L1520.0,1192.0 M1520.0,1192.0 L1528.0,1192.0 M1528.0,1192.0 L1528.0,1192.0 M1640.0,1192.0 L1640.0,1192.0 M1640.0,1192.0 L1648.0,1200.0 M1840.0,1192.0 L1848.0,1200.0 M1848.0,1200.0 L1848.0,1200.0 M1992.0,1192.0 L1992.0,1200.0 M1472.0,1200.0 L1464.0,1208.0 M1472.0,1200.0 L1480.0,1208.0 M1480.0,1200.0 L1488.0,1208.0 M1488.0,1208.0 L1488.0,1208.0 M1648.0,1200.0 L1648.0,1208.0 M1848.0,1200.0 L1856.0,1208.0 M1856.0,1208.0 L1856.0,1208.0 M1992.0,1200.0 L1992.0,1200.0 M1992.0,1200.0 L2000.0,1208.0 M1464.0,1208.0 L1456.0,1216.0 M1464.0,1208.0 L1464.0,1208.0 M1480.0,1208.0 L1480.0,1208.0 M1480.0,1208.0 L1488.0,1208.0 M1488.0,1208.0 L1488.0,1208.0 M1648.0,1208.0 L1648.0,1216.0 M1856.0,1208.0 L1864.0,1216.0 M1872.0,1216.0 L1864.0,1216.0 M1872.0,1216.0 L1872.0,1216.0 M2000.0,1208.0 L2000.0,1208.0 M2000.0,1208.0 L2008.0,1216.0 M1456.0,1216.0 L1456.0,1224.0 M1648.0,1216.0 L1648.0,1216.0 M1648.0,1216.0 L1656.0,1216.0 M1656.0,1216.0 L1664.0,1224.0 M1872.0,1216.0 L1880.0,1224.0 M1880.0,1224.0 L1880.0,1224.0 M2008.0,1216.0 L2008.0,1216.0 M2008.0,1216.0 L2016.0,1224.0 M1456.0,1224.0 L1448.0,1232.0 M1456.0,1224.0 L1456.0,1224.0 M1664.0,1224.0 L1664.0,1232.0 M1880.0,1224.0 L1880.0,1232.0 M2016.0,1224.0 L2016.0,1224.0 M2016.0,1224.0 L2024.0,1232.0 M1448.0,1232.0 L1440.0,1240.0 M1448.0,1232.0 L1448.0,1232.0 M1664.0,1232.0 L1664.0,1240.0 M1880.0,1232.0 L1880.0,1240.0 M2024.0,1232.0 L2024.0,1240.0 M1440.0,1240.0 L1440.0,1248.0 M1664.0,1240.0 L1664.0,1248.0 M1880.0,1240.0 L1880.0,1248.0 M2024.0,1240.0 L2024.0,1240.0 M2024.0,1240.0 L2032.0,1248.0 M1440.0,1248.0 L1432.0,1256.0 M1440.0,1248.0 L1440.0,1248.0 M1664.0,1248.0 L1664.0,1256.0 M1880.0,1248.0 L1888.0,1256.0 M1888.0,1256.0 L1888.0,1256.0 M2032.0,1248.0 L2032.0,1256.0 M1432.0,1256.0 L1424.0,1264.0 M1432.0,1256.0 L1432.0,1256.0 M1664.0,1256.0 L1664.0,1256.0 M1664.0,1256.0 L1672.0,1264.0 M1888.0,1256.0 L1888.0,1264.0 M2032.0,1256.0 L2032.0,1256.0 M2032.0,1256.0 L2040.0,1264.0 M1424.0,1264.0 L1416.0,1272.0 M1424.0,1264.0 L1424.0,1264.0 M1672.0,1264.0 L1672.0,1264.0 M1672.0,1264.0 L1680.0,1264.0 M1680.0,1264.0 L1688.0,1264.0 M1688.0,1264.0 L1696.0,1272.0 M1888.0,1264.0 L1896.0,1272.0 M1896.0,1272.0 L1896.0,1272.0 M2040.0,1264.0 L2040.0,1272.0 M1416.0,1272.0 L1416.0,1280.0 M1552.0,1280.0 L1552.0,1280.0 M1560.0,1280.0 L1552.0,1280.0 M1560.0,1280.0 L1560.0,1280.0 M1696.0,1272.0 L1696.0,1272.0 M1696.0,1272.0 L1704.0,1272.0 M1704.0,1272.0 L1712.0,1280.0 M1896.0,1272.0 L1904.0,1280.0 M1904.0,1280.0 L1904.0,1280.0 M2040.0,1272.0 L2040.0,1280.0 M1416.0,1280.0 L1408.0,1288.0 M1416.0,1280.0 L1416.0,1280.0 M1544.0,1288.0 L1544.0,1288.0 M1544.0,1288.0 L1552.0,1280.0 M1560.0,1280.0 L1568.0,1288.0 M1568.0,1288.0 L1568.0,1288.0 M1712.0,1280.0 L1712.0,1288.0 M1904.0,1280.0 L1904.0,1288.0 M2040.0,1280.0 L2040.0,1280.0 M2040.0,1280.0 L2048.0,1288.0 M1408.0,1288.0 L1408.0,1296.0 M1520.0,1296.0 L1520.0,1296.0 M1528.0,1296.0 L1520.0,1296.0 M1536.0,1296.0 L1528.0,1296.0 M1536.0,1296.0 L1544.0,1288.0 M1568.0,1288.0 L1568.0,1296.0 M1712.0,1288.0 L1712.0,1288.0 M1712.0,1288.0 L1720.0,1296.0 M1904.0,1288.0 L1912.0,1296.0 M1912.0,1296.0 L1912.0,1296.0 M2048.0,1288.0 L2048.0,1296.0 M1408.0,1296.0 L1408.0,1304.0 M1512.0,1304.0 L1512.0,1304.0 M1512.0,1304.0 L1520.0,1296.0 M1568.0,1296.0 L1568.0,1304.0 M1720.0,1296.0 L1720.0,1296.0 M1720.0,1296.0 L1728.0,1304.0 M1912.0,1296.0 L1920.0,1304.0 M1920.0,1304.0 L1920.0,1304.0 M2040.0,1304.0 L2040.0,1304.0 M2040.0,1304.0 L2048.0,1296.0 M1408.0,1304.0 L1408.0,1312.0 M1512.0,1304.0 L1512.0,1312.0 M1568.0,1304.0 L1576.0,1312.0 M1576.0,1312.0 L1576.0,1312.0 M1728.0,1304.0 L1728.0,1312.0 M1920.0,1304.0 L1920.0,1312.0 M2024.0,1312.0 L2024.0,1312.0 M2032.0,1312.0 L2024.0,1312.0 M2032.0,1312.0 L2040.0,1304.0 M1408.0,1312.0 L1408.0,1320.0 M1512.0,1312.0 L1512.0,1320.0 M1576.0,1312.0 L1576.0,1320.0 M1728.0,1312.0 L1728.0,1312.0 M1728.0,1312.0 L1736.0,1320.0 M1920.0,1312.0 L1928.0,1320.0 M1936.0,1320.0 L1928.0,1320.0 M1936.0,1320.0 L1936.0,1320.0 M2016.0,1320.0 L2016.0,1320.0 M2016.0,1320.0 L2024.0,1312.0 M1408.0,1320.0 L1408.0,1328.0 M1512.0,1320.0 L1512.0,1328.0 M1576.0,1320.0 L1576.0,1328.0 M1736.0,1320.0 L1736.0,1328.0 M1936.0,1320.0 L1944.0,1328.0 M1944.0,1328.0 L1944.0,1328.0 M2008.0,1328.0 L2008.0,1328.0 M2008.0,1328.0 L2016.0,1320.0 M2032.0,1320.0 L2024.0,1328.0 M2032.0,1320.0 L2040.0,1320.0 M2040.0,1320.0 L2048.0,1328.0 M1408.0,1328.0 L1408.0,1336.0 M1512.0,1328.0 L1512.0,1328.0 M1512.0,1328.0 L1520.0,1336.0 M1576.0,1328.0 L1568.0,1336.0 M1576.0,1328.0 L1576.0,1328.0 M1736.0,1328.0 L1736.0,1336.0 M1944.0,1328.0 L1952.0,1336.0 M1952.0,1336.0 L1952.0,1336.0 M1992.0,1336.0 L1992.0,1336.0 M2000.0,1336.0 L1992.0,1336.0 M2000.0,1336.0 L2008.0,1328.0 M2024.0,1328.0 L2024.0,1336.0 M2048.0,1328.0 L2048.0,1328.0 M2048.0,1328.0 L2056.0,1336.0 M1408.0,1336.0 L1416.0,1344.0 M1416.0,1344.0 L1416.0,1344.0 M1520.0,1336.0 L1520.0,1344.0 M1568.0,1336.0 L1560.0,1344.0 M1568.0,1336.0 L1568.0,1336.0 M1736.0,1336.0 L1736.0,1344.0 M1952.0,1336.0 L1960.0,1344.0 M1968.0,1344.0 L1960.0,1344.0 M1976.0,1344.0 L1968.0,1344.0 M1984.0,1344.0 L1976.0,1344.0 M1984.0,1344.0 L1992.0,1336.0 M2024.0,1336.0 L2032.0,1344.0 M2040.0,1344.0 L2032.0,1344.0 M2048.0,1344.0 L2040.0,1344.0 M2048.0,1344.0 L2056.0,1336.0 M1416.0,1344.0 L1424.0,1352.0 M1424.0,1352.0 L1424.0,1352.0 M1520.0,1344.0 L1520.0,1352.0 M1560.0,1344.0 L1560.0,1352.0 M1736.0,1344.0 L1736.0,1352.0 M1424.0,1352.0 L1432.0,1360.0 M1432.0,1360.0 L1432.0,1360.0 M1520.0,1352.0 L1520.0,1360.0 M1560.0,1352.0 L1552.0,1360.0 M1560.0,1352.0 L1560.0,1352.0 M1736.0,1352.0 L1736.0,1360.0 M1432.0,1360.0 L1432.0,1368.0 M1520.0,1360.0 L1520.0,1360.0 M1520.0,1360.0 L1528.0,1368.0 M1552.0,1360.0 L1544.0,1368.0 M1552.0,1360.0 L1552.0,1360.0 M1736.0,1360.0 L1736.0,1368.0 M1432.0,1368.0 L1440.0,1376.0 M1440.0,1376.0 L1440.0,1376.0 M1528.0,1368.0 L1528.0,1368.0 M1528.0,1368.0 L1536.0,1368.0 M1536.0,1368.0 L1544.0,1368.0 M1544.0,1368.0 L1544.0,1368.0 M1720.0,1376.0 L1720.0,1376.0 M1728.0,1376.0 L1720.0,1376.0 M1728.0,1376.0 L1736.0,1368.0 M1440.0,1376.0 L1448.0,1384.0 M1448.0,1384.0 L1448.0,1384.0 M1704.0,1384.0 L1704.0,1384.0 M1712.0,1384.0 L1704.0,1384.0 M1712.0,1384.0 L1720.0,1376.0 M1448.0,1384.0 L1456.0,1392.0 M1464.0,1392.0 L1456.0,1392.0 M1472.0,1392.0 L1464.0,1392.0 M1472.0,1392.0 L1472.0,1392.0 M1488.0,1392.0 L1488.0,1392.0 M1496.0,1392.0 L1488.0,1392.0 M1504.0,1392.0 L1496.0,1392.0 M1512.0,1392.0 L1504.0,1392.0 M1512.0,1392.0 L1512.0,1392.0 M1688.0,1392.0 L1688.0,1392.0 M1696.0,1392.0 L1688.0,1392.0 M1696.0,1392.0 L1704.0,1384.0 M1472.0,1392.0 L1480.0,1400.0 M1480.0,1400.0 L1488.0,1392.0 M1512.0,1392.0 L1520.0,1400.0 M1528.0,1400.0 L1520.0,1400.0 M1536.0,1400.0 L1528.0,1400.0 M1544.0,1400.0 L1536.0,1400.0 M1552.0,1400.0 L1544.0,1400.0 M1552.0,1400.0 L1552.0,1400.0 M1656.0,1400.0 L1656.0,1400.0 M1664.0,1400.0 L1656.0,1400.0 M1672.0,1400.0 L1664.0,1400.0 M1680.0,1400.0 L1672.0,1400.0 M1680.0,1400.0 L1688.0,1392.0 M1552.0,1400.0 L1560.0,1408.0 M1568.0,1408.0 L1560.0,1408.0 M1568.0,1408.0 L1568.0,1408.0 M1640.0,1408.0 L1640.0,1408.0 M1648.0,1408.0 L1640.0,1408.0 M1648.0,1408.0 L1656.0,1400.0 M1568.0,1408.0 L1576.0,1416.0 M1584.0,1416.0 L1576.0,1416.0 M1592.0,1416.0 L1584.0,1416.0 M1600.0,1416.0 L1592.0,1416.0 M1608.0,1416.0 L1600.0,1416.0 M1616.0,1416.0 L1608.0,1416.0 M1624.0,1416.0 L1616.0,1416.0 M1632.0,1416.0 L1624.0,1416.0 M1632.0,1416.0 L1640.0,1408.0 M1304.0,0.0 L1304.0,8.0 M1296.0,16.0 L1296.0,16.0 M1296.0,16.0 L1304.0,8.0 M1296.0,16.0 L1296.0,24.0 M1288.0,32.0 L1288.0,32.0 M1288.0,32.0 L1296.0,24.0 M1280.0,40.0 L1280.0,40.0 M1280.0,40.0 L1288.0,32.0 M1272.0,48.0 L1272.0,48.0 M1272.0,48.0 L1280.0,40.0 M1272.0,48.0 L1272.0,56.0 M1264.0,64.0 L1264.0,64.0 M1264.0,64.0 L1272.0,56.0 M1256.0,72.0 L1256.0,72.0 M1256.0,72.0 L1264.0,64.0 M1248.0,80.0 L1248.0,80.0 M1248.0,80.0 L1256.0,72.0 M1240.0,88.0 L1240.0,88.0 M1240.0,88.0 L1248.0,80.0 M1232.0,96.0 L1232.0,96.0 M1232.0,96.0 L1240.0,88.0 M1232.0,96.0 L1232.0,104.0 M1224.0,112.0 L1224.0,112.0 M1224.0,112.0 L1232.0,104.0 M1216.0,120.0 L1216.0,120.0 M1216.0,120.0 L1224.0,112.0 M1208.0,128.0 L1208.0,128.0 M1208.0,128.0 L1216.0,120.0 M1200.0,136.0 L1200.0,136.0 M1200.0,136.0 L1208.0,128.0 M1192.0,144.0 L1192.0,144.0 M1192.0,144.0 L1200.0,136.0 M1184.0,152.0 L1184.0,152.0 M1184.0,152.0 L1192.0,144.0 M1176.0,160.0 L1176.0,160.0 M1176.0,160.0 L1184.0,152.0 M1168.0,168.0 L1168.0,168.0 M1168.0,168.0 L1176.0,160.0 M1160.0,176.0 L1160.0,176.0 M1160.0,176.0 L1168.0,168.0 M8.0,184.0 L0.0,184.0 M16.0,184.0 L8.0,184.0 M24.0,184.0 L16.0,184.0 M32.0,184.0 L24.0,184.0 M40.0,184.0 L32.0,184.0 M40.0,184.0 L40.0,184.0 M1152.0,184.0 L1152.0,184.0 M1152.0,184.0 L1160.0,176.0 M40.0,184.0 L48.0,192.0 M56.0,192.0 L48.0,192.0 M64.0,192.0 L56.0,192.0 M72.0,192.0 L64.0,192.0 M80.0,192.0 L72.0,192.0 M88.0,192.0 L80.0,192.0 M96.0,192.0 L88.0,192.0 M104.0,192.0 L96.0,192.0 M112.0,192.0 L104.0,192.0 M120.0,192.0 L112.0,192.0 M128.0,192.0 L120.0,192.0 M136.0,192.0 L128.0,192.0 M144.0,192.0 L136.0,192.0 M152.0,192.0 L144.0,192.0 M160.0,192.0 L152.0,192.0 M168.0,192.0 L160.0,192.0 M176.0,192.0 L168.0,192.0 M176.0,192.0 L176.0,192.0 M1144.0,192.0 L1144.0,192.0 M1144.0,192.0 L1152.0,184.0 M176.0,192.0 L184.0,200.0 M192.0,200.0 L184.0,200.0 M200.0,200.0 L192.0,200.0 M208.0,200.0 L200.0,200.0 M216.0,200.0 L208.0,200.0 M224.0,200.0 L216.0,200.0 M232.0,200.0 L224.0,200.0 M240.0,200.0 L232.0,200.0 M248.0,200.0 L240.0,200.0 M256.0,200.0 L248.0,200.0 M264.0,200.0 L256.0,200.0 M272.0,200.0 L264.0,200.0 M280.0,200.0 L272.0,200.0 M288.0,200.0 L280.0,200.0 M296.0,200.0 L288.0,200.0 M304.0,200.0 L296.0,200.0 M304.0,200.0 L304.0,200.0 M1136.0,200.0 L1136.0,200.0 M1136.0,200.0 L1144.0,192.0 M304.0,200.0 L312.0,208.0 M320.0,208.0 L312.0,208.0 M320.0,208.0 L320.0,208.0 M1128.0,208.0 L1128.0,208.0 M1128.0,208.0 L1136.0,200.0 M320.0,208.0 L328.0,216.0 M328.0,216.0 L328.0,216.0 M1120.0,216.0 L1120.0,216.0 M1120.0,216.0 L1128.0,208.0 M328.0,216.0 L336.0,224.0 M344.0,224.0 L336.0,224.0 M352.0,224.0 L344.0,224.0 M360.0,224.0 L352.0,224.0 M360.0,224.0 L360.0,224.0 M1112.0,224.0 L1112.0,224.0 M1112.0,224.0 L1120.0,216.0 M360.0,224.0 L368.0,232.0 M368.0,232.0 L368.0,232.0 M1104.0,232.0 L1104.0,232.0 M1104.0,232.0 L1112.0,224.0 M368.0,232.0 L376.0,240.0 M384.0,240.0 L376.0,240.0 M384.0,240.0 L384.0,240.0 M1088.0,240.0 L1088.0,240.0 M1096.0,240.0 L1088.0,240.0 M1096.0,240.0 L1104.0,232.0 M384.0,240.0 L392.0,248.0 M392.0,248.0 L392.0,248.0 M1080.0,248.0 L1080.0,248.0 M1080.0,248.0 L1088.0,240.0 M392.0,248.0 L400.0,256.0 M408.0,256.0 L400.0,256.0 M416.0,256.0 L408.0,256.0 M416.0,256.0 L416.0,256.0 M1064.0,256.0 L1064.0,256.0 M1072.0,256.0 L1064.0,256.0 M1072.0,256.0 L1080.0,248.0 M416.0,256.0 L424.0,264.0 M432.0,264.0 L424.0,264.0 M432.0,264.0 L432.0,264.0 M1056.0,264.0 L1056.0,264.0 M1056.0,264.0 L1064.0,256.0 M432.0,264.0 L432.0,272.0 M1040.0,272.0 L1040.0,272.0 M1048.0,272.0 L1040.0,272.0 M1048.0,272.0 L1056.0,264.0 M432.0,272.0 L432.0,280.0 M1032.0,280.0 L1032.0,280.0 M1032.0,280.0 L1040.0,272.0 M432.0,280.0 L440.0,288.0 M440.0,288.0 L440.0,288.0 M1008.0,288.0 L1008.0,288.0 M1016.0,288.0 L1008.0,288.0 M1024.0,288.0 L1016.0,288.0 M1024.0,288.0 L1032.0,280.0 M440.0,288.0 L440.0,296.0 M992.0,296.0 L992.0,296.0 M1000.0,296.0 L992.0,296.0 M1000.0,296.0 L1008.0,288.0 M440.0,296.0 L448.0,304.0 M456.0,304.0 L448.0,304.0 M456.0,304.0 L456.0,304.0 M984.0,304.0 L984.0,304.0 M984.0,304.0 L992.0,296.0 M456.0,304.0 L464.0,312.0 M472.0,312.0 L464.0,312.0 M472.0,312.0 L472.0,312.0 M968.0,312.0 L968.0,312.0 M976.0,312.0 L968.0,312.0 M976.0,312.0 L984.0,304.0 M472.0,312.0 L480.0,320.0 M488.0,320.0 L480.0,320.0 M496.0,320.0 L488.0,320.0 M504.0,320.0 L496.0,320.0 M504.0,320.0 L504.0,320.0 M952.0,320.0 L952.0,320.0 M960.0,320.0 L952.0,320.0 M960.0,320.0 L968.0,312.0 M504.0,320.0 L512.0,328.0 M520.0,328.0 L512.0,328.0 M528.0,328.0 L520.0,328.0 M528.0,328.0 L528.0,328.0 M928.0,328.0 L928.0,328.0 M936.0,328.0 L928.0,328.0 M944.0,328.0 L936.0,328.0 M944.0,328.0 L952.0,320.0 M528.0,328.0 L536.0,336.0 M544.0,336.0 L536.0,336.0 M544.0,336.0 L544.0,336.0 M912.0,336.0 L912.0,336.0 M920.0,336.0 L912.0,336.0 M920.0,336.0 L928.0,328.0 M544.0,336.0 L552.0,344.0 M560.0,344.0 L552.0,344.0 M568.0,344.0 L560.0,344.0 M568.0,344.0 L568.0,344.0 M904.0,344.0 L904.0,344.0 M904.0,344.0 L912.0,336.0 M568.0,344.0 L576.0,352.0 M584.0,352.0 L576.0,352.0 M592.0,352.0 L584.0,352.0 M600.0,352.0 L592.0,352.0 M600.0,352.0 L600.0,352.0 M896.0,352.0 L896.0,352.0 M896.0,352.0 L904.0,344.0 M600.0,352.0 L608.0,360.0 M608.0,360.0 L608.0,360.0 M848.0,360.0 L848.0,360.0 M856.0,360.0 L848.0,360.0 M864.0,360.0 L856.0,360.0 M872.0,360.0 L864.0,360.0 M880.0,360.0 L872.0,360.0 M888.0,360.0 L880.0,360.0 M888.0,360.0 L896.0,352.0 M608.0,360.0 L616.0,368.0 M616.0,368.0 L616.0,368.0 M840.0,368.0 L840.0,368.0 M840.0,368.0 L848.0,360.0 M616.0,368.0 L624.0,376.0 M632.0,376.0 L624.0,376.0 M640.0,376.0 L632.0,376.0 M648.0,376.0 L640.0,376.0 M656.0,376.0 L648.0,376.0 M664.0,376.0 L656.0,376.0 M672.0,376.0 L664.0,376.0 M672.0,376.0 L672.0,376.0 M688.0,376.0 L688.0,376.0 M696.0,376.0 L688.0,376.0 M704.0,376.0 L696.0,376.0 M712.0,376.0 L704.0,376.0 M720.0,376.0 L712.0,376.0 M728.0,376.0 L720.0,376.0 M736.0,376.0 L728.0,376.0 M744.0,376.0 L736.0,376.0 M752.0,376.0 L744.0,376.0 M752.0,376.0 L752.0,376.0 M824.0,376.0 L824.0,376.0 M832.0,376.0 L824.0,376.0 M832.0,376.0 L840.0,368.0 M672.0,376.0 L680.0,384.0 M680.0,384.0 L688.0,376.0 M752.0,376.0 L760.0,384.0 M760.0,384.0 L760.0,384.0 M800.0,384.0 L800.0,384.0 M808.0,384.0 L800.0,384.0 M816.0,384.0 L808.0,384.0 M816.0,384.0 L824.0,376.0 M760.0,384.0 L768.0,392.0 M776.0,392.0 L768.0,392.0 M784.0,392.0 L776.0,392.0 M792.0,392.0 L784.0,392.0 M792.0,392.0 L800.0,384.0 M1808.0,952.0 L1800.0,960.0 M1808.0,952.0 L1816.0,952.0 M1816.0,952.0 L1824.0,952.0 M1824.0,952.0 L1832.0,952.0 M1832.0,952.0 L1840.0,960.0 M1704.0,960.0 L1696.0,968.0 M1704.0,960.0 L1712.0,960.0 M1712.0,960.0 L1720.0,968.0 M1752.0,960.0 L1744.0,968.0 M1752.0,960.0 L1760.0,960.0 M1760.0,960.0 L1768.0,960.0 M1768.0,960.0 L1776.0,960.0 M1776.0,960.0 L1784.0,960.0 M1784.0,960.0 L1792.0,960.0 M1792.0,960.0 L1800.0,960.0 M1800.0,960.0 L1800.0,960.0 M1840.0,960.0 L1840.0,960.0 M1840.0,960.0 L1848.0,960.0 M1848.0,960.0 L1856.0,968.0 M1696.0,968.0 L1688.0,976.0 M1696.0,968.0 L1696.0,968.0 M1720.0,968.0 L1720.0,968.0 M1720.0,968.0 L1728.0,976.0 M1744.0,968.0 L1744.0,976.0 M1856.0,968.0 L1856.0,968.0 M1856.0,968.0 L1864.0,976.0 M1688.0,976.0 L1688.0,984.0 M1728.0,976.0 L1728.0,976.0 M1728.0,976.0 L1736.0,976.0 M1736.0,976.0 L1744.0,976.0 M1744.0,976.0 L1744.0,976.0 M1864.0,976.0 L1864.0,976.0 M1864.0,976.0 L1872.0,976.0 M1872.0,976.0 L1880.0,976.0 M1880.0,976.0 L1888.0,984.0 M1680.0,984.0 L1672.0,992.0 M1680.0,984.0 L1688.0,984.0 M1688.0,984.0 L1688.0,984.0 M1888.0,984.0 L1888.0,984.0 M1888.0,984.0 L1896.0,992.0 M1496.0,992.0 L1488.0,1000.0 M1496.0,992.0 L1504.0,992.0 M1504.0,992.0 L1512.0,992.0 M1512.0,992.0 L1520.0,992.0 M1520.0,992.0 L1528.0,992.0 M1528.0,992.0 L1536.0,1000.0 M1552.0,992.0 L1544.0,1000.0 M1552.0,992.0 L1560.0,992.0 M1560.0,992.0 L1568.0,992.0 M1568.0,992.0 L1576.0,992.0 M1576.0,992.0 L1584.0,992.0 M1584.0,992.0 L1592.0,992.0 M1592.0,992.0 L1600.0,992.0 M1600.0,992.0 L1608.0,992.0 M1608.0,992.0 L1616.0,992.0 M1616.0,992.0 L1624.0,992.0 M1624.0,992.0 L1632.0,992.0 M1632.0,992.0 L1640.0,992.0 M1640.0,992.0 L1648.0,1000.0 M1664.0,992.0 L1656.0,1000.0 M1664.0,992.0 L1672.0,992.0 M1672.0,992.0 L1672.0,992.0 M1896.0,992.0 L1896.0,992.0 M1896.0,992.0 L1904.0,1000.0 M1480.0,1000.0 L1472.0,1008.0 M1480.0,1000.0 L1488.0,1000.0 M1488.0,1000.0 L1488.0,1000.0 M1536.0,1000.0 L1536.0,1000.0 M1536.0,1000.0 L1544.0,1000.0 M1544.0,1000.0 L1544.0,1000.0 M1648.0,1000.0 L1648.0,1000.0 M1648.0,1000.0 L1656.0,1000.0 M1656.0,1000.0 L1656.0,1000.0 M1904.0,1000.0 L1904.0,1008.0 M1472.0,1008.0 L1464.0,1016.0 M1472.0,1008.0 L1472.0,1008.0 M1904.0,1008.0 L1904.0,1008.0 M1904.0,1008.0 L1912.0,1016.0 M1464.0,1016.0 L1464.0,1024.0 M1912.0,1016.0 L1912.0,1016.0 M1912.0,1016.0 L1920.0,1024.0 M1464.0,1024.0 L1456.0,1032.0 M1464.0,1024.0 L1464.0,1024.0 M1920.0,1024.0 L1920.0,1024.0 M1920.0,1024.0 L1928.0,1024.0 M1928.0,1024.0 L1936.0,1032.0 M1456.0,1032.0 L1448.0,1040.0 M1456.0,1032.0 L1456.0,1032.0 M1936.0,1032.0 L1936.0,1032.0 M1936.0,1032.0 L1944.0,1040.0 M1440.0,1040.0 L1432.0,1048.0 M1440.0,1040.0 L1448.0,1040.0 M1448.0,1040.0 L1448.0,1040.0 M1944.0,1040.0 L1944.0,1040.0 M1944.0,1040.0 L1952.0,1048.0 M1424.0,1048.0 L1416.0,1056.0 M1424.0,1048.0 L1432.0,1048.0 M1432.0,1048.0 L1432.0,1048.0 M1952.0,1048.0 L1952.0,1048.0 M1952.0,1048.0 L1960.0,1056.0 M1416.0,1056.0 L1416.0,1064.0 M1960.0,1056.0 L1960.0,1056.0 M1960.0,1056.0 L1968.0,1064.0 M1416.0,1064.0 L1408.0,1072.0 M1416.0,1064.0 L1416.0,1064.0 M1968.0,1064.0 L1968.0,1072.0 M2112.0,1064.0 L2104.0,1072.0 M2112.0,1064.0 L2120.0,1064.0 M2120.0,1064.0 L2128.0,1064.0 M2128.0,1064.0 L2136.0,1064.0 M2136.0,1064.0 L2144.0,1072.0 M2160.0,1064.0 L2152.0,1072.0 M2160.0,1064.0 L2168.0,1064.0 M2168.0,1064.0 L2176.0,1064.0 M2176.0,1064.0 L2184.0,1072.0 M1408.0,1072.0 L1400.0,1080.0 M1408.0,1072.0 L1408.0,1072.0 M1968.0,1072.0 L1968.0,1072.0 M1968.0,1072.0 L1976.0,1080.0 M2104.0,1072.0 L2104.0,1080.0 M2144.0,1072.0 L2144.0,1072.0 M2144.0,1072.0 L2152.0,1072.0 M2152.0,1072.0 L2152.0,1072.0 M2184.0,1072.0 L2184.0,1072.0 M2184.0,1072.0 L2192.0,1080.0 M1400.0,1080.0 L1392.0,1088.0 M1400.0,1080.0 L1400.0,1080.0 M1976.0,1080.0 L1976.0,1080.0 M1976.0,1080.0 L1984.0,1088.0 M2104.0,1080.0 L2104.0,1088.0 M2192.0,1080.0 L2192.0,1080.0 M1392.0,1088.0 L1392.0,1096.0 M1984.0,1088.0 L1984.0,1088.0 M1984.0,1088.0 L1992.0,1096.0 M2104.0,1088.0 L2112.0,1096.0 M2112.0,1096.0 L2112.0,1096.0 M1392.0,1096.0 L1384.0,1104.0 M1392.0,1096.0 L1392.0,1096.0 M1992.0,1096.0 L1992.0,1096.0 M1992.0,1096.0 L2000.0,1104.0 M2112.0,1096.0 L2112.0,1104.0 M1384.0,1104.0 L1384.0,1112.0 M2000.0,1104.0 L2000.0,1104.0 M2000.0,1104.0 L2008.0,1112.0 M2112.0,1104.0 L2120.0,1112.0 M2120.0,1112.0 L2120.0,1112.0 M1384.0,1112.0 L1376.0,1120.0 M1384.0,1112.0 L1384.0,1112.0 M2008.0,1112.0 L2008.0,1112.0 M2008.0,1112.0 L2016.0,1112.0 M2016.0,1112.0 L2024.0,1120.0 M2120.0,1112.0 L2128.0,1120.0 M2128.0,1120.0 L2128.0,1120.0 M2160.0,1120.0 L2160.0,1120.0 M2168.0,1120.0 L2160.0,1120.0 M2168.0,1120.0 L2168.0,1120.0 M1376.0,1120.0 L1376.0,1128.0 M2024.0,1120.0 L2024.0,1120.0 M2024.0,1120.0 L2032.0,1120.0 M2032.0,1120.0 L2040.0,1120.0 M2040.0,1120.0 L2048.0,1120.0 M2048.0,1120.0 L2056.0,1120.0 M2056.0,1120.0 L2064.0,1128.0 M2128.0,1120.0 L2136.0,1128.0 M2144.0,1128.0 L2136.0,1128.0 M2152.0,1128.0 L2144.0,1128.0 M2152.0,1128.0 L2160.0,1120.0 M2168.0,1120.0 L2168.0,1128.0 M1328.0,1128.0 L1320.0,1136.0 M1328.0,1128.0 L1336.0,1128.0 M1336.0,1128.0 L1344.0,1128.0 M1344.0,1128.0 L1352.0,1128.0 M1352.0,1128.0 L1360.0,1128.0 M1360.0,1128.0 L1368.0,1136.0 M1376.0,1128.0 L1376.0,1136.0 M2064.0,1128.0 L2064.0,1128.0 M2064.0,1128.0 L2072.0,1128.0 M2072.0,1128.0 L2080.0,1128.0 M2080.0,1128.0 L2088.0,1136.0 M2168.0,1128.0 L2168.0,1136.0 M1320.0,1136.0 L1312.0,1144.0 M1320.0,1136.0 L1320.0,1136.0 M1368.0,1136.0 L1368.0,1136.0 M1368.0,1136.0 L1376.0,1136.0 M1376.0,1136.0 L1376.0,1136.0 M2088.0,1136.0 L2088.0,1144.0 M2168.0,1136.0 L2176.0,1144.0 M2184.0,1144.0 L2176.0,1144.0 M2192.0,1144.0 L2184.0,1144.0 M1312.0,1144.0 L1304.0,1152.0 M1312.0,1144.0 L1312.0,1144.0 M2088.0,1144.0 L2088.0,1144.0 M2088.0,1144.0 L2096.0,1152.0 M2144.0,1144.0 L2136.0,1152.0 M2144.0,1144.0 L2152.0,1152.0 M1232.0,1152.0 L1224.0,1160.0 M1232.0,1152.0 L1240.0,1152.0 M1240.0,1152.0 L1248.0,1152.0 M1248.0,1152.0 L1256.0,1152.0 M1256.0,1152.0 L1264.0,1152.0 M1264.0,1152.0 L1272.0,1152.0 M1272.0,1152.0 L1280.0,1152.0 M1280.0,1152.0 L1288.0,1152.0 M1288.0,1152.0 L1296.0,1152.0 M1296.0,1152.0 L1304.0,1152.0 M1304.0,1152.0 L1304.0,1152.0 M2096.0,1152.0 L2096.0,1152.0 M2096.0,1152.0 L2104.0,1160.0 M2136.0,1152.0 L2128.0,1160.0 M2136.0,1152.0 L2136.0,1152.0 M2152.0,1152.0 L2152.0,1160.0 M1224.0,1160.0 L1216.0,1168.0 M1224.0,1160.0 L1224.0,1160.0 M2096.0,1168.0 L2096.0,1168.0 M2096.0,1168.0 L2104.0,1160.0 M2128.0,1160.0 L2136.0,1168.0 M2144.0,1168.0 L2136.0,1168.0 M2144.0,1168.0 L2152.0,1160.0 M1216.0,1168.0 L1216.0,1176.0 M2096.0,1168.0 L2096.0,1176.0 M1216.0,1176.0 L1208.0,1184.0 M1216.0,1176.0 L1216.0,1176.0 M2096.0,1176.0 L2096.0,1184.0 M1208.0,1184.0 L1200.0,1192.0 M1208.0,1184.0 L1208.0,1184.0 M2096.0,1184.0 L2096.0,1192.0 M1200.0,1192.0 L1192.0,1200.0 M1200.0,1192.0 L1200.0,1192.0 M2096.0,1192.0 L2096.0,1192.0 M2096.0,1192.0 L2104.0,1192.0 M2104.0,1192.0 L2112.0,1200.0 M1192.0,1200.0 L1192.0,1208.0 M2112.0,1200.0 L2112.0,1200.0 M2112.0,1200.0 L2120.0,1208.0 M1192.0,1208.0 L1184.0,1216.0 M1192.0,1208.0 L1192.0,1208.0 M2120.0,1208.0 L2120.0,1208.0 M2120.0,1208.0 L2128.0,1216.0 M1184.0,1216.0 L1184.0,1224.0 M2128.0,1216.0 L2128.0,1216.0 M2128.0,1216.0 L2136.0,1216.0 M2136.0,1216.0 L2144.0,1224.0 M1184.0,1224.0 L1184.0,1232.0 M2144.0,1224.0 L2144.0,1224.0 M2144.0,1224.0 L2152.0,1224.0 M2152.0,1224.0 L2160.0,1232.0 M1184.0,1232.0 L1192.0,1240.0 M1192.0,1240.0 L1192.0,1240.0 M2160.0,1232.0 L2160.0,1232.0 M2160.0,1232.0 L2168.0,1232.0 M2168.0,1232.0 L2176.0,1240.0 M1192.0,1240.0 L1192.0,1248.0 M2176.0,1240.0 L2176.0,1240.0 M2176.0,1240.0 L2184.0,1248.0 M1192.0,1248.0 L1192.0,1256.0 M2184.0,1248.0 L2184.0,1248.0 M2184.0,1248.0 L2192.0,1256.0 M1192.0,1256.0 L1200.0,1264.0 M1200.0,1264.0 L1200.0,1264.0 M2192.0,1256.0 L2192.0,1256.0 M1200.0,1264.0 L1200.0,1272.0 M1200.0,1272.0 L1200.0,1280.0 M1200.0,1280.0 L1200.0,1288.0 M1200.0,1288.0 L1200.0,1296.0 M1200.0,1296.0 L1200.0,1304.0 M1200.0,1304.0 L1208.0,1312.0 M1208.0,1312.0 L1208.0,1312.0 M1208.0,1312.0 L1208.0,1320.0 M1208.0,1320.0 L1208.0,1328.0 M1208.0,1328.0 L1208.0,1336.0 M1208.0,1336.0 L1208.0,1344.0 M1208.0,1344.0 L1216.0,1352.0 M1216.0,1352.0 L1216.0,1352.0 M1216.0,1352.0 L1216.0,1360.0 M1216.0,1360.0 L1224.0,1368.0 M1224.0,1368.0 L1224.0,1368.0 M1224.0,1368.0 L1224.0,1376.0 M1224.0,1376.0 L1232.0,1384.0 M1232.0,1384.0 L1232.0,1384.0 M1232.0,1384.0 L1232.0,1392.0 M1232.0,1392.0 L1240.0,1400.0 M1240.0,1400.0 L1240.0,1400.0 M1240.0,1400.0 L1240.0,1408.0 M1240.0,1408.0 L1248.0,1416.0 M1248.0,1416.0 L1248.0,1416.0 M1248.0,1416.0 L1248.0,1424.0 M1248.0,1424.0 L1248.0,1432.0 M1248.0,1432.0 L1256.0,1440.0 M1256.0,1440.0 L1256.0,1440.0 M1256.0,1440.0 L1264.0,1448.0 M1264.0,1448.0 L1264.0,1448.0 M1264.0,1448.0 L1264.0,1456.0 M1264.0,1456.0 L1272.0,1464.0 M1272.0,1464.0 L1272.0,1464.0 M2008.0,1464.0 L2008.0,1464.0 M2016.0,1464.0 L2008.0,1464.0 M2024.0,1464.0 L2016.0,1464.0 M2032.0,1464.0 L2024.0,1464.0 M2032.0,1464.0 L2032.0,1464.0 M1272.0,1464.0 L1280.0,1472.0 M1280.0,1472.0 L1280.0,1472.0 M2008.0,1464.0 L2008.0,1464.0 M2008.0,1464.0 L2016.0,1472.0 M2032.0,1464.0 L2032.0,1472.0 M1280.0,1472.0 L1288.0,1480.0 M1288.0,1480.0 L1288.0,1480.0 M2016.0,1472.0 L2016.0,1472.0 M2016.0,1472.0 L2024.0,1480.0 M2032.0,1472.0 L2040.0,1480.0 M2040.0,1480.0 L2040.0,1480.0 M1288.0,1480.0 L1296.0,1488.0 M1296.0,1488.0 L1296.0,1488.0 M2024.0,1480.0 L2024.0,1480.0 M2024.0,1480.0 L2032.0,1480.0 M2032.0,1480.0 L2040.0,1488.0 M2040.0,1480.0 L2048.0,1488.0 M2048.0,1488.0 L2048.0,1488.0 M1296.0,1488.0 L1304.0,1496.0 M1304.0,1496.0 L1304.0,1496.0 M2040.0,1488.0 L2040.0,1488.0 M2040.0,1488.0 L2048.0,1488.0 M2048.0,1488.0 L2048.0,1488.0 M1304.0,1496.0 L1312.0,1504.0 M1312.0,1504.0 L1312.0,1504.0 M1312.0,1504.0 L1320.0,1512.0 M1320.0,1512.0 L1320.0,1512.0 M1320.0,1512.0 L1328.0,1520.0 M1328.0,1520.0 L1328.0,1520.0 M1328.0,1520.0 L1328.0,1528.0 M1328.0,1528.0 L1336.0,1536.0 M1336.0,1536.0 L1336.0,1536.0 M2080.0,1536.0 L2080.0,1536.0 M2088.0,1536.0 L2080.0,1536.0 M2096.0,1536.0 L2088.0,1536.0 M2096.0,1536.0 L2096.0,1536.0 M1336.0,1536.0 L1336.0,1544.0 M2072.0,1544.0 L2072.0,1544.0 M2072.0,1544.0 L2080.0,1536.0 M2096.0,1536.0 L2096.0,1544.0 M1336.0,1544.0 L1344.0,1552.0 M1344.0,1552.0 L1344.0,1552.0 M2072.0,1544.0 L2072.0,1552.0 M2096.0,1544.0 L2096.0,1552.0 M1344.0,1552.0 L1352.0,1560.0 M1352.0,1560.0 L1352.0,1560.0 M2072.0,1552.0 L2072.0,1552.0 M2072.0,1552.0 L2080.0,1552.0 M2080.0,1552.0 L2088.0,1560.0 M2096.0,1552.0 L2088.0,1560.0 M2096.0,1552.0 L2096.0,1552.0 M1352.0,1560.0 L1360.0,1568.0 M1360.0,1568.0 L1360.0,1568.0 M2088.0,1560.0 L2088.0,1560.0 M2088.0,1560.0 L2088.0,1560.0 M1360.0,1568.0 L1368.0,1576.0 M1368.0,1576.0 L1368.0,1576.0 M1368.0,1576.0 L1376.0,1584.0 M1376.0,1584.0 L1376.0,1584.0 M1376.0,1584.0 L1384.0,1592.0 M1384.0,1592.0 L1384.0,1592.0 M1384.0,1592.0 L1392.0,1600.0 M1400.0,1600.0 L1392.0,1600.0 M1400.0,1600.0 L1400.0,1600.0 M1400.0,1600.0 L1408.0,1608.0 M1408.0,1608.0 L1408.0,1608.0 M1408.0,1608.0 L1416.0,1616.0 M1424.0,1616.0 L1416.0,1616.0 M1432.0,1616.0 L1424.0,1616.0 M1432.0,1616.0 L1432.0,1616.0 M1432.0,1616.0 L1440.0,1624.0 M1440.0,1624.0 L1440.0,1624.0 M1440.0,1624.0 L1448.0,1632.0 M1456.0,1632.0 L1448.0,1632.0 M1456.0,1632.0 L1456.0,1632.0 M1696.0,8.0 L1696.0,8.0 M1704.0,8.0 L1696.0,8.0 M1704.0,8.0 L1712.0,0.0 M1688.0,16.0 L1688.0,16.0 M1688.0,16.0 L1696.0,8.0 M1672.0,24.0 L1672.0,24.0 M1680.0,24.0 L1672.0,24.0 M1680.0,24.0 L1688.0,16.0 M1664.0,32.0 L1664.0,32.0 M1664.0,32.0 L1672.0,24.0 M1656.0,40.0 L1656.0,40.0 M1656.0,40.0 L1664.0,32.0 M1648.0,48.0 L1648.0,48.0 M1648.0,48.0 L1656.0,40.0 M1632.0,56.0 L1632.0,56.0 M1640.0,56.0 L1632.0,56.0 M1640.0,56.0 L1648.0,48.0 M1616.0,64.0 L1616.0,64.0 M1624.0,64.0 L1616.0,64.0 M1624.0,64.0 L1632.0,56.0 M1608.0,72.0 L1608.0,72.0 M1608.0,72.0 L1616.0,64.0 M1600.0,80.0 L1600.0,80.0 M1600.0,80.0 L1608.0,72.0 M1592.0,88.0 L1592.0,88.0 M1592.0,88.0 L1600.0,80.0 M1584.0,96.0 L1584.0,96.0 M1584.0,96.0 L1592.0,88.0 M1576.0,104.0 L1576.0,104.0 M1576.0,104.0 L1584.0,96.0 M1568.0,112.0 L1568.0,112.0 M1568.0,112.0 L1576.0,104.0 M1560.0,120.0 L1560.0,120.0 M1560.0,120.0 L1568.0,112.0 M1552.0,128.0 L1552.0,128.0 M1552.0,128.0 L1560.0,120.0 M1544.0,136.0 L1544.0,136.0 M1544.0,136.0 L1552.0,128.0 M1536.0,144.0 L1536.0,144.0 M1536.0,144.0 L1544.0,136.0 M1528.0,152.0 L1528.0,152.0 M1528.0,152.0 L1536.0,144.0 M1528.0,152.0 L1528.0,160.0 M1528.0,160.0 L1528.0,168.0 M1520.0,176.0 L1520.0,176.0 M1520.0,176.0 L1528.0,168.0 M1520.0,176.0 L1520.0,184.0 M1520.0,184.0 L1520.0,192.0 M1520.0,192.0 L1520.0,200.0 M1512.0,208.0 L1512.0,208.0 M1512.0,208.0 L1520.0,200.0 M1504.0,216.0 L1504.0,216.0 M1504.0,216.0 L1512.0,208.0 M1504.0,216.0 L1504.0,224.0 M1496.0,232.0 L1496.0,232.0 M1496.0,232.0 L1504.0,224.0 M1488.0,240.0 L1488.0,240.0 M1488.0,240.0 L1496.0,232.0 M1480.0,248.0 L1480.0,248.0 M1480.0,248.0 L1488.0,240.0 M1472.0,256.0 L1472.0,256.0 M1472.0,256.0 L1480.0,248.0 M1472.0,256.0 L1472.0,264.0 M1464.0,272.0 L1464.0,272.0 M1464.0,272.0 L1472.0,264.0 M1456.0,280.0 L1456.0,280.0 M1456.0,280.0 L1464.0,272.0 M1448.0,288.0 L1448.0,288.0 M1448.0,288.0 L1456.0,280.0 M1448.0,288.0 L1448.0,296.0 M1440.0,304.0 L1440.0,304.0 M1440.0,304.0 L1448.0,296.0 M1432.0,312.0 L1432.0,312.0 M1432.0,312.0 L1440.0,304.0 M1432.0,312.0 L1432.0,320.0 M1424.0,328.0 L1424.0,328.0 M1424.0,328.0 L1432.0,320.0 M1416.0,336.0 L1416.0,336.0 M1416.0,336.0 L1424.0,328.0 M1408.0,344.0 L1408.0,344.0 M1408.0,344.0 L1416.0,336.0 M1408.0,344.0 L1408.0,352.0 M1400.0,360.0 L1400.0,360.0 M1400.0,360.0 L1408.0,352.0 M1384.0,368.0 L1384.0,368.0 M1392.0,368.0 L1384.0,368.0 M1392.0,368.0 L1400.0,360.0 M1376.0,376.0 L1376.0,376.0 M1376.0,376.0 L1384.0,368.0 M1368.0,384.0 L1368.0,384.0 M1368.0,384.0 L1376.0,376.0 M1360.0,392.0 L1360.0,392.0 M1360.0,392.0 L1368.0,384.0 M1352.0,400.0 L1352.0,400.0 M1352.0,400.0 L1360.0,392.0 M1344.0,408.0 L1344.0,408.0 M1344.0,408.0 L1352.0,400.0 M1328.0,416.0 L1328.0,416.0 M1336.0,416.0 L1328.0,416.0 M1336.0,416.0 L1344.0,408.0 M1320.0,424.0 L1320.0,424.0 M1320.0,424.0 L1328.0,416.0 M1312.0,432.0 L1312.0,432.0 M1312.0,432.0 L1320.0,424.0 M1304.0,440.0 L1304.0,440.0 M1304.0,440.0 L1312.0,432.0 M1304.0,440.0 L1304.0,448.0 M1296.0,456.0 L1296.0,456.0 M1296.0,456.0 L1304.0,448.0 M8.0,464.0 L0.0,464.0 M16.0,464.0 L8.0,464.0 M16.0,464.0 L16.0,464.0 M1280.0,464.0 L1280.0,464.0 M1288.0,464.0 L1280.0,464.0 M1288.0,464.0 L1296.0,456.0 M16.0,464.0 L24.0,472.0 M32.0,472.0 L24.0,472.0 M32.0,472.0 L32.0,472.0 M1272.0,472.0 L1272.0,472.0 M1272.0,472.0 L1280.0,464.0 M32.0,472.0 L40.0,480.0 M48.0,480.0 L40.0,480.0 M48.0,480.0 L48.0,480.0 M1264.0,480.0 L1264.0,480.0 M1264.0,480.0 L1272.0,472.0 M48.0,480.0 L56.0,488.0 M56.0,488.0 L56.0,488.0 M1248.0,488.0 L1248.0,488.0 M1256.0,488.0 L1248.0,488.0 M1256.0,488.0 L1264.0,480.0 M56.0,488.0 L64.0,496.0 M72.0,496.0 L64.0,496.0 M72.0,496.0 L72.0,496.0 M1240.0,496.0 L1240.0,496.0 M1240.0,496.0 L1248.0,488.0 M72.0,496.0 L80.0,504.0 M88.0,504.0 L80.0,504.0 M88.0,504.0 L88.0,504.0 M1232.0,504.0 L1232.0,504.0 M1232.0,504.0 L1240.0,496.0 M88.0,504.0 L96.0,512.0 M96.0,512.0 L96.0,512.0 M1224.0,512.0 L1224.0,512.0 M1224.0,512.0 L1232.0,504.0 M96.0,512.0 L104.0,520.0 M112.0,520.0 L104.0,520.0 M112.0,520.0 L112.0,520.0 M1216.0,520.0 L1216.0,520.0 M1216.0,520.0 L1224.0,512.0 M112.0,520.0 L120.0,528.0 M128.0,528.0 L120.0,528.0 M128.0,528.0 L128.0,528.0 M1192.0,528.0 L1192.0,528.0 M1200.0,528.0 L1192.0,528.0 M1208.0,528.0 L1200.0,528.0 M1208.0,528.0 L1216.0,520.0 M128.0,528.0 L136.0,536.0 M136.0,536.0 L136.0,536.0 M1168.0,536.0 L1168.0,536.0 M1176.0,536.0 L1168.0,536.0 M1184.0,536.0 L1176.0,536.0 M1184.0,536.0 L1192.0,528.0 M136.0,536.0 L144.0,544.0 M144.0,544.0 L144.0,544.0 M1144.0,544.0 L1144.0,544.0 M1152.0,544.0 L1144.0,544.0 M1160.0,544.0 L1152.0,544.0 M1160.0,544.0 L1168.0,536.0 M144.0,544.0 L152.0,552.0 M160.0,552.0 L152.0,552.0 M160.0,552.0 L160.0,552.0 M1136.0,552.0 L1136.0,552.0 M1136.0,552.0 L1144.0,544.0 M160.0,552.0 L168.0,560.0 M168.0,560.0 L168.0,560.0 M1080.0,560.0 L1080.0,560.0 M1088.0,560.0 L1080.0,560.0 M1096.0,560.0 L1088.0,560.0 M1104.0,560.0 L1096.0,560.0 M1112.0,560.0 L1104.0,560.0 M1120.0,560.0 L1112.0,560.0 M1128.0,560.0 L1120.0,560.0 M1128.0,560.0 L1136.0,552.0 M168.0,560.0 L176.0,568.0 M176.0,568.0 L176.0,568.0 M1064.0,568.0 L1064.0,568.0 M1072.0,568.0 L1064.0,568.0 M1072.0,568.0 L1080.0,560.0 M176.0,568.0 L176.0,576.0 M1048.0,576.0 L1048.0,576.0 M1056.0,576.0 L1048.0,576.0 M1056.0,576.0 L1064.0,568.0 M176.0,576.0 L184.0,584.0 M184.0,584.0 L184.0,584.0 M1032.0,584.0 L1032.0,584.0 M1040.0,584.0 L1032.0,584.0 M1040.0,584.0 L1048.0,576.0 M184.0,584.0 L192.0,592.0 M200.0,592.0 L192.0,592.0 M200.0,592.0 L200.0,592.0 M1008.0,592.0 L1008.0,592.0 M1016.0,592.0 L1008.0,592.0 M1024.0,592.0 L1016.0,592.0 M1024.0,592.0 L1032.0,584.0 M200.0,592.0 L200.0,600.0 M1000.0,600.0 L1000.0,600.0 M1000.0,600.0 L1008.0,592.0 M200.0,600.0 L208.0,608.0 M216.0,608.0 L208.0,608.0 M216.0,608.0 L216.0,608.0 M992.0,608.0 L992.0,608.0 M992.0,608.0 L1000.0,600.0 M216.0,608.0 L224.0,616.0 M224.0,616.0 L224.0,616.0 M976.0,616.0 L976.0,616.0 M984.0,616.0 L976.0,616.0 M984.0,616.0 L992.0,608.0 M224.0,616.0 L232.0,624.0 M232.0,624.0 L232.0,624.0 M952.0,624.0 L952.0,624.0 M960.0,624.0 L952.0,624.0 M968.0,624.0 L960.0,624.0 M968.0,624.0 L976.0,616.0 M232.0,624.0 L240.0,632.0 M240.0,632.0 L240.0,632.0 M944.0,632.0 L944.0,632.0 M944.0,632.0 L952.0,624.0 M240.0,632.0 L248.0,640.0 M248.0,640.0 L248.0,640.0 M920.0,640.0 L920.0,640.0 M928.0,640.0 L920.0,640.0 M936.0,640.0 L928.0,640.0 M936.0,640.0 L944.0,632.0 M248.0,640.0 L256.0,648.0 M264.0,648.0 L256.0,648.0 M264.0,648.0 L264.0,648.0 M904.0,648.0 L904.0,648.0 M912.0,648.0 L904.0,648.0 M912.0,648.0 L920.0,640.0 M264.0,648.0 L272.0,656.0 M272.0,656.0 L272.0,656.0 M880.0,656.0 L880.0,656.0 M888.0,656.0 L880.0,656.0 M896.0,656.0 L888.0,656.0 M896.0,656.0 L904.0,648.0 M272.0,656.0 L280.0,664.0 M280.0,664.0 L280.0,664.0 M864.0,664.0 L864.0,664.0 M872.0,664.0 L864.0,664.0 M872.0,664.0 L880.0,656.0 M280.0,664.0 L288.0,672.0 M288.0,672.0 L288.0,672.0 M848.0,672.0 L848.0,672.0 M856.0,672.0 L848.0,672.0 M856.0,672.0 L864.0,664.0 M288.0,672.0 L296.0,680.0 M296.0,680.0 L296.0,680.0 M832.0,680.0 L832.0,680.0 M840.0,680.0 L832.0,680.0 M840.0,680.0 L848.0,672.0 M2104.0,672.0 L2096.0,680.0 M2104.0,672.0 L2112.0,672.0 M2112.0,672.0 L2120.0,672.0 M2120.0,672.0 L2128.0,672.0 M2128.0,672.0 L2136.0,672.0 M2136.0,672.0 L2144.0,672.0 M2144.0,672.0 L2152.0,672.0 M2152.0,672.0 L2160.0,680.0 M296.0,680.0 L304.0,688.0 M304.0,688.0 L304.0,688.0 M808.0,688.0 L808.0,688.0 M816.0,688.0 L808.0,688.0 M824.0,688.0 L816.0,688.0 M824.0,688.0 L832.0,680.0 M2096.0,680.0 L2088.0,688.0 M2096.0,680.0 L2096.0,680.0 M2160.0,680.0 L2160.0,680.0 M2160.0,680.0 L2168.0,688.0 M304.0,688.0 L312.0,696.0 M320.0,696.0 L312.0,696.0 M320.0,696.0 L320.0,696.0 M776.0,696.0 L776.0,696.0 M784.0,696.0 L776.0,696.0 M792.0,696.0 L784.0,696.0 M800.0,696.0 L792.0,696.0 M800.0,696.0 L808.0,688.0 M2088.0,688.0 L2080.0,696.0 M2088.0,688.0 L2088.0,688.0 M2168.0,688.0 L2168.0,688.0 M2168.0,688.0 L2176.0,688.0 M2176.0,688.0 L2184.0,688.0 M2184.0,688.0 L2192.0,688.0 M320.0,696.0 L328.0,704.0 M336.0,704.0 L328.0,704.0 M336.0,704.0 L336.0,704.0 M760.0,704.0 L760.0,704.0 M768.0,704.0 L760.0,704.0 M768.0,704.0 L776.0,696.0 M2080.0,696.0 L2072.0,704.0 M2080.0,696.0 L2080.0,696.0 M336.0,704.0 L344.0,712.0 M352.0,712.0 L344.0,712.0 M352.0,712.0 L352.0,712.0 M744.0,712.0 L744.0,712.0 M752.0,712.0 L744.0,712.0 M752.0,712.0 L760.0,704.0 M2064.0,704.0 L2056.0,712.0 M2064.0,704.0 L2072.0,704.0 M2072.0,704.0 L2072.0,704.0 M352.0,712.0 L360.0,720.0 M360.0,720.0 L360.0,720.0 M736.0,720.0 L736.0,720.0 M736.0,720.0 L744.0,712.0 M2048.0,712.0 L2040.0,720.0 M2048.0,712.0 L2056.0,712.0 M2056.0,712.0 L2056.0,712.0 M360.0,720.0 L368.0,728.0 M368.0,728.0 L368.0,728.0 M720.0,728.0 L720.0,728.0 M728.0,728.0 L720.0,728.0 M728.0,728.0 L736.0,720.0 M2040.0,720.0 L2032.0,728.0 M2040.0,720.0 L2040.0,720.0 M368.0,728.0 L376.0,736.0 M376.0,736.0 L376.0,736.0 M704.0,736.0 L704.0,736.0 M712.0,736.0 L704.0,736.0 M712.0,736.0 L720.0,728.0 M2024.0,728.0 L2016.0,736.0 M2024.0,728.0 L2032.0,728.0 M2032.0,728.0 L2032.0,728.0 M376.0,736.0 L384.0,744.0 M392.0,744.0 L384.0,744.0 M392.0,744.0 L392.0,744.0 M696.0,744.0 L696.0,744.0 M696.0,744.0 L704.0,736.0 M2016.0,736.0 L2008.0,744.0 M2016.0,736.0 L2016.0,736.0 M392.0,744.0 L400.0,752.0 M400.0,752.0 L400.0,752.0 M680.0,752.0 L680.0,752.0 M688.0,752.0 L680.0,752.0 M688.0,752.0 L696.0,744.0 M2008.0,744.0 L2000.0,752.0 M2008.0,744.0 L2008.0,744.0 M400.0,752.0 L408.0,760.0 M416.0,760.0 L408.0,760.0 M416.0,760.0 L416.0,760.0 M664.0,760.0 L664.0,760.0 M672.0,760.0 L664.0,760.0 M672.0,760.0 L680.0,752.0 M2000.0,752.0 L1992.0,760.0 M2000.0,752.0 L2000.0,752.0 M416.0,760.0 L416.0,768.0 M656.0,768.0 L656.0,768.0 M656.0,768.0 L664.0,760.0 M1816.0,760.0 L1808.0,768.0 M1816.0,760.0 L1824.0,760.0 M1824.0,760.0 L1832.0,760.0 M1832.0,760.0 L1840.0,768.0 M1992.0,760.0 L1984.0,768.0 M1992.0,760.0 L1992.0,760.0 M416.0,768.0 L424.0,776.0 M424.0,776.0 L424.0,776.0 M648.0,776.0 L648.0,776.0 M648.0,776.0 L656.0,768.0 M1808.0,768.0 L1800.0,776.0 M1808.0,768.0 L1808.0,768.0 M1840.0,768.0 L1840.0,768.0 M1840.0,768.0 L1848.0,776.0 M1984.0,768.0 L1976.0,776.0 M1984.0,768.0 L1984.0,768.0 M424.0,776.0 L424.0,784.0 M640.0,784.0 L640.0,784.0 M640.0,784.0 L648.0,776.0 M1800.0,776.0 L1792.0,784.0 M1800.0,776.0 L1800.0,776.0 M1848.0,776.0 L1848.0,776.0 M1848.0,776.0 L1856.0,776.0 M1856.0,776.0 L1864.0,776.0 M1864.0,776.0 L1872.0,776.0 M1872.0,776.0 L1880.0,776.0 M1880.0,776.0 L1888.0,784.0 M1968.0,776.0 L1960.0,784.0 M1968.0,776.0 L1976.0,776.0 M1976.0,776.0 L1976.0,776.0 M424.0,784.0 L432.0,792.0 M432.0,792.0 L432.0,792.0 M616.0,792.0 L616.0,792.0 M624.0,792.0 L616.0,792.0 M632.0,792.0 L624.0,792.0 M632.0,792.0 L640.0,784.0 M1784.0,784.0 L1776.0,792.0 M1784.0,784.0 L1792.0,784.0 M1792.0,784.0 L1792.0,784.0 M1888.0,784.0 L1888.0,784.0 M1888.0,784.0 L1896.0,784.0 M1896.0,784.0 L1904.0,792.0 M1936.0,784.0 L1928.0,792.0 M1936.0,784.0 L1944.0,784.0 M1944.0,784.0 L1952.0,784.0 M1952.0,784.0 L1960.0,784.0 M1960.0,784.0 L1960.0,784.0 M432.0,792.0 L432.0,800.0 M592.0,800.0 L592.0,800.0 M600.0,800.0 L592.0,800.0 M608.0,800.0 L600.0,800.0 M608.0,800.0 L616.0,792.0 M1760.0,792.0 L1752.0,800.0 M1760.0,792.0 L1768.0,792.0 M1768.0,792.0 L1776.0,792.0 M1776.0,792.0 L1776.0,792.0 M1904.0,792.0 L1904.0,792.0 M1904.0,792.0 L1912.0,792.0 M1912.0,792.0 L1920.0,792.0 M1920.0,792.0 L1928.0,792.0 M1928.0,792.0 L1928.0,792.0 M432.0,800.0 L432.0,808.0 M576.0,808.0 L576.0,808.0 M584.0,808.0 L576.0,808.0 M584.0,808.0 L592.0,800.0 M1744.0,800.0 L1736.0,808.0 M1744.0,800.0 L1752.0,800.0 M1752.0,800.0 L1752.0,800.0 M432.0,808.0 L440.0,816.0 M440.0,816.0 L440.0,816.0 M568.0,816.0 L568.0,816.0 M568.0,816.0 L576.0,808.0 M1736.0,808.0 L1728.0,816.0 M1736.0,808.0 L1736.0,808.0 M440.0,816.0 L440.0,824.0 M560.0,824.0 L560.0,824.0 M560.0,824.0 L568.0,816.0 M1720.0,816.0 L1712.0,824.0 M1720.0,816.0 L1728.0,816.0 M1728.0,816.0 L1728.0,816.0 M440.0,824.0 L440.0,832.0 M544.0,832.0 L544.0,832.0 M552.0,832.0 L544.0,832.0 M552.0,832.0 L560.0,824.0 M1704.0,824.0 L1696.0,832.0 M1704.0,824.0 L1712.0,824.0 M1712.0,824.0 L1712.0,824.0 M440.0,832.0 L448.0,840.0 M448.0,840.0 L448.0,840.0 M528.0,840.0 L528.0,840.0 M536.0,840.0 L528.0,840.0 M536.0,840.0 L544.0,832.0 M1688.0,832.0 L1680.0,840.0 M1688.0,832.0 L1696.0,832.0 M1696.0,832.0 L1696.0,832.0 M448.0,840.0 L448.0,848.0 M520.0,848.0 L520.0,848.0 M520.0,848.0 L528.0,840.0 M1680.0,840.0 L1680.0,848.0 M448.0,848.0 L456.0,856.0 M456.0,856.0 L456.0,856.0 M496.0,856.0 L496.0,856.0 M504.0,856.0 L496.0,856.0 M512.0,856.0 L504.0,856.0 M512.0,856.0 L520.0,848.0 M1672.0,848.0 L1664.0,856.0 M1672.0,848.0 L1680.0,848.0 M1680.0,848.0 L1680.0,848.0 M456.0,856.0 L464.0,864.0 M464.0,864.0 L464.0,864.0 M480.0,864.0 L480.0,864.0 M488.0,864.0 L480.0,864.0 M488.0,864.0 L496.0,856.0 M1520.0,856.0 L1512.0,864.0 M1520.0,856.0 L1528.0,856.0 M1528.0,856.0 L1536.0,856.0 M1536.0,856.0 L1544.0,856.0 M1544.0,856.0 L1552.0,856.0 M1552.0,856.0 L1560.0,856.0 M1560.0,856.0 L1568.0,856.0 M1568.0,856.0 L1576.0,856.0 M1576.0,856.0 L1584.0,856.0 M1584.0,856.0 L1592.0,856.0 M1592.0,856.0 L1600.0,856.0 M1600.0,856.0 L1608.0,856.0 M1608.0,856.0 L1616.0,864.0 M1632.0,856.0 L1624.0,864.0 M1632.0,856.0 L1640.0,856.0 M1640.0,856.0 L1648.0,856.0 M1648.0,856.0 L1656.0,856.0 M1656.0,856.0 L1664.0,856.0 M1664.0,856.0 L1664.0,856.0 M464.0,864.0 L472.0,872.0 M472.0,872.0 L480.0,864.0 M1336.0,864.0 L1328.0,872.0 M1336.0,864.0 L1344.0,872.0 M1424.0,864.0 L1416.0,872.0 M1424.0,864.0 L1432.0,864.0 M1432.0,864.0 L1440.0,864.0 M1440.0,864.0 L1448.0,872.0 M1456.0,864.0 L1448.0,872.0 M1456.0,864.0 L1464.0,864.0 M1464.0,864.0 L1472.0,864.0 M1472.0,864.0 L1480.0,864.0 M1480.0,864.0 L1488.0,864.0 M1488.0,864.0 L1496.0,864.0 M1496.0,864.0 L1504.0,864.0 M1504.0,864.0 L1512.0,864.0 M1512.0,864.0 L1512.0,864.0 M1616.0,864.0 L1616.0,864.0 M1616.0,864.0 L1624.0,864.0 M1624.0,864.0 L1624.0,864.0 M1320.0,872.0 L1312.0,880.0 M1320.0,872.0 L1328.0,872.0 M1328.0,872.0 L1328.0,872.0 M1344.0,872.0 L1344.0,872.0 M1344.0,872.0 L1352.0,872.0 M1352.0,872.0 L1360.0,880.0 M1416.0,872.0 L1416.0,880.0 M1448.0,872.0 L1448.0,872.0 M1448.0,872.0 L1448.0,872.0 M1304.0,880.0 L1296.0,888.0 M1304.0,880.0 L1312.0,880.0 M1312.0,880.0 L1312.0,880.0 M1360.0,880.0 L1360.0,880.0 M1360.0,880.0 L1368.0,880.0 M1368.0,880.0 L1376.0,888.0 M1416.0,880.0 L1416.0,888.0 M1296.0,888.0 L1288.0,896.0 M1296.0,888.0 L1296.0,888.0 M1376.0,888.0 L1376.0,888.0 M1376.0,888.0 L1384.0,888.0 M1384.0,888.0 L1392.0,896.0 M1416.0,888.0 L1416.0,896.0 M1288.0,896.0 L1280.0,904.0 M1288.0,896.0 L1288.0,896.0 M1392.0,896.0 L1392.0,904.0 M1416.0,896.0 L1408.0,904.0 M1416.0,896.0 L1416.0,896.0 M1280.0,904.0 L1272.0,912.0 M1280.0,904.0 L1280.0,904.0 M1392.0,904.0 L1392.0,912.0 M1400.0,904.0 L1392.0,912.0 M1400.0,904.0 L1408.0,904.0 M1408.0,904.0 L1408.0,904.0 M1272.0,912.0 L1264.0,920.0 M1272.0,912.0 L1272.0,912.0 M1384.0,920.0 L1384.0,920.0 M1384.0,920.0 L1392.0,912.0 M1392.0,912.0 L1392.0,920.0 M1264.0,920.0 L1256.0,928.0 M1264.0,920.0 L1264.0,920.0 M1368.0,928.0 L1368.0,928.0 M1376.0,928.0 L1368.0,928.0 M1376.0,928.0 L1384.0,920.0 M1392.0,920.0 L1392.0,928.0 M1256.0,928.0 L1248.0,936.0 M1256.0,928.0 L1256.0,928.0 M1368.0,928.0 L1368.0,928.0 M1368.0,928.0 L1376.0,936.0 M1392.0,928.0 L1384.0,936.0 M1392.0,928.0 L1392.0,928.0 M1248.0,936.0 L1240.0,944.0 M1248.0,936.0 L1248.0,936.0 M1376.0,936.0 L1376.0,936.0 M1376.0,936.0 L1384.0,936.0 M1384.0,936.0 L1384.0,936.0 M1240.0,944.0 L1232.0,952.0 M1240.0,944.0 L1240.0,944.0 M1232.0,952.0 L1224.0,960.0 M1232.0,952.0 L1232.0,952.0 M1224.0,960.0 L1232.0,968.0 M1232.0,968.0 L1232.0,968.0 M1448.0,968.0 L1448.0,968.0 M1456.0,968.0 L1448.0,968.0 M1456.0,968.0 L1456.0,968.0 M1232.0,968.0 L1232.0,976.0 M1448.0,968.0 L1448.0,976.0 M1456.0,968.0 L1456.0,976.0 M1232.0,976.0 L1224.0,984.0 M1232.0,976.0 L1232.0,976.0 M1448.0,976.0 L1448.0,976.0 M1448.0,976.0 L1456.0,976.0 M1456.0,976.0 L1456.0,976.0 M1224.0,984.0 L1224.0,992.0 M1224.0,992.0 L1216.0,1000.0 M1224.0,992.0 L1224.0,992.0 M1216.0,1000.0 L1216.0,1008.0 M1216.0,1008.0 L1216.0,1016.0 M1216.0,1016.0 L1216.0,1024.0 M1216.0,1024.0 L1216.0,1032.0 M1216.0,1032.0 L1216.0,1040.0 M1216.0,1040.0 L1216.0,1048.0 M1216.0,1048.0 L1216.0,1056.0 M1216.0,1056.0 L1216.0,1064.0 M1216.0,1064.0 L1208.0,1072.0 M1216.0,1064.0 L1216.0,1064.0 M1192.0,1072.0 L1184.0,1080.0 M1192.0,1072.0 L1200.0,1072.0 M1200.0,1072.0 L1208.0,1072.0 M1208.0,1072.0 L1208.0,1072.0 M1184.0,1080.0 L1184.0,1088.0 M1184.0,1088.0 L1184.0,1096.0 M1184.0,1096.0 L1176.0,1104.0 M1184.0,1096.0 L1184.0,1096.0 M1176.0,1104.0 L1176.0,1112.0 M1176.0,1112.0 L1168.0,1120.0 M1176.0,1112.0 L1176.0,1112.0 M1168.0,1120.0 L1160.0,1128.0 M1168.0,1120.0 L1168.0,1120.0 M1160.0,1128.0 L1152.0,1136.0 M1160.0,1128.0 L1160.0,1128.0 M1144.0,1136.0 L1136.0,1144.0 M1144.0,1136.0 L1152.0,1136.0 M1152.0,1136.0 L1152.0,1136.0 M1136.0,1144.0 L1128.0,1152.0 M1136.0,1144.0 L1136.0,1144.0 M1128.0,1152.0 L1128.0,1160.0 M1128.0,1160.0 L1120.0,1168.0 M1128.0,1160.0 L1128.0,1160.0 M1120.0,1168.0 L1112.0,1176.0 M1120.0,1168.0 L1120.0,1168.0 M1112.0,1176.0 L1112.0,1184.0 M1112.0,1184.0 L1104.0,1192.0 M1112.0,1184.0 L1112.0,1184.0 M1104.0,1192.0 L1096.0,1200.0 M1104.0,1192.0 L1104.0,1192.0 M1096.0,1200.0 L1088.0,1208.0 M1096.0,1200.0 L1096.0,1200.0 M1088.0,1208.0 L1080.0,1216.0 M1088.0,1208.0 L1088.0,1208.0 M1080.0,1216.0 L1072.0,1224.0 M1080.0,1216.0 L1080.0,1216.0 M1072.0,1224.0 L1064.0,1232.0 M1072.0,1224.0 L1072.0,1224.0 M1064.0,1232.0 L1064.0,1240.0 M1064.0,1240.0 L1064.0,1248.0 M1064.0,1248.0 L1064.0,1256.0 M1064.0,1256.0 L1064.0,1264.0 M1064.0,1264.0 L1072.0,1272.0 M1072.0,1272.0 L1072.0,1272.0 M1072.0,1272.0 L1072.0,1280.0 M872.0,1280.0 L864.0,1288.0 M872.0,1280.0 L880.0,1280.0 M880.0,1280.0 L888.0,1288.0 M1056.0,1280.0 L1048.0,1288.0 M1056.0,1280.0 L1064.0,1280.0 M1064.0,1280.0 L1072.0,1280.0 M1072.0,1280.0 L1072.0,1280.0 M824.0,1288.0 L816.0,1296.0 M824.0,1288.0 L832.0,1288.0 M832.0,1288.0 L840.0,1288.0 M840.0,1288.0 L848.0,1288.0 M848.0,1288.0 L856.0,1288.0 M856.0,1288.0 L864.0,1288.0 M864.0,1288.0 L864.0,1288.0 M888.0,1288.0 L888.0,1288.0 M888.0,1288.0 L896.0,1296.0 M1040.0,1288.0 L1032.0,1296.0 M1040.0,1288.0 L1048.0,1288.0 M1048.0,1288.0 L1048.0,1288.0 M816.0,1296.0 L808.0,1304.0 M816.0,1296.0 L816.0,1296.0 M896.0,1296.0 L896.0,1296.0 M896.0,1296.0 L904.0,1296.0 M904.0,1296.0 L912.0,1296.0 M912.0,1296.0 L920.0,1296.0 M920.0,1296.0 L928.0,1296.0 M928.0,1296.0 L936.0,1296.0 M936.0,1296.0 L944.0,1304.0 M1032.0,1296.0 L1024.0,1304.0 M1032.0,1296.0 L1032.0,1296.0 M808.0,1304.0 L800.0,1312.0 M808.0,1304.0 L808.0,1304.0 M944.0,1304.0 L944.0,1304.0 M944.0,1304.0 L952.0,1304.0 M952.0,1304.0 L960.0,1304.0 M960.0,1304.0 L968.0,1304.0 M968.0,1304.0 L976.0,1304.0 M976.0,1304.0 L984.0,1304.0 M984.0,1304.0 L992.0,1304.0 M992.0,1304.0 L1000.0,1304.0 M1000.0,1304.0 L1008.0,1304.0 M1008.0,1304.0 L1016.0,1304.0 M1016.0,1304.0 L1024.0,1304.0 M1024.0,1304.0 L1024.0,1304.0 M800.0,1312.0 L800.0,1320.0 M800.0,1320.0 L800.0,1328.0 M800.0,1328.0 L800.0,1336.0 M800.0,1336.0 L800.0,1344.0 M800.0,1344.0 L800.0,1352.0 M800.0,1352.0 L808.0,1360.0 M808.0,1360.0 L808.0,1360.0 M808.0,1360.0 L816.0,1368.0 M816.0,1368.0 L816.0,1368.0 M224.0,1368.0 L216.0,1376.0 M224.0,1368.0 L232.0,1368.0 M232.0,1368.0 L240.0,1368.0 M240.0,1368.0 L248.0,1368.0 M248.0,1368.0 L256.0,1368.0 M256.0,1368.0 L264.0,1368.0 M264.0,1368.0 L272.0,1376.0 M816.0,1368.0 L816.0,1376.0 M216.0,1376.0 L208.0,1384.0 M216.0,1376.0 L216.0,1376.0 M272.0,1376.0 L272.0,1376.0 M272.0,1376.0 L280.0,1384.0 M816.0,1376.0 L824.0,1384.0 M824.0,1384.0 L824.0,1384.0 M208.0,1384.0 L200.0,1392.0 M208.0,1384.0 L208.0,1384.0 M280.0,1384.0 L280.0,1384.0 M280.0,1384.0 L288.0,1392.0 M824.0,1384.0 L832.0,1392.0 M832.0,1392.0 L832.0,1392.0 M200.0,1392.0 L200.0,1400.0 M288.0,1392.0 L288.0,1400.0 M832.0,1392.0 L840.0,1400.0 M848.0,1400.0 L840.0,1400.0 M856.0,1400.0 L848.0,1400.0 M864.0,1400.0 L856.0,1400.0 M872.0,1400.0 L864.0,1400.0 M880.0,1400.0 L872.0,1400.0 M880.0,1400.0 L880.0,1400.0 M200.0,1400.0 L192.0,1408.0 M200.0,1400.0 L200.0,1400.0 M288.0,1400.0 L288.0,1400.0 M288.0,1400.0 L296.0,1408.0 M880.0,1400.0 L880.0,1408.0 M192.0,1408.0 L192.0,1416.0 M296.0,1408.0 L296.0,1416.0 M880.0,1408.0 L880.0,1416.0 M192.0,1416.0 L184.0,1424.0 M192.0,1416.0 L192.0,1416.0 M296.0,1416.0 L296.0,1416.0 M296.0,1416.0 L304.0,1424.0 M880.0,1416.0 L880.0,1424.0 M184.0,1424.0 L176.0,1432.0 M184.0,1424.0 L184.0,1424.0 M304.0,1424.0 L304.0,1424.0 M304.0,1424.0 L312.0,1432.0 M624.0,1424.0 L616.0,1432.0 M624.0,1424.0 L632.0,1424.0 M632.0,1424.0 L640.0,1432.0 M880.0,1424.0 L880.0,1432.0 M168.0,1432.0 L160.0,1440.0 M168.0,1432.0 L176.0,1432.0 M176.0,1432.0 L176.0,1432.0 M312.0,1432.0 L312.0,1432.0 M312.0,1432.0 L320.0,1440.0 M616.0,1432.0 L616.0,1440.0 M640.0,1432.0 L640.0,1440.0 M872.0,1432.0 L864.0,1440.0 M872.0,1432.0 L880.0,1432.0 M880.0,1432.0 L880.0,1432.0 M160.0,1440.0 L152.0,1448.0 M160.0,1440.0 L160.0,1440.0 M320.0,1440.0 L320.0,1440.0 M320.0,1440.0 L328.0,1448.0 M408.0,1440.0 L400.0,1448.0 M408.0,1440.0 L416.0,1440.0 M416.0,1440.0 L424.0,1440.0 M424.0,1440.0 L432.0,1448.0 M584.0,1440.0 L576.0,1448.0 M584.0,1440.0 L592.0,1440.0 M592.0,1440.0 L600.0,1440.0 M600.0,1440.0 L608.0,1448.0 M616.0,1440.0 L616.0,1448.0 M640.0,1440.0 L640.0,1448.0 M856.0,1440.0 L848.0,1448.0 M856.0,1440.0 L864.0,1440.0 M864.0,1440.0 L864.0,1440.0 M152.0,1448.0 L152.0,1456.0 M328.0,1448.0 L328.0,1448.0 M328.0,1448.0 L336.0,1456.0 M384.0,1448.0 L376.0,1456.0 M384.0,1448.0 L392.0,1448.0 M392.0,1448.0 L400.0,1448.0 M400.0,1448.0 L400.0,1448.0 M432.0,1448.0 L432.0,1448.0 M432.0,1448.0 L440.0,1448.0 M440.0,1448.0 L448.0,1456.0 M576.0,1448.0 L568.0,1456.0 M576.0,1448.0 L576.0,1448.0 M608.0,1448.0 L608.0,1448.0 M608.0,1448.0 L616.0,1448.0 M616.0,1448.0 L616.0,1448.0 M640.0,1448.0 L640.0,1456.0 M848.0,1448.0 L840.0,1456.0 M848.0,1448.0 L848.0,1448.0 M152.0,1456.0 L144.0,1464.0 M152.0,1456.0 L152.0,1456.0 M336.0,1456.0 L336.0,1456.0 M336.0,1456.0 L344.0,1456.0 M344.0,1456.0 L352.0,1456.0 M352.0,1456.0 L360.0,1456.0 M360.0,1456.0 L368.0,1456.0 M368.0,1456.0 L376.0,1456.0 M376.0,1456.0 L376.0,1456.0 M448.0,1456.0 L448.0,1456.0 M448.0,1456.0 L456.0,1464.0 M528.0,1456.0 L520.0,1464.0 M528.0,1456.0 L536.0,1456.0 M536.0,1456.0 L544.0,1456.0 M544.0,1456.0 L552.0,1456.0 M552.0,1456.0 L560.0,1456.0 M560.0,1456.0 L568.0,1456.0 M568.0,1456.0 L568.0,1456.0 M640.0,1456.0 L640.0,1456.0 M640.0,1456.0 L648.0,1456.0 M648.0,1456.0 L656.0,1456.0 M656.0,1456.0 L664.0,1464.0 M720.0,1456.0 L712.0,1464.0 M720.0,1456.0 L728.0,1456.0 M728.0,1456.0 L736.0,1456.0 M736.0,1456.0 L744.0,1456.0 M744.0,1456.0 L752.0,1464.0 M840.0,1456.0 L832.0,1464.0 M840.0,1456.0 L840.0,1456.0 M144.0,1464.0 L136.0,1472.0 M144.0,1464.0 L144.0,1464.0 M456.0,1464.0 L456.0,1464.0 M456.0,1464.0 L464.0,1464.0 M464.0,1464.0 L472.0,1464.0 M472.0,1464.0 L480.0,1464.0 M480.0,1464.0 L488.0,1464.0 M488.0,1464.0 L496.0,1464.0 M496.0,1464.0 L504.0,1464.0 M504.0,1464.0 L512.0,1464.0 M512.0,1464.0 L520.0,1464.0 M520.0,1464.0 L520.0,1464.0 M664.0,1464.0 L664.0,1464.0 M664.0,1464.0 L672.0,1464.0 M672.0,1464.0 L680.0,1464.0 M680.0,1464.0 L688.0,1464.0 M688.0,1464.0 L696.0,1464.0 M696.0,1464.0 L704.0,1464.0 M704.0,1464.0 L712.0,1464.0 M712.0,1464.0 L712.0,1464.0 M752.0,1464.0 L752.0,1464.0 M752.0,1464.0 L760.0,1472.0 M832.0,1464.0 L824.0,1472.0 M832.0,1464.0 L832.0,1464.0 M136.0,1472.0 L136.0,1480.0 M760.0,1472.0 L760.0,1472.0 M760.0,1472.0 L768.0,1480.0 M824.0,1472.0 L816.0,1480.0 M824.0,1472.0 L824.0,1472.0 M136.0,1480.0 L128.0,1488.0 M136.0,1480.0 L136.0,1480.0 M768.0,1480.0 L768.0,1488.0 M816.0,1480.0 L808.0,1488.0 M816.0,1480.0 L816.0,1480.0 M128.0,1488.0 L120.0,1496.0 M128.0,1488.0 L128.0,1488.0 M768.0,1488.0 L768.0,1488.0 M768.0,1488.0 L776.0,1496.0 M792.0,1488.0 L784.0,1496.0 M792.0,1488.0 L800.0,1488.0 M800.0,1488.0 L808.0,1488.0 M808.0,1488.0 L808.0,1488.0 M120.0,1496.0 L120.0,1504.0 M776.0,1496.0 L776.0,1496.0 M776.0,1496.0 L784.0,1496.0 M784.0,1496.0 L784.0,1496.0 M120.0,1504.0 L112.0,1512.0 M120.0,1504.0 L120.0,1504.0 M112.0,1512.0 L112.0,1520.0 M112.0,1520.0 L104.0,1528.0 M112.0,1520.0 L112.0,1520.0 M104.0,1528.0 L96.0,1536.0 M104.0,1528.0 L104.0,1528.0 M96.0,1536.0 L88.0,1544.0 M96.0,1536.0 L96.0,1536.0 M88.0,1544.0 L80.0,1552.0 M88.0,1544.0 L88.0,1544.0 M80.0,1552.0 L72.0,1560.0 M80.0,1552.0 L80.0,1552.0 M72.0,1560.0 L64.0,1568.0 M72.0,1560.0 L72.0,1560.0 M64.0,1568.0 L56.0,1576.0 M64.0,1568.0 L64.0,1568.0 M56.0,1576.0 L56.0,1584.0 M56.0,1584.0 L48.0,1592.0 M56.0,1584.0 L56.0,1584.0 M48.0,1592.0 L40.0,1600.0 M48.0,1592.0 L48.0,1592.0 M40.0,1600.0 L32.0,1608.0 M40.0,1600.0 L40.0,1600.0 M32.0,1608.0 L24.0,1616.0 M32.0,1608.0 L32.0,1608.0 M24.0,1616.0 L16.0,1624.0 M24.0,1616.0 L24.0,1616.0 M16.0,1624.0 L8.0,1632.0 M16.0,1624.0 L16.0,1624.0" fill="none" stroke="#172b39" stroke-opacity="0.8" stroke-width="1.05" stroke-linejoin="round" stroke-linecap="round" data-aifsm-role="isobars" data-aifsm-interval="4"/>
<path d="" fill="none" stroke="none" data-aifsm-role="isobar-labels" data-aifsm-labels="692.0,88.0,1012;1548.0,1160.0,1012;1448.0,1040.0,1016;628.0,376.0,1016;776.0,696.0,1020;1456.0,976.0,1020"/>
<path d="M77.0,56.5 L91.0,55.5 M87.0,58.1 L91.0,55.5 L86.6,53.5 M189.0,56.2 L203.0,55.8 M198.9,58.2 L203.0,55.8 L198.7,53.6 M301.0,56.0 L315.0,56.0 M310.8,58.3 L315.0,56.0 L310.8,53.7 M413.0,55.6 L427.0,56.4 M422.7,58.5 L427.0,56.4 L422.9,53.9 M474.0,77.8 L488.0,78.2 M483.7,80.4 L488.0,78.2 L483.9,75.8 M637.7,59.0 L650.3,53.0 M647.5,56.9 L650.3,53.0 L645.5,52.7 M749.7,59.0 L762.3,53.0 M759.5,56.9 L762.3,53.0 L757.6,52.7 M856.4,37.2 L867.6,28.8 M865.6,33.1 L867.6,28.8 L862.8,29.5 M1089.0,62.3 L1095.0,49.7 M1095.3,54.5 L1095.0,49.7 L1091.1,52.5 M1173.9,34.7 L1178.1,21.3 M1179.0,26.0 L1178.1,21.3 L1174.6,24.6 M1425.4,62.5 L1430.6,49.5 M1431.2,54.3 L1430.6,49.5 L1426.9,52.5 M1488.7,40.0 L1489.3,26.0 M1491.4,30.3 L1489.3,26.0 L1486.8,30.1 M1621.8,34.6 L1626.2,21.4 M1627.1,26.1 L1626.2,21.4 L1622.7,24.6 M2087.0,77.4 L2101.0,78.6 M2096.6,80.6 L2101.0,78.6 L2097.0,76.0 M2177.2,85.5 L2190.8,82.5 M2187.2,85.7 L2190.8,82.5 L2186.2,81.2 M77.0,167.5 L91.0,168.5 M86.6,170.5 L91.0,168.5 L87.0,165.9 M189.0,167.2 L203.0,168.8 M198.5,170.6 L203.0,168.8 L199.0,166.0 M301.0,167.2 L315.0,168.8 M310.5,170.6 L315.0,168.8 L311.0,166.0 M407.1,143.6 L420.9,146.4 M416.3,147.8 L420.9,146.4 L417.2,143.3 M525.0,167.6 L539.0,168.4 M534.7,170.5 L539.0,168.4 L534.9,165.8 M631.2,191.7 L644.8,188.3 M641.3,191.6 L644.8,188.3 L640.1,187.1 M743.4,192.4 L756.6,187.6 M753.4,191.2 L756.6,187.6 L751.8,186.9 M863.0,172.9 L873.0,163.1 M871.6,167.7 L873.0,163.1 L868.4,164.4 M969.7,195.5 L978.3,184.5 M977.5,189.2 L978.3,184.5 L973.9,186.4 M1060.3,146.0 L1067.7,134.0 M1067.4,138.8 L1067.7,134.0 L1063.5,136.4 M1150.0,151.3 L1156.0,138.7 M1156.3,143.5 L1156.0,138.7 L1152.1,141.5 M1313.0,174.3 L1319.0,161.7 M1319.3,166.5 L1319.0,161.7 L1315.1,164.5 M1419.3,151.5 L1424.7,138.5 M1425.2,143.3 L1424.7,138.5 L1420.9,141.5 M1487.9,196.9 L1490.1,183.1 M1491.7,187.6 L1490.1,183.1 L1487.2,186.9 M1981.5,170.6 L1994.5,165.4 M1991.5,169.1 L1994.5,165.4 L1989.8,164.8 M2093.6,170.8 L2106.4,165.2 M2103.5,169.0 L2106.4,165.2 L2101.7,164.8 M2178.8,200.6 L2189.2,191.4 M2187.6,195.9 L2189.2,191.4 L2184.6,192.4 M77.2,278.2 L90.8,281.8 M86.1,282.9 L90.8,281.8 L87.3,278.5 M189.1,278.6 L202.9,281.4 M198.3,282.8 L202.9,281.4 L199.2,278.3 M273.0,307.4 L287.0,308.6 M282.6,310.5 L287.0,308.6 L283.0,305.9 M525.2,278.3 L538.8,281.7 M534.2,282.9 L538.8,281.7 L535.3,278.4 M637.0,279.2 L651.0,280.8 M646.5,282.6 L651.0,280.8 L647.0,278.0 M749.8,283.2 L762.2,276.8 M759.5,280.8 L762.2,276.8 L757.4,276.7 M857.5,262.4 L866.5,251.6 M865.6,256.3 L866.5,251.6 L862.0,253.4 M969.7,262.5 L978.3,251.5 M977.5,256.2 L978.3,251.5 L973.9,253.4 M1200.0,285.7 L1208.0,274.3 M1207.5,279.0 L1208.0,274.3 L1203.7,276.4 M1312.8,286.2 L1319.2,273.8 M1319.3,278.6 L1319.2,273.8 L1315.3,276.4 M1419.3,263.5 L1424.7,250.5 M1425.2,255.3 L1424.7,250.5 L1420.9,253.5 M1649.8,286.6 L1654.2,273.4 M1655.1,278.1 L1654.2,273.4 L1650.7,276.6 M1761.4,286.5 L1766.6,273.5 M1767.2,278.3 L1766.6,273.5 L1762.9,276.5 M1981.6,309.0 L1982.4,295.0 M1984.5,299.3 L1982.4,295.0 L1979.9,299.1 M71.6,366.1 L84.4,371.9 M79.6,372.3 L84.4,371.9 L81.5,368.1 M189.8,388.8 L202.2,395.2 M197.4,395.3 L202.2,395.2 L199.5,391.2 M295.3,412.1 L308.7,415.9 M304.1,417.0 L308.7,415.9 L305.3,412.6 M413.2,390.2 L426.8,393.8 M422.1,395.0 L426.8,393.8 L423.3,390.5 M975.8,397.6 L984.2,386.4 M983.5,391.1 L984.2,386.4 L979.8,388.4 M1086.9,396.8 L1097.1,387.2 M1095.6,391.8 L1097.1,387.2 L1092.5,388.4 M1193.9,374.7 L1202.1,363.3 M1201.5,368.1 L1202.1,363.3 L1197.8,365.4 M1315.9,399.0 L1316.1,385.0 M1318.4,389.2 L1316.1,385.0 L1313.7,389.2 M2105.4,387.5 L2094.6,396.5 M2096.4,392.0 L2094.6,396.5 L2099.3,395.6 M2189.8,388.0 L2178.2,396.0 M2180.4,391.7 L2178.2,396.0 L2183.0,395.5 M189.6,501.1 L202.4,506.9 M197.6,507.3 L202.4,506.9 L199.5,503.1 M301.7,500.9 L314.3,507.1 M309.5,507.3 L314.3,507.1 L311.5,503.2 M408.1,522.2 L419.9,529.8 M415.1,529.5 L419.9,529.8 L417.6,525.6 M526.0,500.5 L538.0,507.5 M533.3,507.4 L538.0,507.5 L535.6,503.4 M631.5,528.6 L644.5,523.4 M641.5,527.1 L644.5,523.4 L639.7,522.8 M752.5,510.1 L759.5,497.9 M759.4,502.7 L759.5,497.9 L755.4,500.4 M858.6,532.1 L865.4,519.9 M865.4,524.7 L865.4,519.9 L861.4,522.4 M969.6,486.4 L978.4,475.6 M977.6,480.3 L978.4,475.6 L974.0,477.4 M1086.3,508.1 L1097.7,499.9 M1095.6,504.2 L1097.7,499.9 L1092.9,500.5 M1195.6,487.6 L1200.4,474.4 M1201.1,479.2 L1200.4,474.4 L1196.8,477.6 M27.6,633.5 L38.4,642.5 M33.7,641.6 L38.4,642.5 L36.6,638.0 M302.4,611.8 L313.6,620.2 M308.9,619.5 L313.6,620.2 L311.6,615.8 M408.2,589.0 L419.8,597.0 M415.0,596.5 L419.8,597.0 L417.6,592.7 M525.9,612.5 L538.1,619.5 M533.3,619.4 L538.1,619.5 L535.6,615.4 M633.1,643.0 L642.9,633.0 M641.6,637.6 L642.9,633.0 L638.3,634.4 M746.3,599.0 L753.7,587.0 M753.4,591.8 L753.7,587.0 L749.5,589.4 M862.1,619.7 L873.9,612.3 M871.6,616.5 L873.9,612.3 L869.2,612.6 M946.5,592.3 L957.5,583.7 M955.6,588.1 L957.5,583.7 L952.8,584.5 M78.5,723.7 L89.5,732.3 M84.8,731.5 L89.5,732.3 L87.6,727.9 M184.6,745.6 L195.4,754.4 M190.7,753.6 L195.4,754.4 L193.6,750.0 M415.1,723.0 L424.9,733.0 M420.3,731.6 L424.9,733.0 L423.6,728.4 M525.6,725.2 L538.4,730.8 M533.6,731.2 L538.4,730.8 L535.5,727.0 M640.4,734.0 L647.6,722.0 M647.4,726.8 L647.6,722.0 L643.5,724.4 M701.0,710.7 L709.0,699.3 M708.5,704.0 L709.0,699.3 L704.7,701.4 M2101.3,721.1 L2098.7,734.9 M2097.2,730.3 L2098.7,734.9 L2101.7,731.2 M2163.5,743.5 L2158.5,756.5 M2157.8,751.8 L2158.5,756.5 L2162.1,753.4 M78.8,835.3 L89.2,844.7 M84.5,843.6 L89.2,844.7 L87.6,840.2 M163.7,862.5 L172.3,873.5 M167.9,871.6 L172.3,873.5 L171.5,868.8 M298.3,856.1 L305.7,867.9 M301.5,865.6 L305.7,867.9 L305.4,863.1 M497.2,810.2 L510.8,813.8 M506.1,814.9 L510.8,813.8 L507.3,810.5 M1768.3,834.5 L1759.7,845.5 M1760.5,840.8 L1759.7,845.5 L1764.1,843.6 M1880.9,835.1 L1871.1,844.9 M1872.4,840.3 L1871.1,844.9 L1875.7,843.6 M2096.0,834.2 L2104.0,845.8 M2099.7,843.6 L2104.0,845.8 L2103.5,841.0 M2178.4,863.8 L2189.6,872.2 M2184.9,871.5 L2189.6,872.2 L2187.6,867.8 M80.9,945.7 L87.1,958.3 M83.2,955.5 L87.1,958.3 L87.3,953.5 M193.5,945.5 L198.5,958.5 M194.9,955.4 L198.5,958.5 L199.2,953.8 M305.6,945.4 L310.4,958.6 M306.8,955.4 L310.4,958.6 L311.1,953.8 M637.2,953.7 L650.8,950.3 M647.3,953.6 L650.8,950.3 L646.2,949.1 M1321.9,948.3 L1310.1,955.7 M1312.4,951.5 L1310.1,955.7 L1314.9,955.4 M2102.3,945.4 L2097.7,958.6 M2096.9,953.9 L2097.7,958.6 L2101.2,955.4 M2160.8,922.0 L2161.2,936.0 M2158.8,931.9 L2161.2,936.0 L2163.4,931.7 M83.1,1057.1 L84.9,1070.9 M82.1,1067.1 L84.9,1070.9 L86.7,1066.5 M194.9,1057.1 L197.1,1070.9 M194.2,1067.1 L197.1,1070.9 L198.7,1066.4 M305.2,1057.6 L310.8,1070.4 M307.0,1067.5 L310.8,1070.4 L311.2,1065.6 M414.1,1067.8 L425.9,1060.2 M423.6,1064.4 L425.9,1060.2 L421.1,1060.5 M525.4,1066.3 L538.6,1061.7 M535.4,1065.3 L538.6,1061.7 L533.9,1060.9 M637.8,1060.8 L650.2,1067.2 M645.4,1067.3 L650.2,1067.2 L647.5,1063.2 M753.6,1057.4 L758.4,1070.6 M754.8,1067.4 L758.4,1070.6 L759.1,1065.8 M983.7,1058.1 L976.3,1069.9 M976.6,1065.2 L976.3,1069.9 L980.5,1067.6 M1089.0,1057.7 L1095.0,1070.3 M1091.1,1067.5 L1095.0,1070.3 L1095.3,1065.5 M1942.8,1082.1 L1931.2,1089.9 M1933.4,1085.6 L1931.2,1089.9 L1936.0,1089.5 M84.6,1169.0 L83.4,1183.0 M81.4,1178.6 L83.4,1183.0 L86.0,1179.0 M190.3,1191.0 L189.7,1205.0 M187.6,1200.7 L189.7,1205.0 L192.2,1200.9 M643.1,1169.1 L644.9,1182.9 M642.1,1179.1 L644.9,1182.9 L646.7,1178.5 M759.5,1170.0 L752.5,1182.0 M752.6,1177.3 L752.5,1182.0 L756.6,1179.6 M974.9,1171.2 L985.1,1180.8 M980.5,1179.6 L985.1,1180.8 L983.6,1176.2 M1060.3,1142.1 L1067.7,1153.9 M1063.5,1151.6 L1067.7,1153.9 L1067.4,1149.1 M1142.9,1171.2 L1153.1,1180.8 M1148.5,1179.6 L1153.1,1180.8 L1151.6,1176.2 M1261.7,1191.8 L1268.3,1204.2 M1264.3,1201.6 L1268.3,1204.2 L1268.4,1199.4 M1966.1,1207.4 L1953.9,1200.6 M1958.7,1200.6 L1953.9,1200.6 L1956.4,1204.7 M2078.4,1206.9 L2065.6,1201.1 M2070.4,1200.7 L2065.6,1201.1 L2068.5,1204.9 M85.3,1281.1 L82.7,1294.9 M81.2,1290.3 L82.7,1294.9 L85.8,1291.2 M197.3,1281.1 L194.7,1294.9 M193.2,1290.3 L194.7,1294.9 L197.7,1291.2 M532.1,1306.6 L519.9,1313.4 M522.4,1309.3 L519.9,1313.4 L524.7,1313.4 M968.4,1269.2 L979.6,1260.8 M977.6,1265.2 L979.6,1260.8 L974.9,1261.5 M1081.9,1304.3 L1090.1,1315.7 M1085.7,1313.6 L1090.1,1315.7 L1089.5,1310.9 M1283.4,1310.7 L1292.6,1321.3 M1288.1,1319.6 L1292.6,1321.3 L1291.6,1316.6 M1536.8,1258.6 L1531.2,1271.4 M1530.8,1266.6 L1531.2,1271.4 L1535.0,1268.5 M1986.3,1294.8 L1989.7,1281.2 M1990.9,1285.8 L1989.7,1281.2 L1986.4,1284.7 M2189.2,1320.7 L2178.8,1311.3 M2183.5,1312.4 L2178.8,1311.3 L2180.4,1315.8 M85.2,1393.1 L82.8,1406.9 M81.2,1402.4 L82.8,1406.9 L85.8,1403.2 M259.1,1415.3 L254.9,1428.7 M254.0,1424.0 L254.9,1428.7 L258.4,1425.4 M420.1,1373.6 L407.9,1380.4 M410.4,1376.3 L407.9,1380.4 L412.7,1380.4 M855.2,1375.4 L868.8,1378.6 M864.2,1379.9 L868.8,1378.6 L865.2,1375.4 M975.9,1394.3 L984.1,1405.7 M979.8,1403.6 L984.1,1405.7 L983.5,1400.9 M1096.1,1394.3 L1087.9,1405.7 M1088.5,1400.9 L1087.9,1405.7 L1092.2,1403.6 M1311.2,1394.9 L1320.8,1405.1 M1316.2,1403.6 L1320.8,1405.1 L1319.6,1400.5 M1394.3,1423.9 L1405.7,1432.1 M1400.9,1431.5 L1405.7,1432.1 L1403.6,1427.8 M1639.6,1379.7 L1652.4,1374.3 M1649.5,1378.0 L1652.4,1374.3 L1647.7,1373.8 M1983.9,1405.7 L1992.1,1394.3 M1991.5,1399.1 L1992.1,1394.3 L1987.7,1396.4 M2093.4,1429.0 L2094.6,1415.0 M2096.5,1419.4 L2094.6,1415.0 L2091.9,1419.0 M2186.0,1434.7 L2182.0,1421.3 M2185.4,1424.6 L2182.0,1421.3 L2181.0,1426.0 M197.1,1505.1 L194.9,1518.9 M193.3,1514.4 L194.9,1518.9 L197.9,1515.1 M254.7,1527.4 L259.3,1540.6 M255.7,1537.4 L259.3,1540.6 L260.1,1535.9 M424.6,1506.7 L415.4,1517.3 M416.4,1512.6 L415.4,1517.3 L419.9,1515.6 M510.8,1513.7 L497.2,1510.3 M501.8,1509.1 L497.2,1510.3 L500.7,1513.6 M648.2,1506.4 L639.8,1517.6 M640.5,1512.8 L639.8,1517.6 L644.2,1515.6 M758.1,1505.3 L753.9,1518.7 M753.0,1514.0 L753.9,1518.7 L757.4,1515.4 M866.8,1505.1 L869.2,1518.9 M866.2,1515.1 L869.2,1518.9 L870.7,1514.4 M980.9,1505.1 L979.1,1518.9 M977.4,1514.5 L979.1,1518.9 L981.9,1515.1 M1156.0,1527.7 L1150.0,1540.3 M1149.7,1535.6 L1150.0,1540.3 L1153.9,1537.5 M1422.5,1507.7 L1433.5,1516.3 M1428.8,1515.5 L1433.5,1516.3 L1431.6,1511.9 M1533.8,1508.7 L1546.2,1515.3 M1541.4,1515.4 L1546.2,1515.3 L1543.6,1511.3 M1645.0,1511.9 L1659.0,1512.1 M1654.8,1514.4 L1659.0,1512.1 L1654.8,1509.7 M1729.0,1539.4 L1743.0,1540.6 M1738.6,1542.6 L1743.0,1540.6 L1739.0,1538.0 M1870.3,1516.1 L1881.7,1507.9 M1879.6,1512.2 L1881.7,1507.9 L1876.9,1508.5 M1982.6,1516.4 L1993.4,1507.6 M1991.6,1512.0 L1993.4,1507.6 L1988.7,1508.4 M2093.7,1515.0 L2106.3,1509.0 M2103.5,1512.9 L2106.3,1509.0 L2101.6,1508.7 M2183.0,1546.9 L2185.0,1533.1 M2186.7,1537.6 L2185.0,1533.1 L2182.1,1536.9 M85.7,1617.2 L82.3,1630.8 M81.1,1626.1 L82.3,1630.8 L85.5,1627.3 M168.8,1589.0 L167.2,1603.0 M165.4,1598.5 L167.2,1603.0 L170.0,1599.0 M308.5,1617.0 L307.5,1631.0 M305.5,1626.6 L307.5,1631.0 L310.1,1626.9 M532.5,1598.5 L519.5,1603.5 M522.6,1599.8 L519.5,1603.5 L524.2,1604.1 M648.7,1618.9 L639.3,1629.1 M640.4,1624.5 L639.3,1629.1 L643.8,1627.6 M1534.2,1620.0 L1545.8,1628.0 M1541.0,1627.5 L1545.8,1628.0 L1543.6,1623.7 M1639.5,1598.4 L1652.5,1603.6 M1647.7,1604.2 L1652.5,1603.6 L1649.5,1599.9 M1757.0,1623.6 L1771.0,1624.4 M1766.7,1626.5 L1771.0,1624.4 L1766.9,1621.9 M1863.8,1604.2 L1876.2,1597.8 M1873.5,1601.8 L1876.2,1597.8 L1871.4,1597.7 M1975.0,1601.8 L1989.0,1600.2 M1985.0,1603.0 L1989.0,1600.2 L1984.5,1598.4 M2095.9,1629.7 L2104.1,1618.3 M2103.5,1623.1 L2104.1,1618.3 L2099.8,1620.4 M2181.8,1602.6 L2186.2,1589.4 M2187.1,1594.1 L2186.2,1589.4 L2182.7,1592.6" fill="none" stroke="#eef7fa" stroke-opacity="0.94" stroke-width="4.2" stroke-linejoin="round" stroke-linecap="round" data-aifsm-role="wind-arrow-fallback"/>
<path d="M77.0,56.5 L91.0,55.5 M87.0,58.1 L91.0,55.5 L86.6,53.5 M189.0,56.2 L203.0,55.8 M198.9,58.2 L203.0,55.8 L198.7,53.6 M301.0,56.0 L315.0,56.0 M310.8,58.3 L315.0,56.0 L310.8,53.7 M413.0,55.6 L427.0,56.4 M422.7,58.5 L427.0,56.4 L422.9,53.9 M474.0,77.8 L488.0,78.2 M483.7,80.4 L488.0,78.2 L483.9,75.8 M637.7,59.0 L650.3,53.0 M647.5,56.9 L650.3,53.0 L645.5,52.7 M749.7,59.0 L762.3,53.0 M759.5,56.9 L762.3,53.0 L757.6,52.7 M856.4,37.2 L867.6,28.8 M865.6,33.1 L867.6,28.8 L862.8,29.5 M1089.0,62.3 L1095.0,49.7 M1095.3,54.5 L1095.0,49.7 L1091.1,52.5 M1173.9,34.7 L1178.1,21.3 M1179.0,26.0 L1178.1,21.3 L1174.6,24.6 M1425.4,62.5 L1430.6,49.5 M1431.2,54.3 L1430.6,49.5 L1426.9,52.5 M1488.7,40.0 L1489.3,26.0 M1491.4,30.3 L1489.3,26.0 L1486.8,30.1 M1621.8,34.6 L1626.2,21.4 M1627.1,26.1 L1626.2,21.4 L1622.7,24.6 M2087.0,77.4 L2101.0,78.6 M2096.6,80.6 L2101.0,78.6 L2097.0,76.0 M2177.2,85.5 L2190.8,82.5 M2187.2,85.7 L2190.8,82.5 L2186.2,81.2 M77.0,167.5 L91.0,168.5 M86.6,170.5 L91.0,168.5 L87.0,165.9 M189.0,167.2 L203.0,168.8 M198.5,170.6 L203.0,168.8 L199.0,166.0 M301.0,167.2 L315.0,168.8 M310.5,170.6 L315.0,168.8 L311.0,166.0 M407.1,143.6 L420.9,146.4 M416.3,147.8 L420.9,146.4 L417.2,143.3 M525.0,167.6 L539.0,168.4 M534.7,170.5 L539.0,168.4 L534.9,165.8 M631.2,191.7 L644.8,188.3 M641.3,191.6 L644.8,188.3 L640.1,187.1 M743.4,192.4 L756.6,187.6 M753.4,191.2 L756.6,187.6 L751.8,186.9 M863.0,172.9 L873.0,163.1 M871.6,167.7 L873.0,163.1 L868.4,164.4 M969.7,195.5 L978.3,184.5 M977.5,189.2 L978.3,184.5 L973.9,186.4 M1060.3,146.0 L1067.7,134.0 M1067.4,138.8 L1067.7,134.0 L1063.5,136.4 M1150.0,151.3 L1156.0,138.7 M1156.3,143.5 L1156.0,138.7 L1152.1,141.5 M1313.0,174.3 L1319.0,161.7 M1319.3,166.5 L1319.0,161.7 L1315.1,164.5 M1419.3,151.5 L1424.7,138.5 M1425.2,143.3 L1424.7,138.5 L1420.9,141.5 M1487.9,196.9 L1490.1,183.1 M1491.7,187.6 L1490.1,183.1 L1487.2,186.9 M1981.5,170.6 L1994.5,165.4 M1991.5,169.1 L1994.5,165.4 L1989.8,164.8 M2093.6,170.8 L2106.4,165.2 M2103.5,169.0 L2106.4,165.2 L2101.7,164.8 M2178.8,200.6 L2189.2,191.4 M2187.6,195.9 L2189.2,191.4 L2184.6,192.4 M77.2,278.2 L90.8,281.8 M86.1,282.9 L90.8,281.8 L87.3,278.5 M189.1,278.6 L202.9,281.4 M198.3,282.8 L202.9,281.4 L199.2,278.3 M273.0,307.4 L287.0,308.6 M282.6,310.5 L287.0,308.6 L283.0,305.9 M525.2,278.3 L538.8,281.7 M534.2,282.9 L538.8,281.7 L535.3,278.4 M637.0,279.2 L651.0,280.8 M646.5,282.6 L651.0,280.8 L647.0,278.0 M749.8,283.2 L762.2,276.8 M759.5,280.8 L762.2,276.8 L757.4,276.7 M857.5,262.4 L866.5,251.6 M865.6,256.3 L866.5,251.6 L862.0,253.4 M969.7,262.5 L978.3,251.5 M977.5,256.2 L978.3,251.5 L973.9,253.4 M1200.0,285.7 L1208.0,274.3 M1207.5,279.0 L1208.0,274.3 L1203.7,276.4 M1312.8,286.2 L1319.2,273.8 M1319.3,278.6 L1319.2,273.8 L1315.3,276.4 M1419.3,263.5 L1424.7,250.5 M1425.2,255.3 L1424.7,250.5 L1420.9,253.5 M1649.8,286.6 L1654.2,273.4 M1655.1,278.1 L1654.2,273.4 L1650.7,276.6 M1761.4,286.5 L1766.6,273.5 M1767.2,278.3 L1766.6,273.5 L1762.9,276.5 M1981.6,309.0 L1982.4,295.0 M1984.5,299.3 L1982.4,295.0 L1979.9,299.1 M71.6,366.1 L84.4,371.9 M79.6,372.3 L84.4,371.9 L81.5,368.1 M189.8,388.8 L202.2,395.2 M197.4,395.3 L202.2,395.2 L199.5,391.2 M295.3,412.1 L308.7,415.9 M304.1,417.0 L308.7,415.9 L305.3,412.6 M413.2,390.2 L426.8,393.8 M422.1,395.0 L426.8,393.8 L423.3,390.5 M975.8,397.6 L984.2,386.4 M983.5,391.1 L984.2,386.4 L979.8,388.4 M1086.9,396.8 L1097.1,387.2 M1095.6,391.8 L1097.1,387.2 L1092.5,388.4 M1193.9,374.7 L1202.1,363.3 M1201.5,368.1 L1202.1,363.3 L1197.8,365.4 M1315.9,399.0 L1316.1,385.0 M1318.4,389.2 L1316.1,385.0 L1313.7,389.2 M2105.4,387.5 L2094.6,396.5 M2096.4,392.0 L2094.6,396.5 L2099.3,395.6 M2189.8,388.0 L2178.2,396.0 M2180.4,391.7 L2178.2,396.0 L2183.0,395.5 M189.6,501.1 L202.4,506.9 M197.6,507.3 L202.4,506.9 L199.5,503.1 M301.7,500.9 L314.3,507.1 M309.5,507.3 L314.3,507.1 L311.5,503.2 M408.1,522.2 L419.9,529.8 M415.1,529.5 L419.9,529.8 L417.6,525.6 M526.0,500.5 L538.0,507.5 M533.3,507.4 L538.0,507.5 L535.6,503.4 M631.5,528.6 L644.5,523.4 M641.5,527.1 L644.5,523.4 L639.7,522.8 M752.5,510.1 L759.5,497.9 M759.4,502.7 L759.5,497.9 L755.4,500.4 M858.6,532.1 L865.4,519.9 M865.4,524.7 L865.4,519.9 L861.4,522.4 M969.6,486.4 L978.4,475.6 M977.6,480.3 L978.4,475.6 L974.0,477.4 M1086.3,508.1 L1097.7,499.9 M1095.6,504.2 L1097.7,499.9 L1092.9,500.5 M1195.6,487.6 L1200.4,474.4 M1201.1,479.2 L1200.4,474.4 L1196.8,477.6 M27.6,633.5 L38.4,642.5 M33.7,641.6 L38.4,642.5 L36.6,638.0 M302.4,611.8 L313.6,620.2 M308.9,619.5 L313.6,620.2 L311.6,615.8 M408.2,589.0 L419.8,597.0 M415.0,596.5 L419.8,597.0 L417.6,592.7 M525.9,612.5 L538.1,619.5 M533.3,619.4 L538.1,619.5 L535.6,615.4 M633.1,643.0 L642.9,633.0 M641.6,637.6 L642.9,633.0 L638.3,634.4 M746.3,599.0 L753.7,587.0 M753.4,591.8 L753.7,587.0 L749.5,589.4 M862.1,619.7 L873.9,612.3 M871.6,616.5 L873.9,612.3 L869.2,612.6 M946.5,592.3 L957.5,583.7 M955.6,588.1 L957.5,583.7 L952.8,584.5 M78.5,723.7 L89.5,732.3 M84.8,731.5 L89.5,732.3 L87.6,727.9 M184.6,745.6 L195.4,754.4 M190.7,753.6 L195.4,754.4 L193.6,750.0 M415.1,723.0 L424.9,733.0 M420.3,731.6 L424.9,733.0 L423.6,728.4 M525.6,725.2 L538.4,730.8 M533.6,731.2 L538.4,730.8 L535.5,727.0 M640.4,734.0 L647.6,722.0 M647.4,726.8 L647.6,722.0 L643.5,724.4 M701.0,710.7 L709.0,699.3 M708.5,704.0 L709.0,699.3 L704.7,701.4 M2101.3,721.1 L2098.7,734.9 M2097.2,730.3 L2098.7,734.9 L2101.7,731.2 M2163.5,743.5 L2158.5,756.5 M2157.8,751.8 L2158.5,756.5 L2162.1,753.4 M78.8,835.3 L89.2,844.7 M84.5,843.6 L89.2,844.7 L87.6,840.2 M163.7,862.5 L172.3,873.5 M167.9,871.6 L172.3,873.5 L171.5,868.8 M298.3,856.1 L305.7,867.9 M301.5,865.6 L305.7,867.9 L305.4,863.1 M497.2,810.2 L510.8,813.8 M506.1,814.9 L510.8,813.8 L507.3,810.5 M1768.3,834.5 L1759.7,845.5 M1760.5,840.8 L1759.7,845.5 L1764.1,843.6 M1880.9,835.1 L1871.1,844.9 M1872.4,840.3 L1871.1,844.9 L1875.7,843.6 M2096.0,834.2 L2104.0,845.8 M2099.7,843.6 L2104.0,845.8 L2103.5,841.0 M2178.4,863.8 L2189.6,872.2 M2184.9,871.5 L2189.6,872.2 L2187.6,867.8 M80.9,945.7 L87.1,958.3 M83.2,955.5 L87.1,958.3 L87.3,953.5 M193.5,945.5 L198.5,958.5 M194.9,955.4 L198.5,958.5 L199.2,953.8 M305.6,945.4 L310.4,958.6 M306.8,955.4 L310.4,958.6 L311.1,953.8 M637.2,953.7 L650.8,950.3 M647.3,953.6 L650.8,950.3 L646.2,949.1 M1321.9,948.3 L1310.1,955.7 M1312.4,951.5 L1310.1,955.7 L1314.9,955.4 M2102.3,945.4 L2097.7,958.6 M2096.9,953.9 L2097.7,958.6 L2101.2,955.4 M2160.8,922.0 L2161.2,936.0 M2158.8,931.9 L2161.2,936.0 L2163.4,931.7 M83.1,1057.1 L84.9,1070.9 M82.1,1067.1 L84.9,1070.9 L86.7,1066.5 M194.9,1057.1 L197.1,1070.9 M194.2,1067.1 L197.1,1070.9 L198.7,1066.4 M305.2,1057.6 L310.8,1070.4 M307.0,1067.5 L310.8,1070.4 L311.2,1065.6 M414.1,1067.8 L425.9,1060.2 M423.6,1064.4 L425.9,1060.2 L421.1,1060.5 M525.4,1066.3 L538.6,1061.7 M535.4,1065.3 L538.6,1061.7 L533.9,1060.9 M637.8,1060.8 L650.2,1067.2 M645.4,1067.3 L650.2,1067.2 L647.5,1063.2 M753.6,1057.4 L758.4,1070.6 M754.8,1067.4 L758.4,1070.6 L759.1,1065.8 M983.7,1058.1 L976.3,1069.9 M976.6,1065.2 L976.3,1069.9 L980.5,1067.6 M1089.0,1057.7 L1095.0,1070.3 M1091.1,1067.5 L1095.0,1070.3 L1095.3,1065.5 M1942.8,1082.1 L1931.2,1089.9 M1933.4,1085.6 L1931.2,1089.9 L1936.0,1089.5 M84.6,1169.0 L83.4,1183.0 M81.4,1178.6 L83.4,1183.0 L86.0,1179.0 M190.3,1191.0 L189.7,1205.0 M187.6,1200.7 L189.7,1205.0 L192.2,1200.9 M643.1,1169.1 L644.9,1182.9 M642.1,1179.1 L644.9,1182.9 L646.7,1178.5 M759.5,1170.0 L752.5,1182.0 M752.6,1177.3 L752.5,1182.0 L756.6,1179.6 M974.9,1171.2 L985.1,1180.8 M980.5,1179.6 L985.1,1180.8 L983.6,1176.2 M1060.3,1142.1 L1067.7,1153.9 M1063.5,1151.6 L1067.7,1153.9 L1067.4,1149.1 M1142.9,1171.2 L1153.1,1180.8 M1148.5,1179.6 L1153.1,1180.8 L1151.6,1176.2 M1261.7,1191.8 L1268.3,1204.2 M1264.3,1201.6 L1268.3,1204.2 L1268.4,1199.4 M1966.1,1207.4 L1953.9,1200.6 M1958.7,1200.6 L1953.9,1200.6 L1956.4,1204.7 M2078.4,1206.9 L2065.6,1201.1 M2070.4,1200.7 L2065.6,1201.1 L2068.5,1204.9 M85.3,1281.1 L82.7,1294.9 M81.2,1290.3 L82.7,1294.9 L85.8,1291.2 M197.3,1281.1 L194.7,1294.9 M193.2,1290.3 L194.7,1294.9 L197.7,1291.2 M532.1,1306.6 L519.9,1313.4 M522.4,1309.3 L519.9,1313.4 L524.7,1313.4 M968.4,1269.2 L979.6,1260.8 M977.6,1265.2 L979.6,1260.8 L974.9,1261.5 M1081.9,1304.3 L1090.1,1315.7 M1085.7,1313.6 L1090.1,1315.7 L1089.5,1310.9 M1283.4,1310.7 L1292.6,1321.3 M1288.1,1319.6 L1292.6,1321.3 L1291.6,1316.6 M1536.8,1258.6 L1531.2,1271.4 M1530.8,1266.6 L1531.2,1271.4 L1535.0,1268.5 M1986.3,1294.8 L1989.7,1281.2 M1990.9,1285.8 L1989.7,1281.2 L1986.4,1284.7 M2189.2,1320.7 L2178.8,1311.3 M2183.5,1312.4 L2178.8,1311.3 L2180.4,1315.8 M85.2,1393.1 L82.8,1406.9 M81.2,1402.4 L82.8,1406.9 L85.8,1403.2 M259.1,1415.3 L254.9,1428.7 M254.0,1424.0 L254.9,1428.7 L258.4,1425.4 M420.1,1373.6 L407.9,1380.4 M410.4,1376.3 L407.9,1380.4 L412.7,1380.4 M855.2,1375.4 L868.8,1378.6 M864.2,1379.9 L868.8,1378.6 L865.2,1375.4 M975.9,1394.3 L984.1,1405.7 M979.8,1403.6 L984.1,1405.7 L983.5,1400.9 M1096.1,1394.3 L1087.9,1405.7 M1088.5,1400.9 L1087.9,1405.7 L1092.2,1403.6 M1311.2,1394.9 L1320.8,1405.1 M1316.2,1403.6 L1320.8,1405.1 L1319.6,1400.5 M1394.3,1423.9 L1405.7,1432.1 M1400.9,1431.5 L1405.7,1432.1 L1403.6,1427.8 M1639.6,1379.7 L1652.4,1374.3 M1649.5,1378.0 L1652.4,1374.3 L1647.7,1373.8 M1983.9,1405.7 L1992.1,1394.3 M1991.5,1399.1 L1992.1,1394.3 L1987.7,1396.4 M2093.4,1429.0 L2094.6,1415.0 M2096.5,1419.4 L2094.6,1415.0 L2091.9,1419.0 M2186.0,1434.7 L2182.0,1421.3 M2185.4,1424.6 L2182.0,1421.3 L2181.0,1426.0 M197.1,1505.1 L194.9,1518.9 M193.3,1514.4 L194.9,1518.9 L197.9,1515.1 M254.7,1527.4 L259.3,1540.6 M255.7,1537.4 L259.3,1540.6 L260.1,1535.9 M424.6,1506.7 L415.4,1517.3 M416.4,1512.6 L415.4,1517.3 L419.9,1515.6 M510.8,1513.7 L497.2,1510.3 M501.8,1509.1 L497.2,1510.3 L500.7,1513.6 M648.2,1506.4 L639.8,1517.6 M640.5,1512.8 L639.8,1517.6 L644.2,1515.6 M758.1,1505.3 L753.9,1518.7 M753.0,1514.0 L753.9,1518.7 L757.4,1515.4 M866.8,1505.1 L869.2,1518.9 M866.2,1515.1 L869.2,1518.9 L870.7,1514.4 M980.9,1505.1 L979.1,1518.9 M977.4,1514.5 L979.1,1518.9 L981.9,1515.1 M1156.0,1527.7 L1150.0,1540.3 M1149.7,1535.6 L1150.0,1540.3 L1153.9,1537.5 M1422.5,1507.7 L1433.5,1516.3 M1428.8,1515.5 L1433.5,1516.3 L1431.6,1511.9 M1533.8,1508.7 L1546.2,1515.3 M1541.4,1515.4 L1546.2,1515.3 L1543.6,1511.3 M1645.0,1511.9 L1659.0,1512.1 M1654.8,1514.4 L1659.0,1512.1 L1654.8,1509.7 M1729.0,1539.4 L1743.0,1540.6 M1738.6,1542.6 L1743.0,1540.6 L1739.0,1538.0 M1870.3,1516.1 L1881.7,1507.9 M1879.6,1512.2 L1881.7,1507.9 L1876.9,1508.5 M1982.6,1516.4 L1993.4,1507.6 M1991.6,1512.0 L1993.4,1507.6 L1988.7,1508.4 M2093.7,1515.0 L2106.3,1509.0 M2103.5,1512.9 L2106.3,1509.0 L2101.6,1508.7 M2183.0,1546.9 L2185.0,1533.1 M2186.7,1537.6 L2185.0,1533.1 L2182.1,1536.9 M85.7,1617.2 L82.3,1630.8 M81.1,1626.1 L82.3,1630.8 L85.5,1627.3 M168.8,1589.0 L167.2,1603.0 M165.4,1598.5 L167.2,1603.0 L170.0,1599.0 M308.5,1617.0 L307.5,1631.0 M305.5,1626.6 L307.5,1631.0 L310.1,1626.9 M532.5,1598.5 L519.5,1603.5 M522.6,1599.8 L519.5,1603.5 L524.2,1604.1 M648.7,1618.9 L639.3,1629.1 M640.4,1624.5 L639.3,1629.1 L643.8,1627.6 M1534.2,1620.0 L1545.8,1628.0 M1541.0,1627.5 L1545.8,1628.0 L1543.6,1623.7 M1639.5,1598.4 L1652.5,1603.6 M1647.7,1604.2 L1652.5,1603.6 L1649.5,1599.9 M1757.0,1623.6 L1771.0,1624.4 M1766.7,1626.5 L1771.0,1624.4 L1766.9,1621.9 M1863.8,1604.2 L1876.2,1597.8 M1873.5,1601.8 L1876.2,1597.8 L1871.4,1597.7 M1975.0,1601.8 L1989.0,1600.2 M1985.0,1603.0 L1989.0,1600.2 L1984.5,1598.4 M2095.9,1629.7 L2104.1,1618.3 M2103.5,1623.1 L2104.1,1618.3 L2099.8,1620.4 M2181.8,1602.6 L2186.2,1589.4 M2187.1,1594.1 L2186.2,1589.4 L2182.7,1592.6" fill="none" stroke="#071923" stroke-opacity="0.96" stroke-width="1.35" stroke-linejoin="round" stroke-linecap="round" data-aifsm-role="wind-arrow-fallback"/>
<path d="" fill="none" stroke="none" data-aifsm-role="wind-arrows" data-aifsm-points="84,56,0.9977,-0.0681,38.2;196,56,0.9995,-0.0309,35.6;308,56,1.0000,-0.0031,32.3;420,56,0.9981,0.0614,24.4;481,78,0.9997,0.0261,15.3;644,56,0.9024,-0.4309,12.3;756,56,0.9050,-0.4254,25.9;862,33,0.7963,-0.6049,26.1;1092,56,0.4338,-0.9010,30.0;1176,28,0.2969,-0.9549,29.6;1428,56,0.3761,-0.9266,25.8;1489,33,0.0372,-0.9993,18.8;1624,28,0.3162,-0.9487,11.1;2094,78,0.9958,0.0919,6.5;2184,84,0.9775,-0.2110,9.0;84,168,0.9976,0.0700,32.9;196,168,0.9941,0.1083,31.4;308,168,0.9941,0.1084,27.7;414,145,0.9798,0.1999,25.5;532,168,0.9985,0.0546,18.3;638,190,0.9695,-0.2449,9.8;750,190,0.9376,-0.3478,13.2;868,168,0.7169,-0.6972,25.4;974,190,0.6198,-0.7848,29.7;1064,140,0.5266,-0.8501,29.1;1153,145,0.4284,-0.9036,27.8;1316,168,0.4317,-0.9020,25.9;1422,145,0.3852,-0.9228,24.9;1489,190,0.1627,-0.9867,19.7;1988,168,0.9297,-0.3684,5.7;2100,168,0.9185,-0.3953,8.6;2184,196,0.7487,-0.6629,12.8;84,280,0.9682,0.2501,28.0;196,280,0.9791,0.2033,18.7;280,308,0.9963,0.0862,10.4;532,280,0.9704,0.2415,22.8;644,280,0.9934,0.1149,14.8;756,280,0.8874,-0.4611,11.5;862,257,0.6411,-0.7674,20.6;974,257,0.6172,-0.7868,29.5;1204,280,0.5770,-0.8167,24.6;1316,280,0.4642,-0.8858,25.9;1422,257,0.3849,-0.9230,24.2;1652,280,0.3162,-0.9487,6.0;1764,280,0.3714,-0.9285,5.9;1982,302,0.0599,-0.9982,5.0;78,369,0.9085,0.4178,26.1;196,392,0.8907,0.4547,16.1;302,414,0.9608,0.2772,10.8;420,392,0.9658,0.2591,12.7;980,392,0.5929,-0.8053,25.0;1092,392,0.7314,-0.6820,22.3;1198,369,0.5897,-0.8076,23.4;1316,392,0.0208,-0.9998,9.6;2100,392,-0.7682,0.6402,5.5;2184,392,-0.8240,0.5665,5.8;196,504,0.9104,0.4138,8.5;308,504,0.8974,0.4412,13.4;414,526,0.8415,0.5403,22.6;532,504,0.8632,0.5048,13.7;638,526,0.9277,-0.3733,8.8;756,504,0.5025,-0.8646,13.5;862,526,0.4923,-0.8704,11.4;974,481,0.6324,-0.7747,12.7;1092,504,0.8108,-0.5853,20.8;1198,481,0.3487,-0.9372,13.8;33,638,0.7693,0.6389,22.2;308,616,0.8014,0.5982,26.1;414,593,0.8244,0.5660,24.4;532,616,0.8678,0.4969,14.3;638,638,0.7021,-0.7121,19.9;750,593,0.5237,-0.8519,12.8;868,616,0.8499,-0.5269,20.1;952,588,0.7880,-0.6156,12.2;84,728,0.7852,0.6192,22.3;190,750,0.7756,0.6312,24.2;420,728,0.6985,0.7156,23.3;532,728,0.9158,0.4017,16.9;644,728,0.5205,-0.8538,21.9;705,705,0.5765,-0.8171,22.0;2100,728,-0.1895,0.9819,11.6;2161,750,-0.3632,0.9317,12.7;84,840,0.7435,0.6687,21.4;168,868,0.6130,0.7901,22.0;302,862,0.5350,0.8449,23.6;504,812,0.9675,0.2527,13.8;1764,840,-0.6202,0.7844,5.5;1876,840,-0.7071,0.7071,5.4;2100,840,0.5679,0.8231,12.1;2184,868,0.8038,0.5948,6.2;84,952,0.4491,0.8935,20.7;196,952,0.3639,0.9314,23.1;308,952,0.3489,0.9372,24.6;644,952,0.9708,-0.2401,9.6;1316,952,-0.8451,0.5346,5.8;2100,952,-0.3352,0.9422,11.0;2161,929,0.0297,0.9996,10.1;84,1064,0.1291,0.9916,21.7;196,1064,0.1630,0.9866,23.9;308,1064,0.4043,0.9146,19.8;420,1064,0.8371,-0.5471,15.2;532,1064,0.9448,-0.3278,10.4;644,1064,0.8886,0.4586,7.0;756,1064,0.3399,0.9405,8.8;980,1064,-0.5286,0.8489,6.2;1092,1064,0.4327,0.9015,5.5;1937,1086,-0.8296,0.5584,12.5;84,1176,-0.0924,0.9957,23.8;190,1198,-0.0384,0.9993,18.2;644,1176,0.1309,0.9914,5.3;756,1176,-0.5039,0.8638,8.3;980,1176,0.7334,0.6798,5.6;1064,1148,0.5346,0.8451,5.8;1148,1176,0.7339,0.6793,12.8;1265,1198,0.4714,0.8819,6.6;1960,1204,-0.8735,-0.4868,15.0;2072,1204,-0.9085,-0.4178,15.1;84,1288,-0.1824,0.9832,25.2;196,1288,-0.1883,0.9821,14.9;526,1310,-0.8742,0.4856,5.1;974,1265,0.8022,-0.5970,5.4;1086,1310,0.5795,0.8150,5.5;1288,1316,0.6504,0.7596,44.0;1534,1265,-0.4017,0.9158,6.2;1988,1288,0.2393,-0.9709,14.6;2184,1316,-0.7358,-0.6772,30.7;84,1400,-0.1726,0.9850,27.8;257,1422,-0.2968,0.9549,7.7;414,1377,-0.8757,0.4828,8.9;862,1377,0.9741,0.2260,12.8;980,1400,0.5845,0.8114,11.5;1092,1400,-0.5891,0.8081,13.2;1316,1400,0.6810,0.7323,44.8;1400,1428,0.8091,0.5877,39.3;1646,1377,0.9211,-0.3892,23.1;1988,1400,0.5803,-0.8144,9.8;2094,1422,0.0797,-0.9968,7.5;2184,1428,-0.2906,-0.9568,22.4;196,1512,-0.1523,0.9883,26.9;257,1534,0.3241,0.9460,11.4;420,1512,-0.6522,0.7580,5.7;504,1512,-0.9701,-0.2425,6.6;644,1512,-0.6021,0.7984,7.6;756,1512,-0.2991,0.9542,7.0;868,1512,0.1644,0.9864,9.1;980,1512,-0.1232,0.9924,14.6;1153,1534,-0.4224,0.9064,11.4;1428,1512,0.7886,0.6149,36.3;1540,1512,0.8827,0.4700,8.7;1652,1512,0.9999,0.0152,19.7;1736,1540,0.9958,0.0914,21.9;1876,1512,0.8099,-0.5865,21.5;1988,1512,0.7784,-0.6278,11.9;2100,1512,0.9053,-0.4247,8.9;2184,1540,0.1476,-0.9891,25.1;84,1624,-0.2493,0.9684,38.1;168,1596,-0.1092,0.9940,34.8;308,1624,-0.0644,0.9979,9.3;526,1601,-0.9357,0.3528,6.5;644,1624,-0.6783,0.7348,5.3;1540,1624,0.8225,0.5688,24.4;1646,1601,0.9280,0.3727,26.8;1764,1624,0.9984,0.0573,20.9;1870,1601,0.8897,-0.4566,25.6;1982,1601,0.9939,-0.1104,10.9;2100,1624,0.5827,-0.8127,19.6;2184,1596,0.3162,-0.9487,21.2"/>
</svg>
